/* XPM */
static char *_faf3d4ad86647fdddc80b8e19bdd505rnShDp7fq5d3lKBm[] = {
/* columns rows colors chars-per-pixel */
"50 50 240 2 ",
"   c #381525",
".  c #663C1D",
"X  c #471A28",
"o  c #4D1E2C",
"O  c #551C2B",
"+  c #4C1E35",
"@  c #591E34",
"#  c #611E37",
"$  c #482627",
"%  c #55222D",
"&  c #5A242C",
"*  c #552B2A",
"=  c #57342B",
"-  c #482738",
";  c #562233",
":  c #5A2432",
">  c #5A2639",
",  c #5F3435",
"<  c #662B2B",
"1  c #673628",
"2  c #6D342B",
"3  c #743C2B",
"4  c #7A3B29",
"5  c #652936",
"6  c #6A2E33",
"7  c #6B2B3A",
"8  c #712C3B",
"9  c #693436",
"0  c #743937",
"q  c #5D4039",
"w  c #664428",
"e  c #764429",
"r  c #694338",
"t  c #7B4533",
"y  c #75443A",
"u  c #413449",
"i  c #44394D",
"p  c #49384C",
"a  c #523545",
"s  c #443E52",
"d  c #4A3F53",
"f  c #6B2B42",
"g  c #6A3746",
"h  c #783842",
"j  c #3F546B",
"k  c #3D5A70",
"l  c #5A414A",
"z  c #4B4256",
"x  c #45455A",
"c  c #44465A",
"v  c #4B4559",
"b  c #4D4A5E",
"n  c #544A5C",
"m  c #754843",
"M  c #6E495B",
"N  c #444B60",
"B  c #4C4E62",
"V  c #524E62",
"C  c #4C5469",
"Z  c #545264",
"A  c #53566A",
"S  c #56596C",
"D  c #5B5A6C",
"F  c #475D73",
"G  c #5A5E71",
"H  c #675B68",
"J  c #695F6C",
"K  c #47657B",
"L  c #5C6274",
"P  c #59677B",
"I  c #546B7D",
"U  c #636374",
"Y  c #636B7D",
"T  c #696979",
"R  c #776B77",
"E  c #803B1D",
"W  c #863B29",
"Q  c #893E3D",
"!  c #81442A",
"~  c #8A482A",
"^  c #964A28",
"/  c #97542B",
"(  c #87473A",
")  c #984937",
"_  c #875239",
"`  c #985538",
"'  c #A34C3B",
"]  c #A85639",
"[  c #B25D38",
"{  c #986634",
"}  c #A6672D",
"|  c #B0662B",
" . c #BB7B2C",
".. c #A96838",
"X. c #B3693A",
"o. c #BA7836",
"O. c #C36B3A",
"+. c #C47B37",
"@. c #833D45",
"#. c #803750",
"$. c #884446",
"%. c #9A4A46",
"&. c #875543",
"*. c #985C45",
"=. c #984857",
"-. c #A75847",
";. c #B35C45",
":. c #A25252",
">. c #B65959",
",. c #9D6245",
"<. c #8A665C",
"1. c #A66649",
"2. c #B66647",
"3. c #BA7549",
"4. c #B66557",
"5. c #A97551",
"6. c #B77A59",
"7. c #895B6D",
"8. c #A65D63",
"9. c #8E7170",
"0. c #B26664",
"q. c #C56947",
"w. c #C87B4A",
"e. c #C86458",
"r. c #CA7859",
"t. c #D77355",
"y. c #D16E61",
"u. c #CE7667",
"i. c #BD8232",
"p. c #C88A36",
"a. c #CB9134",
"s. c #DB9839",
"d. c #E0A137",
"f. c #EAA939",
"g. c #F1B439",
"h. c #EDC43E",
"j. c #FCCB3E",
"k. c #B48E6C",
"l. c #C68744",
"z. c #D68949",
"x. c #D9954A",
"c. c #CA8853",
"v. c #C89554",
"b. c #D29250",
"n. c #E49A50",
"m. c #D7AB50",
"M. c #E7A545",
"N. c #EAB450",
"B. c #D28E67",
"V. c #D1AA6D",
"C. c #E7B268",
"Z. c #F1D14F",
"A. c #F6C95A",
"S. c #EAC267",
"D. c #F5CD68",
"F. c #FBD368",
"G. c #ECD077",
"H. c #536E81",
"J. c #596D81",
"K. c #557184",
"L. c #5B7386",
"P. c #5B7489",
"I. c #5B778B",
"U. c #5C7B92",
"Y. c #6A7585",
"T. c #647588",
"R. c #6F768A",
"E. c #6D7B8A",
"W. c #747788",
"Q. c #747C8B",
"!. c #647E92",
"~. c #9D7E89",
"^. c #857E91",
"/. c #6D8295",
"(. c #67849B",
"). c #6A8B9F",
"_. c #758393",
"`. c #7C8493",
"'. c #748997",
"]. c #778897",
"[. c #748C9C",
"{. c #7C8A9A",
"}. c #6D8CA3",
"|. c #6A8AA6",
" X c #738DA1",
".X c #6E90A7",
"XX c #7191A6",
"oX c #7D94A5",
"OX c #7395AC",
"+X c #7A95AB",
"@X c #7B99AC",
"#X c #7699B2",
"$X c #789AB3",
"%X c #7A9BB4",
"&X c #7FA1B8",
"*X c #878895",
"=X c #838D9C",
"-X c #9A9296",
";X c #A5A595",
":X c #808FA2",
">X c #8393A3",
",X c #8996A6",
"<X c #849BAC",
"1X c #8C9CAC",
"2X c #9397A7",
"3X c #859DB3",
"4X c #88A4B7",
"5X c #84A4BB",
"6X c #8CAABD",
"7X c #94A4B4",
"8X c #94A8B4",
"9X c #98A9B7",
"0X c #9BAEBC",
"qX c #AAAEAF",
"wX c #D7B689",
"eX c #E2CF9C",
"rX c #F9E889",
"tX c #F7EEB0",
"yX c #8DADC3",
"uX c #92ADC2",
"iX c #99AFC0",
"pX c #8FB0C5",
"aX c #93B2C6",
"sX c #9AB4C5",
"dX c #9AB8C7",
"fX c #95B4C9",
"gX c #9AB6CA",
"hX c #9DBBCD",
"jX c #9EBDCE",
"kX c #9FBDD0",
"lX c #A5B8C6",
"zX c #A1BCCD",
"xX c #A2BFD1",
"cX c #A5C1D3",
"vX c #A6C4D6",
"bX c #A9C5D6",
"nX c #ABC6D9",
"mX c #ADC8DB",
"MX c #B1CCDC",
"NX c #B7D1DE",
/* pixels */
"c k .X$XhXkXxXkXxXxXgXK.jXnXnXcXgXxXxXcXnX=XE./.L.L.L.K.H.U.(.}. X(.(.T.T.A E.yXaXhXhXcXaXxXhXhXdXT.",
"c K .X5XxXxXxXkXxXxX9XH.xXnXnXxXxXjXjXbXnX,Xu u z D L L Y S c c c c v b v i _.uXfXhXhXcX).@XdXkXsXP ",
"c K OXyXjXxXxXxXxXcX7XI cXnXnXxXhXgXjXnXnX7Xz =X0X0X9X9X7X7X].E.E.E.E.E.B i =XhXgXhXcX4X).).XXaXsXL ",
"c K $XaXhXkXxXxXxXxX1XF xXnXcXzXgXxXxXnXnX9X>XjXgXjXjXxXzX6X$XOXOX%X%X$X(.c ,XhXhXhXzXXXXXXXXX).@XS ",
"s K %XgXjXxXxXxXxXcX=XC fXnXzXjXjXxXxXnXmX7XzXxXhXhXjXxXxXbX5X%X%X%X$X%X$XF >XgXgXhX4XXXXXXXXX).[.A ",
"s K yXhXxXxXcXxXxXcXU S 6XcXjXjXjXxXcXhXbX7XjXfXvXnXvXvXvXvXvXyX%X#X#XOX$XI `.fXfXyXXXXXXXXXXXXX[.B ",
"c K.fXjXhXcXxXxXxXbXV A +XxXjXjXjXzXnX#X5X1XyXcXnXvXvXvXvXvXvXcXhX5XyX5X%XL.T gXaX@XXXOX}.XX}.XX].V ",
"c !.gXxXxXxXxXxXxXbXu C (.hXjXgXjXcXgXOX#X>X+XvXnXvXvXvXnXxXxXhXjXjXhXhXsXH.D 3X6X%XOXXXXXXXXXXX].v ",
"P [.dXxXxXxXxXxXxXnXu B !.kXgXgXzX6XOXXXXXZ J.kXbXvXnXbXcXhXhXhXgXhXhXhX5XI b sXhX$X}.).}.}.(.(.E.u ",
"Y.[.zXxXxXxXxXjXzXMXi i L _.Q.Q.Q.L b b b u s 6XvXvXvXMX5XyXyX6X;X{.[.OXK.B i E.!.I H.K.I I I I b u ",
"Y.oX0XzX1XoX4XcXxXnXP L.H.I I G B s u u p u u L fXcXhX6X}.!.n r .. .p.3.a u u z B I H.H.I L.I b u u ",
"v b n Z b Z P =XlX0X[.fXbXcX4X XE.E.u p u u u u Z L L T Z > 1 = 1 } h.j.d.9._.Y u u c B A Z n i u u ",
"u u d T _.,X=XR.U U ,XxXzX9X2X9.m y &.m J *X`.R M a g ( Q Q -.;.( w e Z.a.m.;XgXdX`.u `.sXbXMXmX1Xd ",
"1XcXcXxXcXcXxXxXxX0X>X-X5.1.&.*.,.1.l.M.l.( 0 < < 9 ( ( -.;.) 2.w.1.1 e m.a.rXqXxXzXn gXxXnXhXnXfXZ ",
"=XzXjXxXxXxXcXcXxX4X9.6.*._ r _ _ ` 3.l.M.M...m 0 < ( *.2.3.2.) 2.w.3.w _ rXtXeX0XzXU xXxXcXhXMX%XV ",
"Y zXzXxXxXxX5XyXjX-X6.5.1.t y t _ ` ` 3.c.A.v.5.*.-.) 1.3.3.w.q.) x.x.p.. V.Z.D.;XxXW.xXzXjXzXnX%XB ",
"U xXjXjXjX5X#X%X7X6.6.*.* - - - - , ,.1.3.v.v.l.3.2.3.] w.z.x.x.X.z.n.n...} f.x.k.bX{.zXxXzXjXcXhXB ",
"T zXhX5X#X}.|.%X9.6.1.= - 5 g g h > , 1.2.w.V.A.S.3.z.l.w.x.x.z.3.b.c.V.C.N.s. .v.nX>XcXcXxXhXxXkXV ",
"D ].H.F F k j G 6.,.r - > 8 g g h 0 9 9 / / 3.tXtXwXz.z.b.b.X.eXtXrXF.p.f.s. . .k.nX<XnXbXjXzXzXjXS ",
"d z u s z v v m &.t t t t t t 1 3 0 9 9 ! / } V.rXS.N.D.A. ./ S.F.A.A.} p.d.g.N.qXnX,XnXmXzXzXhXxXU ",
"u C K (.}.}.(.y r r _ _ _ _ t = ! ! ~ ~ ~ ! e X.x.m.j.j.Z.a.~ m.p.l.m.x.g.g. .N.qXmX>XnXnXnXxXxXxXU ",
"c U.6XhXhXaXyX9.t 1 2 1 = $ * $ $ * = 1 3 e 3 / +.i.s.a.a.p.^ l.} 3.p.G.p.s.g.N.lXmX{.nXnXnXbXcXjXG ",
"C }.gXhXjXhXhXaX&.r t ! 3 t 2 3 3 2 1 2 3 4 4 ! / a.f.g.f.d.^ } } / ^ b./ X.F.S.bXnXW.nXnXbXmXxXjXG ",
"F XX5XaXkXcXvXjX<.r 9 < 9 y e t t y 3 3 ! ! 3 / X.s.s.+.| ^ W E v.+.l.+.~ X.F.G.bXnXY.bXnXnXnXbXjXU ",
"F #X$X$X$X#XaXxX9.r = $ o 0 0 1 1 1 2 < 3 3 1 ! ..{ o.2 ~ ~ 4 / l.....~ W X.A.V.#XbXG cXcXcXnXnXhXD ",
"C #X$X$X$X%X$X5X9.r = $ o * _ 3 3 4 2 % X o 4 ! ] p.x.] 2.X.4 ..z.^ ^ ^ W ..M.k.OX3XZ @XK.(.yXaX Xb ",
"B }.$X$X%X$X$X%XR r = $ % 0 ( 3 3 4 < & ; X 3 4 ` x.x.;.] X.4 ( 3.X.z.[ W ] +.5.E.b i L J.K.I H.P.v ",
"i G [.oX+X+X(.(.J q = $ &.0 o $ $ $ & 2 : X < 4 ` B.C.2.) [ ( 4 2.n.z.O.) ` X.k.cXhXiX7X,XoX].{.`.U ",
"s R.>X9X0X=XY E.H r = = 1.9 > o ; o % < % O < 4 ) B.B.;.) ;._ ( ) w.] O.] ` z.B.xXxXxXxXxXxXcXxXcX`.",
"Y.cXbXnXnXhXL u a r * 9 *.0 5 ; > > > < & O & 3 ( c.z.] ) -.` 0 ' q.) ;.[ ) w.B.cXxXxXxXxXxXxXxX6XZ ",
"{.xXxXcXnX5XP i l r * = *.0 > ; > > & 2 o O & 2 ( 4.6.-.%.%.%.0 c.r.' ) ;.) q.r.xXxXjXxXxXxXxXcXoXz ",
"<XxXjXzXxXkXL P R m =   m ( 2 6 5 < 2 % X @ & 6 ( 1.` -.%.%.-.( %.2.2.;.-.' ' r.<XyXaXhXhXgXxXxX0Xp ",
"<XcXxXjXzXxXY P T y =     9 $.0 0 6 o   @ @ : 6 Q 4.2.%.%.$.:.@.$.:.%.' q.t.q.-.U P.U.U.}.oX<X<X>Xi ",
"1XnXxXjXhXjX_.P.U 0 6 $       X X     ; # @ ; 6 @.4.2.%.@.@.:.u.u.t.t.t.t.e.%.h U E././.]./._._.Y.u ",
"<XnXnXcXjXhX{.H.Q.h 6 o &           + > # > ; 6 h 4.;.=.0.u.B.u.t.:.e.4.$.H 4XbXnXmXnXmXcXxXxXxXzXn ",
">XuXxXnXcXjX].K.2X9 6 6 6 5 : & % : : @ @ > ; 7 h 4.>.e.u.u.y.e.e.=.~.=XV P.XXbXnXbXbXnXxXxXxXxXcXU ",
":XmXnXnXnXxX_.P.=Xg 8 h h 8 7 7 9 6 7 5 5 5 5 7 h 8.0.>.>.e.>.8.*XuXyX1XG H.6XnXnXnXcXhXxXxXzXcXnXQ.",
"{.uX6XcXnXgXT.P.3Xn a u ^.2X^.7.M h 8 7 7 7 5 > 7 =.@.>.>.8.2XgXhXuX4X=Xc U.cXnXnXbXzXjXzXxXxXnXnXQ.",
"S J.K.K.!.U.A I @XcXcXzXhXzXgXuXOX!.W.g f f 5 5 7 =.=.7.2XhXkXyXgX5XoXz s P.cXnXxXzXjXjXxXxXbXbXxXT ",
"E.{.>X].Y Z b S L U D D D D V Z G L v u u p > > f #.M  X[.oX X/.T.C i u i P.5XxXxXzXzXjXhXhX#X%XgXV ",
"E.6XcXcXzX4X[.[.<X8Xn v S Y _.oXoX@X,XZ i i d - a ^.gXcXnXmXMXMXMXMXbX0X{.B B G `.`.{.,X,X,X`.D z u ",
"/.4XuXhXxXcXbXnXMXnXU  X6XgXbXnXcXxXxXzXR.u =XgXjXxXxXcXbXnXnXnXhXnXcX#XOXY z 0XNXMXMXMXMXNXMXlXT u ",
"].@X%XyXgXxXxXcXzXhXQ.[.nXmXmXnXnXxXxXfX7Xs sXxXxXxXxXhXxXjXzXcXxXbXgX#XOXL ].bXkXgXhXhXkXxXcXnXnXR.",
"[.@X$X%XpXhXcXxXxXxX>XT.nXmXnXnXnXxXcXfXdXU aXxXxXxXxXjXjXjXjXhXxXxXbXcX&XL _.kX6XaXaXfXsXaXaXfXjXlX",
"P  X$X$X5XaXxXxXxXxX1XP.hXnXnXnXnXcXxXxXhXE.aXcXnXcXxXjXjXjXjXgXxXxXxXxXgXY Q.kXyXaXhXhXaXaXaXfXaXuX",
"N K #X#X$X5XxXxXxXxX9XP.aXcXnXnXnXxXxXxXxXE.dXnXnXnXnXcXjXcXjXjXgXxXjXxXzX`.Q.kXaXfXhXhXhXfXaXfXfX4X",
"s k XX$X$X$XyXcXxXcXiXL.6XnXnXmXcXxXjXxXbXE.dXnXnXnXmXnXnXbXcXjXxXjXjXjXhX{.E.hXaXfXhXhXhXhXhXfXhX>X",
"i F ).$X$X$X5XcXxXxXdXL.6XnXnXnXjXjXgXxXnXQ.6XnXnXcXnXnXnXnXnXbXxXjXjXjXjX`.E.aXaXhXhXjXhXjXkXhXkX[.",
"i F U.|.$X$XaXcXcXxXsXK.6XmXnXnXhXjXxXcXMXQ.4XnXnXnXnXnXnXnXnXMXnXcXjXjXcX`.Q.6XaXhXhXjXhXhXhXhXxX_.",
"s k U.%X#X&XcXkXxXxXdXH.fXnXnXbXjXjXjXcXnX`.<XnXxXaX6XaXcXcXbXMXMXnXcXsXyXY.E.6XaXhXhXjXcXhXhXhXxXE."
};
