/* XPM */
static char *_aa5c5ddc8ad4759caa51fbab74bb74bU1zjUUrb1U2L7anw[] = {
/* columns rows colors chars-per-pixel */
"50 50 212 2 ",
"   c None",
".  c #1B170D",
"X  c #1E190D",
"o  c #1D1A12",
"O  c #1D1D1E",
"+  c #171817",
"@  c #231C0F",
"#  c #241E12",
"$  c #231E1B",
"%  c #1F201E",
"&  c #29210F",
"*  c #262013",
"=  c #2A2314",
"-  c #2F2817",
";  c #24221C",
":  c #2A241B",
">  c #2F2819",
",  c #312917",
"<  c #342C1B",
"1  c #392F1F",
"2  c #39301F",
"3  c #3D3017",
"4  c #1D1E24",
"5  c #1B1E29",
"6  c #151A26",
"7  c #221F22",
"8  c #1E2126",
"9  c #1E212B",
"0  c #1D2232",
"q  c #1E253E",
"w  c #1C2A39",
"e  c #232324",
"r  c #2B2624",
"t  c #2B2926",
"y  c #23242B",
"u  c #26292D",
"i  c #2D2C2C",
"p  c #28272C",
"a  c #322F2D",
"s  c #302A21",
"d  c #3B3423",
"f  c #37332E",
"g  c #3B352B",
"h  c #3C3729",
"j  c #232432",
"k  c #292536",
"l  c #252A33",
"z  c #2B2C33",
"x  c #24263D",
"c  c #252A3A",
"v  c #2A2E3B",
"b  c #312F32",
"n  c #2B3336",
"m  c #24303B",
"M  c #2D323B",
"N  c #353333",
"B  c #3A3533",
"V  c #3D3934",
"C  c #32333B",
"Z  c #36383D",
"A  c #3C3A3C",
"S  c #39373B",
"D  c #533B1A",
"F  c #413623",
"G  c #423925",
"H  c #433B2B",
"J  c #493C27",
"K  c #433D34",
"L  c #433E3B",
"P  c #523F30",
"I  c #3D423B",
"U  c #49412F",
"Y  c #544329",
"T  c #574422",
"R  c #4A4234",
"E  c #46423B",
"W  c #49423A",
"Q  c #464436",
"!  c #514A3C",
"~  c #584A35",
"^  c #5D533B",
"/  c #6A5937",
"(  c #6E552F",
")  c #192B43",
"_  c #1E2955",
"`  c #1C3453",
"'  c #202540",
"]  c #242D41",
"[  c #232B4A",
"{  c #2A2D44",
"}  c #233345",
"|  c #2C3244",
" . c #2E3B45",
".. c #24344B",
"X. c #2D324C",
"o. c #243949",
"O. c #353943",
"+. c #3C3B43",
"@. c #353D4B",
"#. c #353748",
"$. c #272E59",
"%. c #243351",
"&. c #2C3657",
"*. c #2C345D",
"=. c #293D55",
"-. c #343B55",
";. c #343957",
":. c #1E2B65",
">. c #293969",
",. c #323C62",
"<. c #2C3A76",
"1. c #413E43",
"2. c #2D414B",
"3. c #3D424C",
"4. c #3D4451",
"5. c #384758",
"6. c #3D515E",
"7. c #26425E",
"8. c #3A496A",
"9. c #374669",
"0. c #395363",
"q. c #2F4E70",
"w. c #2C5374",
"e. c #335572",
"r. c #3B4970",
"t. c #3B606F",
"y. c #3D6277",
"u. c #424443",
"i. c #4A4544",
"p. c #4B4946",
"a. c #46454A",
"s. c #4B4C4B",
"d. c #49484D",
"f. c #524C43",
"g. c #504D4F",
"h. c #5B534A",
"j. c #5F5340",
"k. c #454A52",
"l. c #464856",
"z. c #485357",
"x. c #53555C",
"c. c #5A5956",
"v. c #685A42",
"b. c #625C57",
"n. c #5B625A",
"m. c #786549",
"M. c #6B635B",
"N. c #6B6358",
"B. c #7A6B58",
"V. c #465D6D",
"C. c #535C64",
"Z. c #525B77",
"A. c #434C70",
"S. c #5B646B",
"D. c #42687B",
"F. c #5B687A",
"G. c #686666",
"H. c #68677B",
"J. c #717671",
"K. c #826B4A",
"L. c #92774D",
"P. c #887455",
"I. c #987D58",
"U. c #8A724B",
"Y. c #937D62",
"T. c #8A7764",
"R. c #9D845D",
"E. c #948568",
"W. c #A38C69",
"Q. c #B1976C",
"!. c #2F5C8F",
"~. c #315F81",
"^. c #2E4B8A",
"/. c #3A6689",
"(. c #396B94",
"). c #335DAB",
"_. c #3D67A8",
"`. c #4A658A",
"'. c #446B92",
"]. c #536A9C",
"[. c #4B6D92",
"{. c #637A88",
"}. c #767A84",
"|. c #64698D",
" X c #4C6BA5",
".X c #4778A5",
"XX c #5578AA",
"oX c #4467B8",
"OX c #527CB7",
"+X c #4D7DC8",
"@X c #768697",
"#X c #4D86A9",
"$X c #4F92BD",
"%X c #758CA6",
"&X c #7796A8",
"*X c #5A84CC",
"=X c #6A95DE",
"-X c #5DA7CA",
";X c #74A7D9",
":X c #69ACCF",
">X c #6D9CE4",
",X c #658BE8",
"<X c #78A9E9",
"1X c #76ACF8",
"2X c #7BB8F4",
"3X c #6FB5E6",
"4X c #7DC5F6",
"5X c #8BB9D5",
"6X c #85A8E2",
"7X c #83DBFB",
"8X c #88CCEF",
"9X c #BCEEFC",
/* pixels */
"                          *   # # :   {.n./ v.}.G.W.Q.B.3.i.z.@.                                    ",
"                        d = = = , 1   E y.0.! k.E m.m.~ O.0.v X.                                    ",
"                    G d 1 2 2 1 1 2 2 1 k.n 5.0.E P ~ d n l c 8.  d * # =                           ",
"                  d = > , , = , , - , - A z.v 9 u v.L.~ 8 M | 5.> 1 # @ @ @                         ",
"                  d @ = = = J Y = , - , < S.+.u 8 c.E.M.l v &.M = < , = = @                         ",
"                    d < = = = = = = = = = z.k.y z 9 m u c c -.u = , = = = = <                       ",
"                    G F = = = = = = = = = B C.Z @.4.n m 8.5. .; = = = = = = # * = >                 ",
"                      H @ * = * * # @ @ # r V.6.y.D.D.t.t.5.e X * = , v., = * # #                   ",
"                      d : # o o o # r e e e } 2.n e o . . . @ X # # # * * = = #                     ",
"                        # h , # o + 0 %.7.w.~.w.` w 8 8 9 e ; ; # * @ X o o #                       ",
"                            H = = 4 ` e.-Xy.w } ) /.#X(..X#X/.w./.0.M r * #                         ",
"                            G = = $ v c ..} c j 9 6 l l =.=.0 ] D.:X@.e O o                         ",
"                            J , : = H N / U z l u 4 v l l 8 M y y ] @.# =                           ",
"                            R = = = Y / I i S z l 4  .v e O e $ O q +.* =                           ",
"                            R # = & T Q j e n i e o ; X # # : r 8 x A # =   v.                      ",
"                            ! * * = F l e % : # # # # * # e j 5 j j +.# V d                         ",
"                            R = @ = e i o = # # # # $ c $.$.] | l 5 #.* # s.                        ",
"                            ^ 1 # : %.t # = @ @ $ c *.$._ :.,.-.l 8 O.# o c.                        ",
"                            v.1 # ; %.B = # : c <.<.<.oXoX).8.| l 8 O.* # c.                        ",
"                              1 * ; o.z # p *.<.^.+X>X1X,X X;.v l 8 N #   c.s.                      ",
"                              d * ; o.l v [ _ ).8X<X2X7X1XXX9.v v e i #     S                       ",
"                              d = ; o.l X.' >.3X9X<X4X7X1XXXr.m v e C =     N                       ",
"                              d * ; ..l X.[ 9.5X6X=X6X4X>X].r.v v y M =     t                       ",
"                              d * * } v X.[ 9.'.;X2X;X=X*X].8.c M i z * #   i                       ",
"                              2 * # m v | ' &.&.8.`.XX X X].9.v 1.s i = #                           ",
"                              d * * l z p c x x { ;.A.`.`.8.8.c b f t = #                           ",
"                              d # # l v V s # $ 7 e j k k k M M b V i * #                           ",
"                              G & # c z * # 3 = : ; ; ; ; r d e N A i : #                           ",
"                              G = = m N > = & @ # # # # # # # e z d z # #                           ",
"                              d = # M z d = = = # ; r e e 8 O 8 C G v # #                           ",
"                              h = @ z v f : ; e e O O e 4 4 e l y e z = :                           ",
"                              G = # z v e 4 O 4 4 4 4 C l y e v l y v : #                           ",
"                              > > = i p l e e C y 9 4 O.l u e v c y p : #                           ",
"                            R = = * c u l 9 e v y 9 4 Z n u 4 v l y j : #                           ",
"                            ! = @ *  .l l 4 e M y e 4 C l u 4 M l e j : #                           ",
"                          R.K.G @ #  .l e 8 e v u e 4 M c u O C l e j t #                           ",
"                          R.J.I # # 2.c 9 8 e v 9 9 e C c u O M l 8 j i #                           ",
"                        Q.B.V = # @ M l e 8 e c 9 5 4 C l y 7 v 9 y 9 i #                           ",
"                        Y.  d = = # , d 4 9 4 y 5 5 4 v j 8 e l 9 8 0 z #                           ",
"                      W.N.  G = * # = F Y r 8 i 5 6 9 | y 4 4 l 9 5 0 O.#                           ",
"                    L.T.    U > @ * = D D ( T F 5 5 c | 9 4 4 u 5 5 0 3.*                           ",
"                  I.P.B.    H = @ # = G u./ ( e 5 9 { | 9 4 j c 4 4 5 @.: *                         ",
"                  m.Y.      R * # # = Q O e e c 9 y c v 5 5 ' c 5 5 5 6.i : k.k.k.                  ",
"                I.  P.      R = * # 8 ) q q } [ [ c %./.(.$X'.e./.!.q.V.t p C.S.G.M.p.              ",
"              R.  P.m.  H.H.d.N +.4.0._.oX+X-X'..XXXOX*XOX X$X:X&X{.F.A.9.l.V.H.}.J.b.E             ",
"              B.  K.b.|.|.Z.H.}.}.@X&X%X%X>.F.x.C.Z.x.x.l.5.=.F.#.-.&.*.,.;.X.X.X.z.n.f.V           ",
"            I.    N.}.G.i.1.1.+.a.a.g.f.g.l.a.A +.1.l.s.i.3.4.s.L L S C C S A Z A +.S N t           ",
"            m.    M.N.f.h.h.p.i.u.a.1.! f.@.z g +.+.u.u.E A i.K E R K V B f B S V A A i             ",
"          U.    / j.h.W K K K W i.i.a.u.R f.r h f B S V K a E L W W E K E K f B V f S i             ",
"        I.m.  K.I.~ L B A +.1.L L L f.E W R : d K K B V H a A L K E W W Q K V V B a a r             "
};
