/* XPM */
static char *ea25b0653e284d8ce8e9a8247c2092fdZON7B5FHHPTk6LSm[] = {
/* columns rows colors chars-per-pixel */
"50 50 174 2 ",
"   c None",
".  c #7C452F",
"X  c #6E453C",
"o  c #7F4C38",
"O  c #7C4330",
"+  c #575155",
"@  c #5F545A",
"#  c #684A43",
"$  c #714F43",
"%  c #7C5043",
"&  c #644E51",
"*  c #64535B",
"=  c #69565E",
"-  c #63585F",
";  c #695256",
":  c #72575A",
">  c #605E60",
",  c #6C5A62",
"<  c #705C65",
"1  c #735F68",
"2  c #6D696C",
"3  c #736369",
"4  c #7B666E",
"5  c #706C70",
"6  c #7C6C73",
"7  c #7C6670",
"8  c #717071",
"9  c #7C7474",
"0  c #8A472C",
"q  c #9A4C25",
"w  c #964D2C",
"e  c #9D4E29",
"r  c #9D5027",
"t  c #97502D",
"y  c #9D512C",
"u  c #8F4D34",
"i  c #984E30",
"p  c #955335",
"a  c #9E5937",
"s  c #9B5A3D",
"d  c #9D5637",
"f  c #A04E27",
"g  c #A14F29",
"h  c #A4532A",
"j  c #AB562C",
"k  c #AD592E",
"l  c #A5572B",
"z  c #B0592F",
"x  c #A75730",
"c  c #A45C36",
"v  c #AD5B31",
"b  c #AF5E38",
"n  c #B25D31",
"m  c #AD623B",
"M  c #B66233",
"N  c #BA6535",
"B  c #BD6937",
"V  c #BA6638",
"C  c #BD6A39",
"Z  c #C26E3C",
"A  c #8D5940",
"S  c #9D5940",
"D  c #9F674C",
"F  c #AB6441",
"G  c #AA6A46",
"H  c #B36A40",
"J  c #BB7645",
"K  c #A9725A",
"L  c #AE7556",
"P  c #937260",
"I  c #826B75",
"U  c #837077",
"Y  c #8B777E",
"T  c #B87E60",
"R  c #C47945",
"E  c #D27C45",
"W  c #BA8669",
"Q  c #B08774",
"!  c #BA907E",
"~  c #C4804E",
"^  c #DD864B",
"/  c #CA8653",
"(  c #E48D52",
")  c #EA9454",
"_  c #ED9B56",
"`  c #E7A15F",
"'  c #EBA35F",
"]  c #F2A45D",
"[  c #F4AA5F",
"{  c #EBA562",
"}  c #EEA962",
"|  c #E8A76B",
" . c #F5AE64",
".. c #E6AA7E",
"X. c #F5C179",
"o. c #8C7B81",
"O. c #917D85",
"+. c #96858B",
"@. c #98878E",
"#. c #87908F",
"$. c #9F8E95",
"%. c #899090",
"&. c #919495",
"*. c #9E9195",
"=. c #979F9E",
"-. c #999E9F",
";. c #A08F95",
":. c #A09195",
">. c #A4949B",
",. c #A8979E",
"<. c #A99B9F",
"1. c #A59D9D",
"2. c #BCA29C",
"3. c #AA9BA1",
"4. c #AFA3A7",
"5. c #A6A9A9",
"6. c #B2A6A6",
"7. c #B3A5AA",
"8. c #B5AAAB",
"9. c #B9ACAE",
"0. c #B9ADB1",
"q. c #BDB3B4",
"w. c #C19F91",
"e. c #D2A783",
"r. c #C5A295",
"t. c #EABA89",
"y. c #CDADA1",
"u. c #CAB7AF",
"i. c #D4B7A8",
"p. c #C0B7B6",
"a. c #C2B6B9",
"s. c #C5BBBC",
"d. c #C8BFBF",
"f. c #D5BDB5",
"g. c #F3CB90",
"h. c #C8C1BF",
"j. c #CCC4C5",
"k. c #CFC8C8",
"l. c #C6C1C1",
"z. c #D2C7C7",
"x. c #D0C6C8",
"c. c #D3CCCC",
"v. c #D8CFCF",
"b. c #DDCBC3",
"n. c #D6D0CF",
"m. c #D7CFD0",
"M. c #D7D0D0",
"N. c #DCD6D6",
"B. c #DCD5D5",
"V. c #DBD5D5",
"C. c #DDD8D7",
"Z. c #DED8D8",
"A. c #DFDAD9",
"S. c #DED9D9",
"D. c #E4CEC2",
"F. c #E6D3CB",
"G. c #ECDDD3",
"H. c #E0D7D8",
"J. c #E0DADA",
"K. c #E2DDDD",
"L. c #E1DCDC",
"P. c #E5DEDF",
"I. c #E5DEDE",
"U. c #E2DCDC",
"Y. c #E8DDD9",
"T. c #E5E0DF",
"R. c #E7E0E1",
"E. c #E5E0E0",
"W. c #E7E1E1",
"Q. c #EAE3E4",
"!. c #E9E4E3",
"~. c #F7EDE5",
"^. c #F9EDE4",
"/. c #F4E7E2",
/* pixels */
"                                                                                                    ",
"                                                                                                    ",
"                                                                                                    ",
"                                                                                                    ",
"                                                                                                    ",
"                                  h.V.H.z.                    c.N.c.s.8.9.                          ",
"                                6.c.Z.k.8.*.q.s.s.B.Z.K.R.R.R.I.R.R.J.9.6.                          ",
"                                l.q.4.<.1.  k.s.9.q.a.j.z.c.V.N.m.z.q.8.6.                          ",
"                            I.I.N.N.N.B.V.V.n.c.z.q.0.q.q.8.8.9.q.p.q.l.n.M.V.V.c.                  ",
"                            Z.I.I.Z.N.N.N.N.N.N.N.J.c.B.B.B.B.B.B.B.Z.B.B.B.B.N.K.v.                ",
"                            B.N.R.J.9.q.l.N.I.Q.Q.Q.I.K.J.Z.Z.Z.J.K.R.I.R.I.K.R.N.N.                ",
"                _ N q w t K r.u.Y.*.< * , , , 3 4 U o.+.;.>.<.3.3.3.,.:.@.$.j.K.B.B.k.              ",
"                _ n h j h j h e a s %               , * * - = , - - - - - 7 >.I.B.B.k.              ",
"                ) l h l m k k h v j y                                     < +.I.B.B.c.              ",
"                _ h j x m v k h z k e                                     < O.I.B.B.M.              ",
"                } e n k b v k h j x i                                     , Y J.B.B.N.              ",
"                } q M n M n k h % : $                                     , I B.N.N.Z.              ",
"                } q N M Z B M j O X                                       = I k.W.J.B.              ",
"                { q N M C C B k k j                                       - I z.J.B.B.k.            ",
"              g.| q N N N H m n v h                                       * I x.C.B.B.z.            ",
"              X.' q N C F :.3 d k l                                       * I l.C.B.B.z.            ",
"              X.` q C N P 5.&.# k g                                       * I s.Z.B.B.c.            ",
"              X.` q C C 9 -.&.9 x e                                       * I a.Z.B.B.V.            ",
"              X.` q B G &.-.%.2 p y                                       * I 0.J.B.B.V.            ",
"              X.' q N D -.=.#.8 o y                                       * I 8.K.B.Z.z.            ",
"              X.{ q C L 5 5 > + A e                                       * I 4.R.I.I.              ",
"                { q B C / R J ~ N y                                       * I +.0.V.K.B.            ",
"                } q C C N C C C N y                                       * I >.I.B.B.N.l.          ",
"                } q C N n C C N N h                                       * I >.I.B.B.Z.M.          ",
"                } e N N n V C N N h                                       * I :.T.B.B.Z.c.          ",
"                } y M N N M C N N h                                       = I ;.R.B.B.N.c.          ",
"                ' x M N N n C N N j                                       = I $.R.B.B.B.c.          ",
"                _ b n M N v B V M k                                       , I $.R.B.B.B.c.          ",
"                _ N k F G q N n j k y                                   - , I :.R.J.N.V.            ",
"                _ V h c T y M n j n e                                   * < I >.!.Z.N.B.            ",
"                ] C e l c r k k j u p                                   @ < I <.L.B.B.B.c.          ",
"                ] Z f j z h k k y & ;                                   * 1 I 7.J.B.B.B.c.          ",
"                [ R e j k h k k j . 0                                   * 3 I 9.Z.B.B.B.M.          ",
"                [ E e j k h k k j j h                                   * 4 I s.Z.B.B.B.V.          ",
"                 .^ q j k e j k j j h w                                 * 6 o.z.N.B.B.N.B.          ",
"        /.G.G.F.t.( q j k e h h e e y S                                 6 k.V.d.c.B.B.N.N.          ",
"  ~.^.~.G.D.f.2.e.) h e q y s K Q w.y.                                  8.8.q.z.s.J.J.K.M.          ",
"          ^.G.b.i...W ! r.i.                                            *.6.6.6.9.q.a.9.            ",
"                                                                                                    ",
"                                                                                                    ",
"                                                                                                    ",
"                                                                                                    ",
"                                                                                                    ",
"                                                                                                    ",
"                                                                                                    "
};
