/* XPM */
static char *e95eea73d7ff43959e30b842a7cb7d9czG6r5uodWeaD2gOy[] = {
/* columns rows colors chars-per-pixel */
"50 50 192 2 ",
"   c None",
".  c #0F121E",
"X  c #14131B",
"o  c #1F171F",
"O  c #0F1524",
"+  c #131624",
"@  c #191525",
"#  c #141927",
"$  c #1C1925",
"%  c #1B1629",
"&  c #14192A",
"*  c #1C1C2C",
"=  c #0F1B32",
"-  c #151D33",
";  c #1B1D32",
":  c #1C1E3C",
">  c #221C2D",
",  c #201922",
"<  c #231C32",
"1  c #1F212D",
"2  c #1D2234",
"3  c #15213A",
"4  c #1B233A",
"5  c #1D283D",
"6  c #25222F",
"7  c #372D2D",
"8  c #3F352D",
"9  c #232334",
"0  c #282233",
"q  c #22253A",
"w  c #2A253C",
"e  c #232C3D",
"r  c #2C2A3C",
"t  c #2C2831",
"y  c #302B3B",
"u  c #312836",
"i  c #36303F",
"p  c #601B3A",
"a  c #45382A",
"s  c #4A3F33",
"d  c #4D4436",
"f  c #524835",
"g  c #1D2340",
"h  c #1D2A44",
"j  c #1F3246",
"k  c #1F3B51",
"l  c #212542",
"z  c #2C2543",
"x  c #242C43",
"c  c #2C2A43",
"v  c #242C4B",
"b  c #2D2C48",
"n  c #322E44",
"m  c #3A2B44",
"M  c #362948",
"N  c #372A49",
"B  c #2A334D",
"V  c #2A3748",
"C  c #333143",
"Z  c #34344B",
"A  c #3B334C",
"S  c #393B4B",
"D  c #393846",
"F  c #2C2F52",
"G  c #2B3353",
"H  c #2B3A52",
"J  c #27365B",
"K  c #333353",
"L  c #333C53",
"P  c #35355C",
"I  c #3B3B5C",
"U  c #373B58",
"Y  c #393D63",
"T  c #373E61",
"R  c #512C43",
"E  c #443A4D",
"W  c #41344A",
"Q  c #5F3E4C",
"!  c #433554",
"~  c #453A57",
"^  c #453A5C",
"/  c #702E4D",
"(  c #61364B",
")  c #4F3860",
"_  c #3F464B",
"`  c #3F514F",
"'  c #25425D",
"]  c #34415D",
"[  c #3B445B",
"{  c #334656",
"}  c #2F4160",
"|  c #374666",
" . c #2B4670",
".. c #3C4571",
"X. c #3D577A",
"o. c #4F404F",
"O. c #4D574D",
"+. c #595645",
"@. c #434354",
"#. c #474559",
"$. c #56445A",
"%. c #525F53",
"&. c #615240",
"*. c #635C59",
"=. c #546457",
"-. c #47466B",
";. c #574966",
":. c #49566B",
">. c #57556A",
",. c #404472",
"<. c #4A4974",
"1. c #534A7B",
"2. c #524371",
"3. c #405A7D",
"4. c #465378",
"5. c #555F7A",
"6. c #60536D",
"7. c #69586F",
"8. c #745D7A",
"9. c #655478",
"0. c #516863",
"q. c #796075",
"w. c #66627C",
"e. c #88355A",
"r. c #8A3E76",
"t. c #815F6F",
"y. c #896576",
"u. c #2E6486",
"i. c #3F608C",
"p. c #367EAE",
"a. c #4F4F83",
"s. c #475D85",
"d. c #535386",
"f. c #59568A",
"g. c #5C588E",
"h. c #545789",
"j. c #5E5E97",
"k. c #5D5E99",
"l. c #625F98",
"z. c #456187",
"x. c #4C648D",
"c. c #51668D",
"v. c #4A6B95",
"b. c #5E6099",
"n. c #536C95",
"m. c #50749C",
"M. c #6F6381",
"N. c #756382",
"B. c #7C6986",
"V. c #62629D",
"C. c #637497",
"Z. c #4A79A6",
"A. c #5778A6",
"S. c #6565A2",
"D. c #876F88",
"F. c #2F83B0",
"G. c #2F92B7",
"H. c #348BB4",
"J. c #4485AF",
"K. c #5887B3",
"L. c #5A8CB5",
"P. c #7485A8",
"I. c #40A2BF",
"U. c #38A6CA",
"Y. c #3DAAD1",
"T. c #418AC0",
"R. c #4D9BCB",
"E. c #5897C7",
"W. c #5CA9D3",
"Q. c #42B5DC",
"!. c #48BADB",
"~. c #51BDDC",
"^. c #45A3D2",
"/. c #66ACCE",
"(. c #4CB8E5",
"). c #52B9E8",
"_. c #3BCBD8",
"`. c #54CCEB",
"'. c #5AC4E6",
"]. c #4CD1EC",
"[. c #5AD3EB",
"{. c #55D6F0",
"}. c #49C3ED",
"|. c #68D3EF",
" X c #69DCF1",
".X c #8ADEF1",
"XX c #87E1F4",
"oX c #97EAF9",
"OX c #A7EBF9",
"+X c #B1EEF9",
"@X c #C4EEFB",
"#X c #E1F6FB",
/* pixels */
"                                                                                                    ",
"                                                                                                    ",
"                                                                                                    ",
"                                                                                                    ",
"                                                                                                    ",
"                                                  ;.>.                                              ",
"                                                D 6 1 E                                             ",
"                                              0 r Z n w r                                           ",
"                                            9 b Z #.U Z n 9                                         ",
"                                            2 D E $.$.E S *                                         ",
"                                              ;.q.y.t.8.;.                                          ",
"                                            q.N.:.Q Q 5.8.8.                                        ",
"                                    n r   D.M.| y ( R y | N.B.  c C                                 ",
"                                  D Z W ;.w.:.#.m e.p m #.>.w.$.E Z D                               ",
"                                  9 D E 6.[ r @.;.r./ 9._ C [ ;.E C q                               ",
"                                      7.-.0 m U w P.P.C [ y r :.6.                                  ",
"                                      *.` r U v w ] L w G U r 0.*.                                  ",
"                                    o.+.=.S J.H.F.J  .G.T.Z.{ O.+.                                  ",
"                                    a f d O._.U.U.p.F.Y.U._.%.a &.8                                 ",
"                                    7 s s _ U.Q.Q.[.[.!.Y.I._ s d 7                                 ",
"                                      > t ] ^.!. XoXXX[.Q.R.v u 0                                   ",
"                                      > % } (.].oX@X@XoX`.).l @ <                                   ",
"                                      z z | }.{.OX#X#XOX|.(.G z z                                   ",
"                                      z A T ).`.XX+X+X.X`.(.K N c                                   ",
"                            V e     e C ! ^ R.u.!.~.'.H.u.R.~ W S       H '                         ",
"                            V e x h 2 C M ,.E.K.W.'.'.W.Z.E.,.A K   x j V       l v x q :           ",
"                            L e & ; * w ~ 4.v.K.E././.L.Z.A.<.W q ; 4   H       g 3                 ",
"      O # & - - = 3         :.V 2 ] U B s.x.X.X.v.Z.Z.i.3.z.x.L q 5 2 2 { B                         ",
"        & & g 3       # * * w r * 2 U c.3.z.| n.m.K.K.v.n.| s.s.x e 9 w Z c 9 #                     ",
"            - 3     X * * * < > $ > b n.c.| Z Y ..| ..| Y Y v.A.4.9 w c w w * * ;                   ",
"              -       + + $ $ > > < A -.C.I <.d.j.S.S.S.l.g.h.h.,.< < < < < $ ;                     ",
"                        + . + % M ! ) 2.2.1.d.k.b.V.S.b.f.1.1.<.! u 0 < ; # # +                     ",
"                  ;       2 * O * < M ^ 2.1.1.a.d.j.V.j.g.f.1.^ , o $ > < $ 2         F             ",
"                & 4 v P     5 - # * % > c K b I -.-.P v Z n r 9 $ $ $ 9 2       ; q h ; -           ",
"                  & - 3         - ; $ # * $ X $ $ $ # ; > > $ $ $ $ $ 9         $ $ # +             ",
"                                v J ' k ; # X $ $ $ ; z z c $ * *                 *                 ",
"                                  - - ; * * @ $ $ $ q x 4 9 $ *                                     ",
"                                    :   ; ; @ $ $ $ q v q 9 $ #                                     ",
"                                          : * * * * q x 2 *                                         ",
"                                            - $ 9 2 q q 2         -                                 ",
"                                              v h v 2 2 2       & +                                 ",
"                                                  ; 2 2                                             ",
"                                                  - 2                                               ",
"                                                                                                    ",
"                                                                                                    ",
"                                                                                                    ",
"                                                                                                    ",
"                                                                                                    ",
"                                                                                                    ",
"                                                                                                    "
};
