/* XPM */
static char *result[] = {
/* columns rows colors chars-per-pixel */
"50 50 204 2 ",
"   c #192A72",
".  c #14377C",
"X  c #203075",
"o  c #153F84",
"O  c #1F3E91",
"+  c #273A80",
"@  c #223D92",
"#  c #2B3B94",
"$  c #1B4487",
"%  c #1F4796",
"&  c #234595",
"*  c #234897",
"=  c #2A4A93",
"-  c #244798",
";  c #2E4398",
":  c #244B99",
">  c #2B4B9A",
",  c #284094",
"<  c #334D9E",
"1  c #26529D",
"2  c #2B529E",
"3  c #295095",
"4  c #345796",
"5  c #31569D",
"6  c #35589D",
"7  c #2C468B",
"8  c #334FA1",
"9  c #2C55A1",
"0  c #2D5AA5",
"q  c #3552A4",
"w  c #3955A5",
"e  c #345BA3",
"r  c #3C5BA6",
"t  c #3B57AB",
"y  c #355CA9",
"u  c #3D5AA9",
"i  c #2F65AD",
"p  c #3260A4",
"a  c #3D62A7",
"s  c #3362AD",
"d  c #3A65A8",
"f  c #386BAD",
"g  c #3765B1",
"h  c #3C66B2",
"j  c #366AB5",
"k  c #3C6CB4",
"l  c #3E72B5",
"z  c #3D74BA",
"x  c #3673BA",
"c  c #445D95",
"v  c #44629D",
"b  c #4A639D",
"n  c #415EA5",
"m  c #425EAB",
"M  c #4558A9",
"N  c #4264A4",
"B  c #466AA6",
"V  c #4B6DA5",
"C  c #4563AC",
"Z  c #4A65AE",
"A  c #456CAD",
"S  c #4D6AAE",
"D  c #526DA2",
"F  c #4870AC",
"G  c #5C77AE",
"H  c #5472AC",
"J  c #4363B0",
"K  c #4B66B2",
"L  c #446DB5",
"P  c #4D6AB2",
"I  c #446CB9",
"U  c #526DB3",
"Y  c #5967B3",
"T  c #4574B6",
"R  c #4D75B2",
"E  c #4C7AB6",
"W  c #4475BC",
"Q  c #467ABE",
"!  c #4B7FBD",
"~  c #4C74BA",
"^  c #5474B5",
"/  c #5B74B6",
"(  c #5479B5",
")  c #5B7BB4",
"_  c #5A74B9",
"`  c #527BB9",
"'  c #5B7CBA",
"]  c #5474B9",
"[  c #637EB1",
"{  c #647DBD",
"}  c #3D77C1",
"|  c #4C7DC3",
" . c #447AC3",
".. c #5B7FC1",
"X. c #627DC1",
"o. c #5483BE",
"O. c #5C80BD",
"+. c #6781B6",
"@. c #6583BC",
"#. c #6C84BD",
"$. c #6A86B5",
"%. c #728EBC",
"&. c #4581C2",
"*. c #4C82C3",
"=. c #4D86CB",
"-. c #4D89CB",
";. c #5383C3",
":. c #5D83C4",
">. c #5A8CC5",
",. c #5384CB",
"<. c #548ACD",
"1. c #5B8BCA",
"2. c #5588C3",
"3. c #5B94CE",
"4. c #6283C0",
"5. c #6A84C4",
"6. c #6B8BC3",
"7. c #678DCB",
"8. c #758DC5",
"9. c #7687C5",
"0. c #6493CC",
"q. c #6B92CD",
"w. c #6798CE",
"e. c #7492C4",
"r. c #7891C5",
"t. c #7591CA",
"y. c #7C94CC",
"u. c #7B9BCD",
"i. c #7398C2",
"p. c #659CD3",
"a. c #6B9DD3",
"s. c #6195D0",
"d. c #779BD5",
"f. c #79A1CF",
"g. c #68A6D7",
"h. c #7EAADD",
"j. c #77A6D7",
"k. c #7EB2E1",
"l. c #8197CD",
"z. c #839BCE",
"x. c #869CC4",
"c. c #849DD1",
"v. c #8B9ED3",
"b. c #909DD4",
"n. c #91ADCE",
"m. c #8CA4D4",
"M. c #8FAAD5",
"N. c #8EA5D9",
"B. c #8FABD9",
"V. c #83A9D7",
"C. c #93ACD5",
"Z. c #94ACDB",
"A. c #99AFDC",
"S. c #9CA7DF",
"D. c #8DB5DA",
"F. c #9CB3DD",
"G. c #92B4DC",
"H. c #87A3CB",
"J. c #A0ACDF",
"K. c #A4B9DF",
"L. c #8BB7E2",
"P. c #9CB1E1",
"I. c #95BDE4",
"U. c #A1B7E4",
"Y. c #A5BBE1",
"T. c #A9BDE4",
"R. c #ABBCEC",
"E. c #ADC6DE",
"W. c #9ECAEC",
"Q. c #95C4E9",
"!. c #A6C0E3",
"~. c #ADC2E4",
"^. c #AAC4E9",
"/. c #A0CCEA",
"(. c #B1C4E5",
"). c #B4CAE5",
"_. c #B2C6EA",
"`. c #B5CAEB",
"'. c #BACDED",
"]. c #BFC3EF",
"[. c #AED1EB",
"{. c #B3D4ED",
"}. c #BDD1EC",
"|. c #B6D2E6",
" X c #A1CFF1",
".X c #BECCF1",
"XX c #A3D1F1",
"oX c #BCD7F1",
"OX c #C6C7ED",
"+X c #C2D5EE",
"@X c #C3D4F3",
"#X c #C6DAF4",
"$X c #CBDDF5",
"%X c #C9DCF9",
"&X c #CDD1F1",
"*X c #CED2F5",
"=X c #CCE2F5",
"-X c #C9E6F7",
";X c #D3E4F9",
":X c #DCE5FA",
">X c #D5ECFB",
",X c #DAE9FA",
"<X c #E0EDFF",
"1X c None",
/* pixels */
"1X1X1X1X1X1X1X1X1X1X1X1X1X1X1X1X1X1X1X1X1X1X1X1X1X1X1X1X1X1X1X1X1X1X1X1X1X1X1X1X1X1X1X1X1X1X1X1X1X1X",
"1X1X1X1X1X1X1X1X1X1X1X1X1X1X1X1X1X1X1X1X1X1X1X1X1X1X1X1X1X1X1X1X1X1X1X1X1X1X1X1X1X1X1X1X1X1X1X1X1X1X",
"1X1X1X1X1X1X1X1X1X1X1X1X1X1X1X1X1X1X1X1X1X1X1X1X1X1X1X1X1X1X1X1X1X1X1X1X1X1X1X1X1X1X1X1X1X1X1X1X1X1X",
"1X1X1X1X1X1X1X1X1X1X1X1X1X1X1X1X1X1X1X1X1X1X1X1X1X1X1X1X1X1X1X1X1X1X1X1X1X1X1X1X1X1X1X1X1X1X1X1X1X1X",
"1X1X1X1X1X1X1X1X1X1X1X1X1X1X1X1X1X1X1X1X1X1X1X1X1X1X1X1X1X1X1X1X1X1X1X1X1X1X1X1X1X1X1X1X1X1X1X1X1X1X",
"1X1X1X1X1X1X1X1X1X1X1X1X1X1X1X1X1X1X1X1X1X1X1X1X1X1X1X1X1X1X1X1X1X1X1X1X1X1X1X1X1X1X1X1X1X1X1X1X1X1X",
"1X1X1X1X1X1X1X1X1X1X1X1X1X1X1X1X1X1X1X1X1X1X1X1X1XOX].1X1X1X1X1X1X1X1X1X1X1X1X1X1X1X1X1X1X1X1X1X1X1X",
"1X1X1X1X1X1X1X1X1X1X1X1X1X1X1X1X1X1X1X1X1X*X:X,X;X;X$X@X.X_.J.1X1X1X1X1X1X1X1X1X1X1X1X1X1X1X1X1X1X1X",
"1X1X1X1X1X1X1X1X1X1X1X1X1X1X1X1X1X1X1X;X<X,X;X#X}.`.(.~.~.!.Y.F.v.1X1X1X1X1X1X1X1X1X1X1X1X1X1X1X1X1X",
"1X1X1X1X1X1X1X1X1X1X1X1X1X1X1X1X1XOX<X,X=X}.+X+X}.).|.|.!.C.Z.B.B.u.{ 1X1X1X1X1X1X1X1X1X1X1X1X1X1X1X",
"1X1X1X1X1X1X1X1X1X1X1X1X1X1X1X1X*X;X$X}.}.~.x.[ V b b D %.M.M.u.u.u.e.{ 1X1X1X1X1X1X1X1X1X1X1X1X1X1X",
"1X1X1X1X1X1X1X1X1X1X1X1X1X1X1X@X%X'.).!.@.V v v b b b b v c $.c.6.6.6.6.4.1X1X1X1X1X1X1X1X1X1X1X1X1X",
"1X1X1X1X1X1X1X1X1X1X1X1X1X1X.X.X_.R.H.V v B H G [ +.#.$.G D c ) 6.@.) ( j.W 1X1X1X1X1X1X1X1X1X1X1X1X",
"1X1X1X1X1X1X1X1X1X1X1X1X1XR.`.Y.A.8.V B G +.%.n.K.~.T.F.m.%./ b ) ( ( R ^ h.i 1X1X1X1X1X1X1X1X1X1X1X",
"1X1X1X1X1X1X1X1X1X1X1X1XS.T.F.B.#.A F $.8.C.}.$X$X+X`.K.C.r.[ m n ^ A A C f.o.s 1X1X1X1X1X1X1X1X1X1X",
"1X1X1X1X1X1X1X1X1X1X1X1XP.A.z.e.F R @.8.Y.;X,X;X$X+X(.J.m.9./ P C Z Z N a O.j.x 1X1X1X1X1X1X1X1X1X1X",
"1X1X1X1X1X1X1X1X1X1X1Xb.N.l.e.R R @.%.G.;X,X;X=X+X`.K.C.z.4./ S C N C r e v /.&.j 1X1X1X1X1X1X1X1X1X",
"1X1X1X1X1X1X1X1X1X1X1Xb.l.8.o.E O.#.H.#X,X;X=X+X'.T.A.v.8./ U K C r a e 9 4 [.3.l 1X1X1X1X1X1X1X1X1X",
"1X1X1X1X1X1X1X1X1X1XX.l.#.4.` O.@.8.T.$X;X=X@X'.~.F.m.y.{ ^ P K C r a 5 2 3 ~.j.&.1X1X1X1X1X1X1X1X1X",
"1X1X1X1X1X1X1X1X1X1X9.#._ o.;.' { m.'.%X$X@X'.~.F.N.y.5./ S K Z C r e 5 9 > E.L.<.1X1X1X1X1X1X1X1X1X",
"1X1X1X1X1X1X1X1X1X1X{ [ ^ 2.>.' #.F..X#XoX_.Y.F.N.y.5._ U K S m m r e 2 2 3 E.Q.3.1X1X1X1X1X1X1X1X1X",
"1X1X1X1X1X1X1X1X1XY Y Z ` >.../ 8.Y.'.'._.Y.A.m.y.5._ U P K Z m r r q > : 7 |.W.g.E 1X1X1X1X1X1X1X1X",
"1X1X1X1X1X1X1X1X1XZ K C ;.s.^ / l.U.^.T.F.C.v.t.5.] U P Z C m m r 6 2 : * = -XXXg.` 1X1X1X1X1X1X1X1X",
"1X1X1X1X1X1X1X1X1XM M n 2.s.U _ l.P.U.A.N.z.8.X.U P P S C m m w w w > * % 4 >XXXg.1X1X1X1X1X1X1X1X1X",
"1X1X1X1X1X1X1X1X1XM w 6 | >.S _ y.N.N.c.8.#./ U P K Z C m n w w w q - & % G >XW.g.1X1X1X1X1X1X1X1X1X",
"1X1X1X1X1X1X1X1X1X8 < < | ;.m ] 9.y.t.5.{ K Z K Z J m n m t w w 8 1 - - & n.-XQ.a.1X1X1X1X1X1X1X1X1X",
"1X1X1X1X1X1X1X1X1X; ; > ~ | m U ..X._ K m m m m m m u u w w w 8 y - % * 4 -X{.k.>.1X1X1X1X1X1X1X1X1X",
"1X1X1X1X1X1X1X1X1X# - - k  .w K K K Z M J m m m M t t t w w 8 8 y * % 1 $.-XW.g.O.1X1X1X1X1X1X1X1X1X",
"1X1X1X1X1X1X1X1X1X# O @ s z t t t M t u t M t t w w w q q 8 < u : : 1 6 |.{.k.>.1X1X1X1X1X1X1X1X1X1X",
"1X1X1X1X1X1X1X1X1X# O O 1 k y q q w w w w t w q w q 8 q 8 8 u u 2 2 0 i.oXI.3.E 1X1X1X1X1X1X1X1X1X1X",
"1X1X1X1X1X1X1X1X1X1X@ O @ I y q w 8 q 8 q 8 8 q 8 8 8 8 q r ~ 9 0 p F {.I.a.o.1X1X1X1X1X1X1X1X1X1X1X",
"1X1X1X1X1X1X1X1X1X1X; - ; h g q q q q w q 8 q 8 q 8 q q a ;.y i s d D.G.g.o.L 1X1X1X1X1X1X1X1X1X1X1X",
"1X1X1X1X1X1X1X1X1X1X1X> > y ! y q w q q q q q q q y w ] 7.d s g k f.D.0.*.E 1X1X1X1X1X1X1X1X1X1X1X1X",
"1X1X1X1X1X1X1X1X1X1X1Xw q y K 1.d u t t t t y t u K t.7.L k T z 0.V.o.*.o.r 1X1X1X1X1X1X1X1X1X1X1X1X",
"1X1X1X1X1X1X1X1X1X1X1X1Xu u I T q.q.4.P C P ' e.M.G.E W Q  .Q 0.a.T ! ;.A 1X1X1X1X1X1X1X1X1X1X1X1X1X",
"1X1X1X1X1X1X1X1X1X1X1X1X1XJ L | W ` a.h.L.^.{.{.V.o.&.| | | p.o.k | 1.A 1X1X1X1X1X1X1X1X1X1X1X1X1X1X",
"1X1X1X1X1X1X1X1X1X1X1X1X1X1XI | ,.| | | *.2.1.<.,.=.-.-.<.-.k f *.0.^ 1X1X1X1X1X1X1X1X1X1X1X1X1X1X1X",
"1X1X1X1X1X1X1X1X1X1X1X1X1X1X1XK ,.<.-.-.=.=.-.-.=.=.&.Q f p l 1.q.S 1X1X1X1X1X1X1X1X1X1X1X1X1X1X1X1X",
"1X1X1X1X1X1X1X1X1X1X1X1X1X1X1X1X1XJ j k  .} z j i 0 1 1 0 E 1.:.1X1X1X1X1X1X1X1X1X1X1X1X1X1X1X1X1X1X",
"1X1X1X1X1X1X1X1X1X1X1X1X1X1X1X1X1X1X1X  . o o $ $ $ 3 5 A V 1X1X1X1X1X1X1X1X1X1X1X1X1X1X1X1X1X1X1X1X",
"1X1X1X1X1X1X1X1X1X1X1X1X1X1X1X1X1X1X1X1X1X1X    X + 7 1X1X1X1X1X1X1X1X1X1X1X1X1X1X1X1X1X1X1X1X1X1X1X",
"1X1X1X1X1X1X1X1X1X1X1X1X1X1X1X1X1X1X1X1X1X1X1X1X1X1X1X1X1X1X1X1X1X1X1X1X1X1X1X1X1X1X1X1X1X1X1X1X1X1X",
"1X1X1X1X1X1X1X1X1X1X1X1X1X1X1X1X1X1X1X1X1X1X1X1X1X1X1X1X1X1X1X1X1X1X1X1X1X1X1X1X1X1X1X1X1X1X1X1X1X1X",
"1X1X1X1X1X1X1X1X1X1X1X1X1X1X1X1X1X1X1X1X1X1X1X1X1X1X1X1X1X1X1X1X1X1X1X1X1X1X1X1X1X1X1X1X1X1X1X1X1X1X",
"1X1X1X1X1X1X1X1X1X1X1X1X1X1X1X1X1X1X1X1X1X1X1X1X1X1X1X1X1X1X1X1X1X1X1X1X1X1X1X1X1X1X1X1X1X1X1X1X1X1X",
"1X1X1X1X1X1X1X1X1X1X1X1X1X1X1X1X1X1X1X1X1X1X1X1X1X1X1X1X1X1X1X1X1X1X1X1X1X1X1X1X1X1X1X1X1X1X1X1X1X1X",
"1X1X1X1X1X1X1X1X1X1X1X1X1X1X1X1X1X1X1X1X1X1X1X1X1X1X1X1X1X1X1X1X1X1X1X1X1X1X1X1X1X1X1X1X1X1X1X1X1X1X",
"1X1X1X1X1X1X1X1X1X1X1X1X1X1X1X1X1X1X1X1X1X1X1X1X1X1X1X1X1X1X1X1X1X1X1X1X1X1X1X1X1X1X1X1X1X1X1X1X1X1X",
"1X1X1X1X1X1X1X1X1X1X1X1X1X1X1X1X1X1X1X1X1X1X1X1X1X1X1X1X1X1X1X1X1X1X1X1X1X1X1X1X1X1X1X1X1X1X1X1X1X1X",
"1X1X1X1X1X1X1X1X1X1X1X1X1X1X1X1X1X1X1X1X1X1X1X1X1X1X1X1X1X1X1X1X1X1X1X1X1X1X1X1X1X1X1X1X1X1X1X1X1X1X"
};
