/* XPM */
static char *result[] = {
/* columns rows colors chars-per-pixel */
"50 50 213 2 ",
"   c #5B1E1C",
".  c #621F1F",
"X  c #642319",
"o  c #742A1C",
"O  c #77341F",
"+  c #5D1F2A",
"@  c #652225",
"#  c #783728",
"$  c #86320D",
"%  c #863514",
"&  c #953A12",
"*  c #993E12",
"=  c #933815",
"-  c #9E470F",
";  c #95421C",
":  c #AC540F",
">  c #A44713",
",  c #A74B19",
"<  c #B44D18",
"1  c #AC561B",
"2  c #AE591F",
"3  c #B55C17",
"4  c #B5541A",
"5  c #B3591C",
"6  c #BB5C1C",
"7  c #BB5418",
"8  c #BC641B",
"9  c #B76316",
"0  c #89432D",
"q  c #864837",
"w  c #9B4A3C",
"e  c #94483E",
"r  c #9C5532",
"t  c #9B5A3A",
"y  c #AC4824",
"u  c #B34F21",
"i  c #AC542D",
"p  c #A55728",
"a  c #BF5E23",
"s  c #B75B2A",
"d  c #BC5A2A",
"f  c #BC532E",
"g  c #A75839",
"h  c #B15830",
"j  c #BE6B22",
"k  c #B76827",
"l  c #BE752E",
"z  c #B46430",
"x  c #B46A3B",
"c  c #B67132",
"v  c #AA6338",
"b  c #C45D1B",
"n  c #C36B1D",
"m  c #C7661E",
"M  c #D3691D",
"N  c #C6731D",
"B  c #C25D29",
"V  c #C45A24",
"C  c #C36324",
"Z  c #CD6324",
"A  c #C36B23",
"S  c #CC6D24",
"D  c #C7642C",
"F  c #CD662A",
"G  c #C36A2A",
"H  c #CB6A29",
"J  c #D16523",
"K  c #D46B22",
"L  c #DA6F25",
"P  c #D36D2C",
"I  c #D16629",
"U  c #CC7323",
"Y  c #CC7A25",
"T  c #C3742A",
"R  c #CC712D",
"E  c #CE7C2C",
"W  c #C77627",
"Q  c #D67224",
"!  c #D97226",
"~  c #D37B26",
"^  c #DB7927",
"/  c #D6732D",
"(  c #D9762C",
")  c #D67A2A",
"_  c #D97B2C",
"`  c #C46531",
"'  c #CD6B33",
"]  c #C66D35",
"[  c #D06D3A",
"{  c #CB7633",
"}  c #C97839",
"|  c #D37335",
" . c #D37835",
".. c #DC7D31",
"X. c #DB7C3C",
"o. c #D5753C",
"O. c #8B4D42",
"+. c #874E42",
"@. c #A45F46",
"#. c #B1664D",
"$. c #B16D51",
"%. c #BE7554",
"&. c #C46740",
"*. c #D27D40",
"=. c #C27B50",
"-. c #CF8026",
";. c #D6812A",
":. c #D9822B",
">. c #DB8B2D",
",. c #D58527",
"<. c #CD8233",
"1. c #CE873F",
"2. c #D38631",
"3. c #DD8433",
"4. c #DC8A34",
"5. c #D4813B",
"6. c #DC863A",
"7. c #DC8C3B",
"8. c #D38A39",
"9. c #DC9231",
"0. c #DF923C",
"q. c #D5963E",
"w. c #E08636",
"e. c #E18D36",
"r. c #E28C3B",
"t. c #E28439",
"y. c #E19435",
"u. c #E29834",
"i. c #E2943B",
"p. c #E69D3C",
"a. c #E99E3E",
"s. c #E6A23E",
"d. c #E8A33D",
"f. c #CD8C4D",
"g. c #DC8D42",
"h. c #D58A49",
"j. c #DC9444",
"k. c #DD9942",
"l. c #DE964C",
"z. c #CD8550",
"x. c #CF9558",
"c. c #DA9956",
"v. c #E58E46",
"b. c #E49443",
"n. c #E19B42",
"m. c #EA9E42",
"M. c #E29D49",
"N. c #EA984C",
"B. c #EA9E52",
"V. c #E09E52",
"C. c #EAA543",
"Z. c #ECAC45",
"A. c #E4A34C",
"S. c #ECA64C",
"D. c #EEAC48",
"F. c #E4A544",
"G. c #F0AC4A",
"H. c #EEB247",
"J. c #EFB34A",
"K. c #F1B34C",
"L. c #F3B94D",
"P. c #E6A651",
"I. c #EBA452",
"U. c #E7AE54",
"Y. c #EAAB54",
"T. c #E6AC59",
"R. c #ECAC5B",
"E. c #EDB25B",
"W. c #EAB95D",
"Q. c #E7B157",
"!. c #F4B551",
"~. c #F5BC52",
"^. c #F3B75F",
"/. c #CB9466",
"(. c #DA9961",
"). c #DBAB6F",
"_. c #CDA776",
"`. c #D9A873",
"'. c #E9B361",
"]. c #ECBA64",
"[. c #EBBC6D",
"{. c #F4BB64",
"}. c #F6BD6D",
"|. c #EBBF7A",
" X c #EDC66F",
".X c #F0C76E",
"XX c #ECC373",
"oX c #F1C777",
"OX c #F3CB77",
"+X c #F2CD7A",
"@X c #EFD07B",
"#X c #F3D47E",
"$X c #CAA689",
"%X c #D8B283",
"&X c #E3BE93",
"*X c #DFC192",
"=X c #F1CD81",
"-X c #F6D382",
";X c #F4D982",
":X c #FCDD8D",
">X c #F7D989",
",X c #F3D492",
"<X c #F9DF95",
"1X c #E5C791",
"2X c #FBE18B",
"3X c #FAE59A",
"4X c #FCE396",
"5X c #D8C4A4",
"6X c #E4CDA4",
"7X c #E7D0A4",
"8X c #F4DEA5",
"9X c #F9E7A7",
"0X c None",
/* pixels */
"0X0X0X0X0X0X0X0X0X0X0X0X0X0X0X0X0X0X0X0X0X0X0X0X0X0X0X0X0X0X0X0X0X0X0X0X0X0X0X0X0X0X0X0X0X0X0X0X0X0X",
"0X0X0X0X0X0X0X0X0X0X0X0X0X0X0X0X0X0X0X0X0X0X0X0X0X0X0X0X0X0X0X0X0X0X0X0X0X0X0X0X0X0X0X0X0X0X0X0X0X0X",
"0X0X0X0X0X0X0X0X0X0X0X0X0X0X0X0X0X0X0X0X0X0X0X0X0X0X0X0X0X0X0X0X0X0X0X0X0X0X0X0X0X0X0X0X0X0X0X0X0X0X",
"0X0X0X0X0X0X0X0X0X0X0X0X0X0X0X0X0X0X0X0X0X0X0X0X0X0X0X0X0X0X0X0X0X0X0X0X0X0X0X0X0X0X0X0X0X0X0X0X0X0X",
"0X0X0X0X0X0X0X0X0X0X0X0X0X0X0X0X0X0X0X0X0X0X0X0X0X0X0X0X0X0X0X0X0X0X0X0X0X0X0X0X0X0X0X0X0X0X0X0X0X0X",
"0X0X0X0X0X0X0X0X0X0X0X0X0X0X0X0X0X0X0X0X0X0X0X0X0X0X0X0X0X0X0X0X0X0X0X0X0X0X0X0X0X0X0X0X0X0X0X0X0X0X",
"0X0X0X0X0X0X0X0X0X0X0X0X0X0X0X0X0X0X0X0X0X0X0X0X0X0X0X0X0X0X0X0X0X0X0X0X0X0X0X0X0X0X0X0X0X0X0X0X0X0X",
"0X0X0X0X0X0X0X0X0X0X0X0X0X0X0X0X0X0X0X0X0X5X7X8X3X<X<X,X,X&X$X0X0X0X0X0X0X0X0X0X0X0X0X0X0X0X0X0X0X0X",
"0X0X0X0X0X0X0X0X0X0X0X0X0X0X0X0X0X0X0X5X9X3X4X:X;X-X#X+X+X@XXXXX$X0X0X0X0X0X0X0X0X0X0X0X0X0X0X0X0X0X",
"0X0X0X0X0X0X0X0X0X0X0X0X0X0X0X0X0X5X9X3X2X#X#X#X=X+XoX X].].].[.[.`.0X0X0X0X0X0X0X0X0X0X0X0X0X0X0X0X",
"0X0X0X0X0X0X0X0X0X0X0X0X0X0X0X0X6X3X2X;X#XXXx.#.i p y z f.'.Q.T.T.Q.(.@.0X0X0X0X0X0X0X0X0X0X0X0X0X0X",
"0X0X0X0X0X0X0X0X0X0X0X0X0X0X0X7X:X;X=X[.] i y , > > > > - - 1.P.A.A.T.l.@.0X0X0X0X0X0X0X0X0X0X0X0X0X",
"0X0X0X0X0X0X0X0X0X0X0X0X0X0X1X>X#XoXc.s f 1 , 3 8 8 N n 8 6 : <.A.k.A.n.h.g 0X0X0X0X0X0X0X0X0X0X0X0X",
"0X0X0X0X0X0X0X0X0X0X0X0X0X*X-XOX[.h.d d 5 9 N -.9.u.u.9.>.~ n 9 7.n.n.n.M.{ w 0X0X0X0X0X0X0X0X0X0X0X",
"0X0X0X0X0X0X0X0X0X0X0X0X$X+X.X].h.` B k N ,.d.H.J.H.H.d.u.>.;.U n b.0.i.b.g.s e 0X0X0X0X0X0X0X0X0X0X",
"0X0X0X0X0X0X0X0X0X0X0X0X1X X].j.D D C N 9.L.L.L.L.J.d.d.u.>.-.~ N 2.b.j.r.b.{ i 0X0X0X0X0X0X0X0X0X0X",
"0X0X0X0X0X0X0X0X0X0X0X%X|.W.V.] ' m N 9.L.~.~.L.K.H.d.d.y.>.:.,.~ ~ i.0.4.0.7.s w 0X0X0X0X0X0X0X0X0X",
"0X0X0X0X0X0X0X0X0X0X0X|.W.T.} [ G Y >.H.~.~.L.K.H.C.d.u.>.>.,.:._ ~ 4.7.4.4.I.G r 0X0X0X0X0X0X0X0X0X",
"0X0X0X0X0X0X0X0X0X0X_.'.Y.b.| | W ,.F.K.~.!.K.H.Z.s.9.y.>.:.:.:.:.~ 4.4.4.4.R.{ g 0X0X0X0X0X0X0X0X0X",
"0X0X0X0X0X0X0X0X0X0X).U.P.5.o.H Y u.G.K.!.K.Z.C.d.0.9.9.,.:.:.:._ ~ 4.4.4.4.R.8.z 0X0X0X0X0X0X0X0X0X",
"0X0X0X0X0X0X0X0X0X0XT.P.n. .o.U ;.a.G.G.K.G.C.a.u.9.>.:.:.,.:.:._ ) 4.6.4.2.Q.g.G 0X0X0X0X0X0X0X0X0X",
"0X0X0X0X0X0X0X0X0X/.P.M.g.X.R U 4.m.S.G.D.C.a.u.e.:.,.,.:.^ ^ ^ ) ) 4.e.4.:.{.j.T O.0X0X0X0X0X0X0X0X",
"0X0X0X0X0X0X0X0X0X/.M.n.X.X.U ~ y.m.S.C.a.a.y.e.>.:.;.:.:.;.:._ ^ ) w.6.3.4.{.j.T O.0X0X0X0X0X0X0X0X",
"0X0X0X0X0X0X0X0X0Xc.n.j.o.X.S ) e.m.C.m.i.e.w.:.:.^ ) _ _ _ ) ^ ~ ^ 4.3.3.4.{.k.T O.0X0X0X0X0X0X0X0X",
"0X0X0X0X0X0X0X0X0Xc.i.j.' | S 3.y.b.b.i.e.4.:._ ) _ ( _ ( ) ( ( ) 3.3.3.:.b.W.k.T 0X0X0X0X0X0X0X0X0X",
"0X0X0X0X0X0X0X0X0Xl.0.7.' P S _ r.r.e.4.:._ ) ( ) ) ) ) ) ) ) ..! w.3.:.;.Y.U.k.c 0X0X0X0X0X0X0X0X0X",
"0X0X0X0X0X0X0X0X0Xl.7.7.k I P ....w.) ) ^ ( ( ( ) ) ) ( ( ( / / ( 6.3._ ) {.P.2.v 0X0X0X0X0X0X0X0X0X",
"0X0X0X0X0X0X0X0X0Xh.7.7.b B P ( _ ! ( ( ..( ../ ( ) ( ( ( ( ( ( w.w.3...b.W.k.W t 0X0X0X0X0X0X0X0X0X",
"0X0X0X0X0X0X0X0X0Xz.4.7.V B I / ( ! ( ( ( ( / / / ( / / / / / ..w...^ ( Y.A.8.k 0X0X0X0X0X0X0X0X0X0X",
"0X0X0X0X0X0X0X0X0X=.6.4.| u F P ( P / ( / ( / ( / / / / / | ( t.....^ r.Q.q.l v 0X0X0X0X0X0X0X0X0X0X",
"0X0X0X0X0X0X0X0X0X0X6.>.6.< V P / / | P / P / / / / / / / / r.3...( ) I.k.E k q 0X0X0X0X0X0X0X0X0X0X",
"0X0X0X0X0X0X0X0X0X0Xz.3.3.| < I P P / / P | P / P / P P / v.3..._ Q b.j.1.j r 0X0X0X0X0X0X0X0X0X0X0X",
"0X0X0X0X0X0X0X0X0X0X%.6.3.t.C 7 F P I P P P P P P P P / v.6._ ^ Q ..b.E A p 0X0X0X0X0X0X0X0X0X0X0X0X",
"0X0X0X0X0X0X0X0X0X0X0X*._ _ 7.D a F F F F F F F F F 6.b.3...! Q ^ 7.W j s q 0X0X0X0X0X0X0X0X0X0X0X0X",
"0X0X0X0X0X0X0X0X0X0X0X$.X.^ ..t.6. .S C C V G R g.I.7._ ^ ! K Q ..m 8 p 0 0X0X0X0X0X0X0X0X0X0X0X0X0X",
"0X0X0X0X0X0X0X0X0X0X0X0X#. .( ( ..r.N.N.B.R.}.}.I.:.^ Q Q M / U 9 3 1 0 0X0X0X0X0X0X0X0X0X0X0X0X0X0X",
"0X0X0X0X0X0X0X0X0X0X0X0X0X#.| ! ! ^ ( _ _ 6.e.w.( ( L M J P m 5 2 , # 0X0X0X0X0X0X0X0X0X0X0X0X0X0X0X",
"0X0X0X0X0X0X0X0X0X0X0X0X0X0X0X&.Q L ! L Q L L ! L M M m b 4 1 , ; # 0X0X0X0X0X0X0X0X0X0X0X0X0X0X0X0X",
"0X0X0X0X0X0X0X0X0X0X0X0X0X0X0X0Xw h V J J M J V b 7 < < , ; & # + 0X0X0X0X0X0X0X0X0X0X0X0X0X0X0X0X0X",
"0X0X0X0X0X0X0X0X0X0X0X0X0X0X0X0X0X0X@ o $ = & * * * & $ $ o @ 0X0X0X0X0X0X0X0X0X0X0X0X0X0X0X0X0X0X0X",
"0X0X0X0X0X0X0X0X0X0X0X0X0X0X0X0X0X0X0X0X0X    X X X X + 0X0X0X0X0X0X0X0X0X0X0X0X0X0X0X0X0X0X0X0X0X0X",
"0X0X0X0X0X0X0X0X0X0X0X0X0X0X0X0X0X0X0X0X0X0X0X0X0X0X0X0X0X0X0X0X0X0X0X0X0X0X0X0X0X0X0X0X0X0X0X0X0X0X",
"0X0X0X0X0X0X0X0X0X0X0X0X0X0X0X0X0X0X0X0X0X0X0X0X0X0X0X0X0X0X0X0X0X0X0X0X0X0X0X0X0X0X0X0X0X0X0X0X0X0X",
"0X0X0X0X0X0X0X0X0X0X0X0X0X0X0X0X0X0X0X0X0X0X0X0X0X0X0X0X0X0X0X0X0X0X0X0X0X0X0X0X0X0X0X0X0X0X0X0X0X0X",
"0X0X0X0X0X0X0X0X0X0X0X0X0X0X0X0X0X0X0X0X0X0X0X0X0X0X0X0X0X0X0X0X0X0X0X0X0X0X0X0X0X0X0X0X0X0X0X0X0X0X",
"0X0X0X0X0X0X0X0X0X0X0X0X0X0X0X0X0X0X0X0X0X0X0X0X0X0X0X0X0X0X0X0X0X0X0X0X0X0X0X0X0X0X0X0X0X0X0X0X0X0X",
"0X0X0X0X0X0X0X0X0X0X0X0X0X0X0X0X0X0X0X0X0X0X0X0X0X0X0X0X0X0X0X0X0X0X0X0X0X0X0X0X0X0X0X0X0X0X0X0X0X0X",
"0X0X0X0X0X0X0X0X0X0X0X0X0X0X0X0X0X0X0X0X0X0X0X0X0X0X0X0X0X0X0X0X0X0X0X0X0X0X0X0X0X0X0X0X0X0X0X0X0X0X",
"0X0X0X0X0X0X0X0X0X0X0X0X0X0X0X0X0X0X0X0X0X0X0X0X0X0X0X0X0X0X0X0X0X0X0X0X0X0X0X0X0X0X0X0X0X0X0X0X0X0X",
"0X0X0X0X0X0X0X0X0X0X0X0X0X0X0X0X0X0X0X0X0X0X0X0X0X0X0X0X0X0X0X0X0X0X0X0X0X0X0X0X0X0X0X0X0X0X0X0X0X0X"
};
