/* XPM */
static char *result[] = {
/* columns rows colors chars-per-pixel */
"50 50 216 2 ",
"   c gray1",
".  c #040404",
"X  c #050607",
"o  c #060606",
"O  c gray3",
"+  c #090909",
"@  c gray4",
"#  c #0B0B0B",
"$  c #0C0C0C",
"%  c gray5",
"&  c #0E0E0E",
"*  c gray6",
"=  c #12120E",
"-  c #0B1712",
";  c #101010",
":  c #111110",
">  c #111111",
",  c gray7",
"<  c #131313",
"1  c gray8",
"2  c #151515",
"3  c #151516",
"4  c #151417",
"5  c #161616",
"6  c gray9",
"7  c #181818",
"8  c #191919",
"9  c gray10",
"0  c #1B1B1B",
"q  c #1E1A1B",
"w  c gray11",
"e  c #1D1D1D",
"r  c #1E1E1E",
"t  c #1E1E1F",
"y  c gray12",
"u  c #19201D",
"i  c #1B201F",
"p  c #21231D",
"a  c #2A2518",
"s  c #202D1F",
"d  c #162021",
"f  c #1C2320",
"g  c #123127",
"h  c #143B32",
"j  c #202020",
"k  c gray13",
"l  c #232022",
"z  c #222222",
"x  c #232323",
"c  c gray14",
"v  c #252525",
"b  c #242726",
"n  c gray15",
"m  c #272727",
"M  c #282828",
"N  c gray16",
"B  c #2A2A2A",
"V  c #2A2B2A",
"C  c gray17",
"Z  c #292E2B",
"A  c #2C2C2C",
"S  c #2D2D2D",
"D  c #2D2D2F",
"F  c #3B392A",
"G  c #2F2F31",
"H  c gray19",
"J  c #323232",
"K  c gray20",
"L  c #353535",
"P  c gray21",
"I  c #383835",
"U  c #303C3B",
"Y  c #383939",
"T  c gray23",
"R  c #3A3C39",
"E  c #3C3C3C",
"W  c #3F3F3F",
"Q  c #413C2C",
"!  c #074331",
"~  c #064133",
"^  c #094636",
"/  c #144031",
"(  c #1F4B3C",
")  c #184F3F",
"_  c #12513C",
"`  c #19583F",
"'  c #33413E",
"]  c #474225",
"[  c #4E4534",
"{  c #524E31",
"}  c #504C3C",
"|  c #4E5F3D",
" . c #505039",
".. c #565138",
"X. c #5B573A",
"o. c #70673E",
"O. c #797238",
"+. c #125546",
"@. c #165646",
"#. c #195345",
"$. c #1F5345",
"%. c #1F5B4B",
"&. c #1D5C4A",
"*. c #244F46",
"=. c #2F4A42",
"-. c #374743",
";. c #3F4442",
":. c #225547",
">. c #295749",
",. c #215D4B",
"<. c #275C4E",
"1. c #345647",
"2. c #3C5642",
"3. c #3B5651",
"4. c #116348",
"5. c #086F53",
"6. c #147A5D",
"7. c #376157",
"8. c #3C6A5F",
"9. c #2E715F",
"0. c #2A7C66",
"q. c #2C7D68",
"w. c #3D7969",
"e. c #3E796A",
"r. c #3F7A6D",
"t. c gray25",
"y. c #414141",
"u. c #424241",
"i. c #404243",
"p. c gray26",
"a. c #434344",
"s. c #444444",
"d. c gray27",
"f. c #464646",
"g. c #484848",
"h. c #494949",
"j. c #4C4C4C",
"k. c #4E4E4E",
"l. c gray31",
"z. c #4B5150",
"x. c #425E57",
"c. c #4E5D59",
"v. c #515151",
"b. c gray32",
"n. c #555555",
"m. c #5B5B5B",
"M. c #5C5B5B",
"N. c gray36",
"B. c #5D5D5D",
"V. c gray37",
"C. c #625C42",
"Z. c #5B6040",
"A. c #6B6648",
"S. c #6F6948",
"D. c #596C66",
"F. c #51706A",
"G. c #57766F",
"H. c #606060",
"J. c gray39",
"K. c #646464",
"L. c #676767",
"P. c #6A6A6A",
"I. c gray42",
"U. c #6F6F6F",
"Y. c gray44",
"T. c #717171",
"R. c gray45",
"E. c #747473",
"W. c gray46",
"Q. c #767676",
"!. c #777777",
"~. c gray47",
"^. c gray49",
"/. c #827437",
"(. c #1A8968",
"). c #199573",
"_. c #2C896D",
"`. c #33866E",
"'. c #358672",
"]. c #3F8771",
"[. c #2FA17E",
"{. c #4A8273",
"}. c #3B9C83",
"|. c #3F9C89",
" X c #20B48E",
".X c #578D80",
"XX c #5C9888",
"oX c #7E8281",
"OX c #61968C",
"+X c #4FAE94",
"@X c #58A594",
"#X c #56A993",
"$X c #5EA994",
"%X c #47BB9D",
"&X c #5DB39B",
"*X c #62A393",
"=X c #64AC99",
"-X c #74A9A0",
";X c #6BBBA5",
":X c #12C996",
">X c #0FD89F",
",X c #15DDA6",
"<X c #2FCFA4",
"1X c #19E9AF",
"2X c #1BF1B6",
"3X c #31F4BE",
"4X c #47D9B1",
"5X c #53D2B5",
"6X c #69D7B7",
"7X c #3DF2C2",
"8X c #74DEC5",
"9X c #43F1C6",
"0X c #57F3CB",
"qX c #53F5CB",
"wX c #83F6DC",
"eX c None",
/* pixels */
"eXeXeXeXeXeXeXeXeXeXeXeXeXeXeXeXeXeXeXeXeXeXeXeXeXeXeXeXeXeXeXeXeXeXeXeXeXeXeXeXeXeXeXeXeXeXeXeXeXeX",
"eXeXeXeXeXeXeXeXeXeXeXeXeXeXeXeXeXeXeXeXeXeXeXeXeXeXeXeXeXeXeXeXeXeXeXeXeXeXeXeXeXeXeXeXeXeXeXeXeXeX",
"eXeXeXeXeXeXeXeXeXeXeXeXeXeXeXeXeXeXeXeXeXeXeXeXeXeXeXeXeXeXeXeXeXeXeXeXeXeXeXeXeXeXeXeXeXeXeXeXeXeX",
"eXeXeXeXeXeXeXeXeXeXeXeXeXeXeXeXeXeXeXeXeXeXeXeXeXeXeXeXeXeXeXeXeXeXeXeXeXeXeXeXeXeXeXeXeXeXeXeXeXeX",
"eXeXeXeXeXeXeXeXeXeXeXeXeXeXeXeXeXeXeXeXeXeXeXeXeXeXeXeXeXeXeXeXeXeXeXeXeXeXeXeXeXeXeXeXeXeXeXeXeXeX",
"eXeXeXeXeXeXeXeXeXeXeXeXeXeXeXeXeXeXeXeXeXeXeXeXeXeXeXeXeXeXeXeXeXeXeXeXeXeXeXeXeXeXeXeXeXeXeXeXeXeX",
"eXeXeXeXeXeXeXeXeXeXeXeXeXeXeXeXeXeXeXeXeXeXeXeXeXeXeXeXeXeXeXeXeXeXeXeXeXeXeXeXeXeXeXeXeXeXeXeXeXeX",
"eXeXeXeXeXeXeXeXeXeXeXeXeXeXeXeXeXeXeXeXeXeXeXeXeXeXeXeXeXeXeXeXeXeXeXeXeXeXeXeXeXeXeXeXeXeXeXeXeXeX",
"eXeXeXeXeXeXeXeXeXeXeXeXeXeXeXeXeXeXeXeXeXeXeXeXeXeXeXeXeXeXeXeXeXeXeXeXeXeXeXeXeXeXeXeXeXeXeXeXeXeX",
"eXeXeXeXeXeXeXeXeXeXeXeXeXeXeXeXeXeXeXeXeXeXeXeXeXeXeXeXeXeXeXeXeXeXeXeXeXeXeXeXeXeXeXeXeXeXeXeXeXeX",
"eXeXeXeXeXeXeXeXeXeXeXeXeXeXeXeXeXeXeXeXeXeXeXeXeXeXeXeXeXeXeXeXeXeXeXeXeXeXeXeXeXeXeXeXeXeXeXeXeXeX",
"eXeXeXeXeXeXeXeXeXeXeXeXeXeXeXeXeXeXa A.S.[ = eXeXeXF.3.7.XXeXeXeXeXeXeXeXeXeXeXeXeXeXeXeXeXeXeXeXeX",
"eXeXeXeXeXeXeXeXeXeXeXeXeXeXeXeXeXeX] O./.o.s h eX8.-XeXG.<.eXeXeXeXeXeXeXeXeXeXeXeXeXeXeXeXeXeXeXeX",
"eXeXeXeXeXeXeXeXeXeXeXeXeXeXeXeXeXeXQ C.X.Z.1.#.w.eX7X).0.=XeX&XeXeXeXeXeXeXeXeXeXeXeXeXeXeXeXeXeXeX",
"eXeXeXeXeXeXeXeXeXeXeXeXeXeXeXeXeXeXF ..{ | ` +.8X3X>X^ #X6X&.{.$XeXeXeXeXeXeXeXeXeXeXeXeXeXeXeXeXeX",
"eXeXeXeXeXeXeXeXeXeXeXeXeXeXeXeXeXeXp }  .2.4.|.9X,X(.f *.[._.eX9.eXeXeXeXeXeXeXeXeXeXeXeXeXeXeXeXeX",
"eXeXeXeXeXeXeXeXeXeXeXeXeXeXeXeXD t : I R ( ! 5X X%.D.' ~ 5.4XeXe.eXeXeXeXeXeXeXeXeXeXeXeXeXeXeXeXeX",
"eXeXeXeXeXeXeXeXeXeXeXeXeXeXeXE.E D G 4 d / _ +X:.-.z.`.:X2XwXr.eXeXeXeXeXeXeXeXeXeXeXeXeXeXeXeXeXeX",
"eXeXeXeXeXeXeXeXeXeXeXeXeXeXv.N.p.N a.l q =.>.g - Y x.6.1XqXOX.XeXeXeXeXeXeXeXeXeXeXeXeXeXeXeXeXeXeX",
"eXeXeXeXeXeXeXeXeXeXeXeXeXeX7 3 9 k u.V Z i.U i b X $.<X0X@X*XeXeXeXeXeXeXeXeXeXeXeXeXeXeXeXeXeXeXeX",
"eXeXeXeXeXeXeXeXeXeXeXeXeXeX0 M J.n L v S L x K u ) }.%X'.].eXeXeXeXeXeXeXeXeXeXeXeXeXeXeXeXeXeXeXeX",
"eXeXeXeXeXeXeXeXeXeXeXeXeXeXn Q.U.y.h.C N J j.P ;.,.@.q.;XeXeXeXeXeXeXeXeXeXeXeXeXeXeXeXeXeXeXeXeXeX",
"eXeXeXeXeXeXeXeXeXeXeXeXeXeXg.!.x m y 7 r J.p.!.oXc.eXeXeXeXeXeXeXeXeXeXeXeXeXeXeXeXeXeXeXeXeXeXeXeX",
"eXeXeXeXeXeXeXeXeXeXeXeXeXeXeX> K v M C w y k I.^.M.eXeXeXeXeXeXeXeXeXeXeXeXeXeXeXeXeXeXeXeXeXeXeXeX",
"eXeXeXeXeXeXeXeXeXeXeXeXeXeXeXeXx x N c n y r S J.eXeXeXeXeXeXeXeXeXeXeXeXeXeXeXeXeXeXeXeXeXeXeXeXeX",
"eXeXeXeXeXeXeXeXeXeXeXeXeXeXeXeXeX% T , 7 6 < + eXeXeXeXeXeXeXeXeXeXeXeXeXeXeXeXeXeXeXeXeXeXeXeXeXeX",
"eXeXeXeXeXeXeXeXeXeXeXeXeXeXeXeX0 s.S e 9 2 5 $ eXeXeXeXeXeXeXeXeXeXeXeXeXeXeXeXeXeXeXeXeXeXeXeXeXeX",
"eXeXeXeXeXeXeXeXeXeXeXeXeXeXeXeXA ^.k x c > e 0 eXeXeXeXeXeXeXeXeXeXeXeXeXeXeXeXeXeXeXeXeXeXeXeXeXeX",
"eXeXeXeXeXeXeXeXeXeXeXeXeXeXeXeX& 7 z r % > 7 9 eXeXeXeXeXeXeXeXeXeXeXeXeXeXeXeXeXeXeXeXeXeXeXeXeXeX",
"eXeXeXeXeXeXeXeXeXeXeXeXeXeXeXeX& x x w $ x z y O eXeXeXeXeXeXeXeXeXeXeXeXeXeXeXeXeXeXeXeXeXeXeXeXeX",
"eXeXeXeXeXeXeXeXeXeXeXeXeXeXeXeX; x x 1 . k x j O eXeXeXeXeXeXeXeXeXeXeXeXeXeXeXeXeXeXeXeXeXeXeXeXeX",
"eXeXeXeXeXeXeXeXeXeXeXeXeXeXeXeX& x x >   j x 0 O eXeXeXeXeXeXeXeXeXeXeXeXeXeXeXeXeXeXeXeXeXeXeXeXeX",
"eXeXeXeXeXeXeXeXeXeXeXeXeXeXeXeX@ x y $ o 7 k 9 eXeXeXeXeXeXeXeXeXeXeXeXeXeXeXeXeXeXeXeXeXeXeXeXeXeX",
"eXeXeXeXeXeXeXeXeXeXeXeXeXeXeXeX5 y e @ o , 8 5 eXeXeXeXeXeXeXeXeXeXeXeXeXeXeXeXeXeXeXeXeXeXeXeXeXeX",
"eXeXeXeXeXeXeXeXeXeXeXeXeXeXeXeXV.L.b.; . H W R.m eXeXeXeXeXeXeXeXeXeXeXeXeXeXeXeXeXeXeXeXeXeXeXeXeX",
"eXeXeXeXeXeXeXeXeXeXeXeXeXeXeXeXK.m.V.z eXy.H.n.f.eXeXeXeXeXeXeXeXeXeXeXeXeXeXeXeXeXeXeXeXeXeXeXeXeX",
"eXeXeXeXeXeXeXeXeXeXeXeXeXeXeXeX~.W.k.7 eXB Y.W.d.eXeXeXeXeXeXeXeXeXeXeXeXeXeXeXeXeXeXeXeXeXeXeXeXeX",
"eXeXeXeXeXeXeXeXeXeXeXeXeXeXeXeXW.W.t.7 eXz P.Q.t.eXeXeXeXeXeXeXeXeXeXeXeXeXeXeXeXeXeXeXeXeXeXeXeXeX",
"eXeXeXeXeXeXeXeXeXeXeXeXeXeXeXeXI.B.d.eXeXm l.T.t.eXeXeXeXeXeXeXeXeXeXeXeXeXeXeXeXeXeXeXeXeXeXeXeXeX",
"eXeXeXeXeXeXeXeXeXeXeXeXeXeXeXeXK K w eXeX6 N L c eXeXeXeXeXeXeXeXeXeXeXeXeXeXeXeXeXeXeXeXeXeXeXeXeX",
"eXeXeXeXeXeXeXeXeXeXeXeXeXeXeX, r y 7 eXeX* e j 0 eXeXeXeXeXeXeXeXeXeXeXeXeXeXeXeXeXeXeXeXeXeXeXeXeX",
"eXeXeXeXeXeXeXeXeXeXeXeXeXeXeX; e w 1 eXeX# 9 e 0 @ eXeXeXeXeXeXeXeXeXeXeXeXeXeXeXeXeXeXeXeXeXeXeXeX",
"eXeXeXeXeXeXeXeXeXeXeXeXeXeXeX& # $ # eXeXeX& & $ eXeXeXeXeXeXeXeXeXeXeXeXeXeXeXeXeXeXeXeXeXeXeXeXeX",
"eXeXeXeXeXeXeXeXeXeXeXeXeXeXeXeXeXeXeXeXeXeXeXeXeXeXeXeXeXeXeXeXeXeXeXeXeXeXeXeXeXeXeXeXeXeXeXeXeXeX",
"eXeXeXeXeXeXeXeXeXeXeXeXeXeXeXeXeXeXeXeXeXeXeXeXeXeXeXeXeXeXeXeXeXeXeXeXeXeXeXeXeXeXeXeXeXeXeXeXeXeX",
"eXeXeXeXeXeXeXeXeXeXeXeXeXeXeXeXeXeXeXeXeXeXeXeXeXeXeXeXeXeXeXeXeXeXeXeXeXeXeXeXeXeXeXeXeXeXeXeXeXeX",
"eXeXeXeXeXeXeXeXeXeXeXeXeXeXeXeXeXeXeXeXeXeXeXeXeXeXeXeXeXeXeXeXeXeXeXeXeXeXeXeXeXeXeXeXeXeXeXeXeXeX",
"eXeXeXeXeXeXeXeXeXeXeXeXeXeXeXeXeXeXeXeXeXeXeXeXeXeXeXeXeXeXeXeXeXeXeXeXeXeXeXeXeXeXeXeXeXeXeXeXeXeX",
"eXeXeXeXeXeXeXeXeXeXeXeXeXeXeXeXeXeXeXeXeXeXeXeXeXeXeXeXeXeXeXeXeXeXeXeXeXeXeXeXeXeXeXeXeXeXeXeXeXeX",
"eXeXeXeXeXeXeXeXeXeXeXeXeXeXeXeXeXeXeXeXeXeXeXeXeXeXeXeXeXeXeXeXeXeXeXeXeXeXeXeXeXeXeXeXeXeXeXeXeXeX"
};
