/* XPM */
static char *d7636540ff66479a8fa8ed6c971f53d40Hau6oZNSLZKoP77[] = {
/* columns rows colors chars-per-pixel */
"50 50 193 2 ",
"   c None",
".  c #2B272D",
"X  c #302E2D",
"o  c #272839",
"O  c #2E2F39",
"+  c #312B3B",
"@  c #363437",
"#  c #35323F",
"$  c #3C343E",
"%  c #2D3343",
"&  c #383F4B",
"*  c #343A49",
"=  c #373F56",
"-  c #413F47",
";  c #33404A",
":  c #3B4057",
">  c #3E455A",
",  c #3D485D",
"<  c #3E4B6A",
"1  c #3C5674",
"2  c #3F5B75",
"3  c #44434E",
"4  c #454248",
"5  c #404452",
"6  c #4A4754",
"7  c #444759",
"8  c #424A5C",
"9  c #4C4D5C",
"0  c #524D55",
"q  c #4B525A",
"w  c #424F65",
"e  c #4A4E62",
"r  c #415165",
"t  c #4A5263",
"y  c #4B546B",
"u  c #4C596C",
"i  c #46526A",
"p  c #595F6F",
"a  c #535B68",
"s  c #415771",
"d  c #455E77",
"f  c #4B5C75",
"g  c #4C5573",
"h  c #545F73",
"j  c #55626E",
"k  c #4B627B",
"l  c #45637F",
"z  c #5A6374",
"x  c #53647B",
"c  c #5A667C",
"v  c #5F697F",
"b  c #566475",
"n  c #67656C",
"m  c #6A6F7D",
"M  c #4D6483",
"N  c #526682",
"B  c #596780",
"V  c #566B86",
"C  c #5D6D84",
"Z  c #516B89",
"A  c #5B6B89",
"S  c #57738E",
"D  c #5C728C",
"F  c #5E7390",
"G  c #5A7A95",
"H  c #5F7898",
"J  c #636C86",
"K  c #677185",
"L  c #63738A",
"P  c #6C798C",
"I  c #787C8D",
"U  c #627691",
"Y  c #687790",
"T  c #647A94",
"R  c #6C7C94",
"E  c #697E9B",
"W  c #667E9B",
"Q  c #747C97",
"!  c #608197",
"~  c #63829C",
"^  c #6C829B",
"/  c #728393",
"(  c #7F8997",
")  c #73839C",
"_  c #7A839C",
"`  c #768A9B",
"'  c #6485A0",
"]  c #6C84A2",
"[  c #6C89A4",
"{  c #6C85AC",
"}  c #6B8CA9",
"|  c #7184A2",
" . c #7D87A5",
".. c #7589A4",
"X. c #7C8BA3",
"o. c #7287A9",
"O. c #748CAA",
"+. c #798BAB",
"@. c #6E90AB",
"#. c #7192AD",
"$. c #7A92AB",
"%. c #7193B2",
"&. c #7D94B4",
"*. c #7799B6",
"=. c #7C99B6",
"-. c #7795B9",
";. c #7D97B9",
":. c #759BBC",
">. c #7B9BBB",
",. c #769EC0",
"<. c #7C9EC0",
"1. c #77A0C2",
"2. c #7AA1C4",
"3. c #7BA7CA",
"4. c #858998",
"5. c #898EA0",
"6. c #828FAA",
"7. c #828CA2",
"8. c #8391A7",
"9. c #8296AC",
"0. c #8993AB",
"q. c #919CAC",
"w. c #8396B3",
"e. c #8A96B2",
"r. c #8499B5",
"t. c #8C9CB3",
"y. c #8397B9",
"u. c #829CBC",
"i. c #8B9DBC",
"p. c #999FB3",
"a. c #86A2BF",
"s. c #8DA1BD",
"d. c #93A4BC",
"f. c #B4B2BE",
"g. c #819ECA",
"h. c #809CC5",
"j. c #86A2C3",
"k. c #8BA5C4",
"l. c #83A4CC",
"z. c #8CA5CC",
"x. c #84ABCE",
"c. c #8AAACD",
"v. c #94A5C2",
"b. c #9DA7C1",
"n. c #95A9C4",
"m. c #9CACC6",
"M. c #93AACC",
"N. c #9BAFCF",
"B. c #99B2CB",
"V. c #8BA6D2",
"C. c #85AAD2",
"Z. c #8BABD4",
"A. c #85ADDB",
"S. c #8CADDA",
"D. c #93ADD3",
"F. c #92ACD8",
"G. c #8CB0D4",
"H. c #8CB0DB",
"J. c #95B2D6",
"K. c #9BB4D6",
"L. c #91B1DC",
"P. c #9BB4DA",
"I. c #A2ABC5",
"U. c #A0ACCF",
"Y. c #A8ACC3",
"T. c #A2B1CD",
"R. c #A4B8CF",
"E. c #ADB3CB",
"W. c #B4BCC8",
"Q. c #A2B5D3",
"!. c #ABB4D1",
"~. c #A4BBD5",
"^. c #A5B7D8",
"/. c #A5BADC",
"(. c #ABBEDB",
"). c #ACB9D0",
"_. c #B1B8D0",
"`. c #B3BDDC",
"'. c #8CADE0",
"]. c #88B3E2",
"[. c #A0BCE3",
"{. c #B2BFE3",
"}. c #ACC0D9",
"|. c #BDC8DF",
" X c #ACC1E2",
".X c #A6C3EA",
"XX c #B6C2E3",
"oX c #BCC7E5",
"OX c #BCCBE3",
"+X c #B3C9E8",
"@X c #BED2F1",
"#X c #C4CAE5",
"$X c #C4D2E7",
/* pixels */
"                                                                                                    ",
"                                                                                                    ",
"                                                                                                    ",
"                                                                                                    ",
"                                                                                                    ",
"                                                                                                    ",
"                                                                                                    ",
"                                                                                                    ",
"      E.Y.                                                                                9.L       ",
"    OXn.Q.                                                                              (.B.=.Y     ",
"  oXD.c.D.m.                                                                             XZ.Z.u.    ",
"`.P.A.A.C.N.                                                                          }.D.S.A.C.$.  ",
"{.F.A.].C.M.0.                              XX@X/.(.m.                                ~.Z.'.S.S.a.  ",
"U.z.S.H.l.] <                         b.`.(./.K.J.P.K.T.i. .                        L u.[.F.V.l.j.) ",
" .| &.k.] 1 o.v.                  #XoX X/.i.U T n.i.D E v.n.i...                  !.v.H j.Q.y.] )   ",
"      / k ] z.n.).              $X|.~.D.i.y % - n 9 % = R M.c.k.w.              !.^.M.y.D X.b       ",
"        B r.M.B.) Y 8.        OX$Xp.7.v.^ y O @ 0 6 # % A M.M.X.d._           6.R Q.n.i.R           ",
"            t.t.L i.m.W.      OX` 6 9 z w.x 8 7 _ h 8 w o.| 8 q h 7.C     q.d.s.Y X.0.              ",
"                R +.    f.5.I.m.j # + : i.y.O.&.c.j.] $.j.C 4 . ; O.W h 4.( ) ) )                   ",
"                            Q.v.b 7 * g z.F.Z.Z.A.C.G.c.x.T q * r >.%.N                             ",
"                          t.(.v.P z L &.V.S.S.S.S.H.S.Z.S.j.T v ) u.>.U                             ",
"                          R.Q.c 9 z $.Z.Z.Z.Z.Z.S.S.S.S.S.H.j.J e u R P                             ",
"                          $X) 5 . 3 T S.Z.S.Z.S.Z.S.A.S.S.S.=.9 $ X q /                             ",
"                          @XR t $ 5 E Z.Z.S.H.'.A.A.].A.L.Z.;.y - @ a `                             ",
"                          +Xj.D y U j.D.M.z.Z.C.Z.Z.C.C.k.c.V.o.b c ..{                             ",
"                          .XG.j.y.l.Z.&.) ) | | | ^ [ ] ) +.z.Z.j.u.;.{                             ",
"                          .XH.c.Z.C.l.l % & 5 9 3 3 7 > o > u.x.x.<.-.{                             ",
"                          +XZ.Z.C.H.Z.=.u & t z m m p , i ) c.C.3.>.O.E                             ",
"                          XXP.Z.H.S.S.Z.u.] F N M N D ^ ;.c.Z.C.2.:.[ R                             ",
"                            M.Z.S.S.S.S.S.V.g.g.g.h.l.l.Z.Z.x.2.:.#.^ L                             ",
"                            w.j.c.c.V.S.Z.S.L.Z.Z.F.Z.Z.V.l.<.:.%.~ T                               ",
"                              ..r.a.j.l.l.C.l.x.Z.l.l.l.<.>.*.} ' T k                               ",
"                                ^ $.=.>.:.,.1.,.,.1.:.:.%.} ' ~ G d f                               ",
"                                  x D [ #.@.} } @.} ' ~ ! ~ G l 2 D ^                               ",
"                                  R k s x x V S S D C x k 2 1 Z ] 9.R                               ",
"                                  b.n.&.L K L Z M f h L ~ o.$.s.n.e.                                ",
"                                  e.M.u.b   T.M.u.N > t.J.k.X.R t.Q                                 ",
"                                    ^.E       v.V     I Q.r.                                        ",
"                                    I.                a _._                                         ",
"                                                                                                    ",
"                                                                                                    ",
"                                                                                                    ",
"                                                                                                    ",
"                                                                                                    ",
"                                                                                                    ",
"                                                                                                    ",
"                                                                                                    ",
"                                                                                                    ",
"                                                                                                    ",
"                                                                                                    "
};
