/* XPM */
static char *_42a784e31bd47459d87844ba3564f8aCCV9wkRk8oB63Kq1[] = {
/* columns rows colors chars-per-pixel */
"50 50 36 1 ",
"  c #27ADB8",
". c #29ABB8",
"X c #28ACB8",
"o c #29ADB9",
"O c #2AACB9",
"+ c #28AEB9",
"@ c #2BADBA",
"# c #29AFBA",
"$ c #2AAEBA",
"% c #2BAFBB",
"& c #2CAEBB",
"* c #2DAFBC",
"= c #2AB0BB",
"- c #2BB1BC",
"; c #2CB0BC",
": c #2DB1BD",
"> c #2EB0BD",
", c #2CB2BD",
"< c #2FB1BE",
"1 c #2DB3BE",
"2 c #2EB2BE",
"3 c #2FB3BF",
"4 c #2EB4BF",
"5 c #30B2BF",
"6 c #2FB5C0",
"7 c #31B3C0",
"8 c #30B4C0",
"9 c #31B5C1",
"0 c #32B4C1",
"q c #30B6C1",
"w c #31B7C2",
"e c #32B6C2",
"r c #33B7C3",
"t c #34B6C3",
"y c #34B8C4",
"u c #36B8C5",
/* pixels */
"*>>5>>>>>>>>44-=>>0>>==>@@@-@@>4>>>@@@@>6>@=>>>>>=",
"**>>>>>>>>4466>>>>>4>>>>@@@@@>40>>>>>>>>>>=>>>>>@@",
"***>>>>>4>>0664>@=>>44>>>>>@@>>=>>>>>4>>>>>>0>>@=@",
">>>>>>>>>>>>44>>@@@>>>>@00>@@>>@===>>>>>>>>>>>@@>=",
">>>>>>>4>>>>444>>@=>44>@>>@@=>>@@=>>==>>>>>>>>@->=",
">***>>>>>>>>444>>>>>00>>>@@@@@@@@>>>@@>4>>@->@->4>",
"&&>>>>>>>>>>4644>>>>>>>>>>=>>@@>>>>>@@>>>@=->@>>4>",
"&*>>>>>>>>>>444>0>>>>@@@>@=>4=>u0>>@@@>>>@=>>>>>>@",
">@t.0@0>>>>>>>-=>>>>44>>>@@@>0>>@@>00>>>>@@>>>>>@@",
"*>5>>>>>4>>>->>4>>@@>>>@@@@=>4>>>>>>>->0>-->>>>>@@",
"*0*u@0@>04>>>466>>@@@@@@>>>>>>>>>>>>-@>0>>>>>>=>>>",
"*0*u@0@>=>>06644>>>->->>>>>>>@@=>>>=@@>>>>>>>>@->>",
"*>>5>>@@@@>>>>>->>44>>>>@>>>=@@=>-@@=>>@>@>>>>>>>>",
">>7>0>>@>>>>>>44>>>>>>>>@>>>>>>4>>=@>>-@>>>>>>>>>>",
"5>7>0>>>4>>>>444@=>>==>>>>>>>>40@>>@@>>>>>>>>@@>>>",
">*&&>>@@=>>>>-@@@==@@@>>>>>@@@@@@>0>@@>>6>>>>@@>@@",
">>>>>>>>&>&0@>&>0>>@>04>@@@=>=@@@>>>>>>>@@>>>@@-@@",
">>>>55>*>7>0@>@&@@@@@>>@>>>>>>>=>>>>>>-@@@>>>-->>>",
"*&@*>5*@@>*5&>>>>>>>400>>>>>>>>>>-@@>>@@>>>>>->>>>",
"@@@*55>&@&*>>5>0@>>>>>>>>>@@>>>>>@ >>>=>>>>-@>>@>>",
">>>>>>>>>>0>>>>>=>>@@@-@>>@@@>>>>@@>>@=>>4>==>>>>>",
">>>>>=@=>>0>0>>>40>>>>>>>>@@@>>>>>>>>@=>@>>@>40>@>",
">>>@@>>@@@>@0@>>>>@@@>>@-@@@=>>>>>>==>>@@>>@>00>@>",
">>@>4000>>0@>@>@=@@@>0>@@@@@=>>=@@@@@0>@>>>==4>@@@",
"0>@>00>@>>>>40>>--@@>>==-->>>>>0>@@@@@@=@@@@>>>@@-",
"0>==>>>>>>>>>0>>->>>>>>>>>>@@>-->>>>>>>>>=@@>>>@@@",
"4>>>>>>>@>>>>4>>@>0>>>>40>>>->-@>>>>>>>>>>>>>4>@@@",
"=>400>>>>>>>>4>=@->>>>>>>>>>>0>>>@=@>>>-44>>>>>>>@",
">>>6064-6064464->=@@=>>>>-@>>00>=@@@>>>=>>>>>>>=>>",
"04->46644666000>4>@@>>>>>-@->>>>@@=>>>>>>>>@=>@@>>",
"04-->6664664606>>>>>>>>>>>>>>>>>@=@>>>>>>>>>=>>@>>",
">>>>444>606444>=@>>>>>@@>>>>>>>>@@@->>>>>>>>>>>>@>",
"660w6>>0>>44>-==>>>>>>>>@=>>>@@>>@@@@@@>>@@>>@@@ @",
"4--4>-->4>>>44>>>>>>>>>>==>>>>>>>>>>>>>>>>>@>>>@--",
"-@ =>-==64>>>466>>>>>>>>>>>>4>>>>>>00>>==00@@>0@--",
"-=@=->-=4444>>440>>>>>>>>>=>4>>=>@>40>==@>4@@>>>>>",
">>>>>>>-@>60>>>>444>>>>>>@@>>>>=>=@>>>==>>>>>=>4>>",
">>>>=>>-@>>6>>>>>>>>>>44>@@@>>>>>>@>>>>>>>>>>>>0>>",
">>>=>>>>=>>>>>>>>>>>>>44>@@>>>>>>@@>>>>>>->>>>>>@@",
"0>@@>00>0>-->>>@>>>>>>>>>=@>>>>6>@@>>>>>@>>@@44@@@",
"4>@@>>>0@>4>=>>@@@>4>>>@@@=@>>>0>@@>4>=@@->>>>>>>>",
">>>>>>>>>>>>>0>@>>>@=>>>--->>>>>>>>>004>->>>>>>0>>",
">>>00>>>>>=@>00@>>>@@>>>>>>>>>>>>>@>>4>>-@@@>>>>>>",
">>>40>>>>>=@>0>@=>>>>>>@-->>>>>>>>>>>>->-@ @=>=@==",
">&&*>**>>>>*>>>>@>>>>>>@->>>>>>>6>>>>>>>>>=>>>>@==",
">&@&*&*>575>>>>5>>>=@>>->>>>>>>@>>>>>>>>>>>>0>>@>>",
"5*&****>555>>>>0>>>@@>>>>>>>>>>==>->>>>>>@=>>>>>>>",
"5>*>>>>>>>*>>>>0>>>>@>>@@@>>>>>>>>>>>>@@@@==>>>>>>",
">>>>>0>>>=@>>=@>@>@>>=0>>>>>>>>4>>>>>>@@@>@6@>>@@@",
">>>>>04>>=@>>@@>=>@>>>0>>>>>>>>4>>>>>>>@@>@6@>>@@@"
};
