/* XPM */
static char *e16673c434824d929786aad6d0512c2eUyQtPa7rbKqrGtCH[] = {
/* columns rows colors chars-per-pixel */
"50 50 14 1 ",
"  c #2A397C",
". c #2B3A7D",
"X c #2C3B7E",
"o c #2D3C7F",
"O c #2E3D80",
"+ c #2F3E81",
"@ c #303F82",
"# c #314083",
"$ c #324184",
"% c #334285",
"& c #344386",
"* c #354487",
"= c #364588",
"- c #374689",
/* pixels */
"+oX@**@.*@+##+o++@@@#%%@o++++ooo++@#@++@#@+oo+@+#@",
"#+++#%#+*#+#@oX+##@@#%@o+++++++@oo+++XX+%++@#++%@@",
"#%%#@@@#*%##@o+###@+#%+X++++oo+@oo+@+oo+%oX%%++%++",
"#%**%#@@#@@@++@&+@@+@#@+@#@+++++@@#%%##%+XX@#++@++",
"#%%&%%@++++++++%o@#@++@@+#%%#####@#%%%%%X++++#@o+@",
"%#+++@@+@###@@@@+#%@++@@.o+@@@##@++##@++X##o+%%X@#",
"#++++@####%%%%#+@@@+@%#+.X+++++@@+++@++++@@++#@o+@",
"++#%%###Xo+@%%@X@+Xo%*&@###@++@##++@#@++@+o+++o+oo",
"+++@%%@++@##++oo#X+@o#%X+++++@#%@+%&+++o#+++++o+#@",
"@@@#%#@++#%%#@++#+@++@#oXXo++@@#++#%@#%@@+++#@@@#@",
"%###%#++@@@###@+@%#+++++XX++@###+o+#+@%+#++@##@#@+",
"%%##%#@+@+++##@++*%+@+o%+++++@#%#++@+@#o%#@##@++oo",
"%###%%#@#+++#%#@o&%o@+o%++oXo++@%++@+@%+%@+@@+++oo",
"##@@###@%#@@#%%%+%#++++%@++++++@+.o+++#+#+++@+++o+",
"%#@@@@@+%%%###%&@@#+X+#@++@###@@o.+@o++o#++@@+++++",
"%%@@@+++#%%@++#%%+#@.o%o.o+#%#++#@&*@+@+%#+@@+ooo+",
"%%@@%&%+@+@%%@@#*+%#@&#@XXXo+++++oX+@#+o+o+@#+++++",
"@#%#%&%%+++#@+oo*+%#@&#@@@#%%%%%@@@##@+X+o+@#@++++",
"o@%#++#%+++#@+XX%X#@+%+oXo++++++o+@#++XXoXX+@+++oo",
"+#%@++++++@%%#++#.@++#+o++++@@##oo+++++++XX+@+++++",
"%%%%###+@@#&&%##%o%#+%@+#@+++@#%%@++#%%#+++@##@###",
"#%##%%%@%##%%@+@%+%#+%@#+oX.Xo++-%++@##@+oX+++++@@",
"@##@#%#+%@@#@+++%+%@o#@#@@######%#+++++++X.o+oo+++",
"%&%%##@+@++@@+@#*+%@o%%%+@%%%%#@@@#@@@#%#+++@++@##",
"#%@+@%%++@@+o@##&@#%##%%++###@@@+oXo+@++o+##@++@%%",
"o++++#%%++@#@+@@%+@%@@%@#@+@%%%%@+++###@++@@++oo++",
"+@@++@&*+++%#++##+@%@+#+%+o+#&&%#@@@@#@@+++++ooo++",
"%%%%##%%%++##o+&%+@%++%#@+o+@%%%+++++++oXo++++++@@",
"%%%%&%@+%++%%o+%&+@#++%%+++@@@##@@+++++++++++@@@++",
"#@@%&%+o++#*&+o+&++@oo#@@#%%#@###%%#@@@@@@++@@@+oo",
"#@#%%#+++#%%#@++%+@%++@+%#@@@##%#%%%@@@##@++@#@+++",
"%%%&%++#%%#oX+%%%+%*%@@+%@oo+#%#+@@@++++++o+@#%###",
"#%%#@#@++#%#@%%%+++@%%#+#@++@#@+#++++++@#oo#%+@%@@",
"@%#++##@+@#@@#%@@@+@%&%++++@##@@%#@#@++#&++#%+++oo",
"@@@++#%%@@@@@##+@@++#&%#o+@%%#@@#@@#@+++#oo#%%@#++",
"@@@@@#%%%%##%%%@@@++@%%%++##@@@#@+@##+o++XX@&%##@@",
"@#%%%%##&%%%%%#@@@+++%%%###@++@##@#%%@++#++#%#+oXX",
"##%&&%@@%##%%#@@@#@++#%#%%#++++#@@@%%@+@@@@@##@+XX",
"%##&%#@##@@%#++#@##++##@%#@++@@@+++##++@++@@@@#%++",
"%@@%%@@%@@#%#++%#%%@@##@#@+@##@+@+@%%##%#%%@++++++",
"@@++@%#@+++@%%%@++@@@@%*@###%%@Xo@+o##@%#++##+oo++",
"@@++@#@+@+o+#%%%@+++@#%%@##@##@oo@++##@%@++@#+++@@",
"%%##%%%#@+oo+@#@%#@@%%%####+@#@+o@++##+%@+o+@++@##",
"%##%%%%&%#++@@@+%%####@+#%#++##@+@++%#+%#+o++++@%%",
"@++##@#&%%%%%%%#+@#@++++%%%@@#%%+#++%#+#%@+++++@++",
"@++%%@#*++#%%%%#@%%%@+@##%%@@#%%+#@@%#+#%@++++++oo",
"%@#&%@#*++@@@@@@%%%&%%%%+#%@+@##+#@@%#+#%@+@#@+@++",
"%@#%%++%*&%#@+@@#@@#%&%#+@#@+@@@+#@@%#+##++@##@#@@",
"&%@+-@&o&+%%#%@@@##++##@########%##@@#%*%@+%%@@%%%",
"&%@+-@&o&o%%#%@##%#@@#%#########%##@@#%*%@+%%@@%%%"
};
