/* XPM */
static char *result[] = {
/* columns rows colors chars-per-pixel */
"50 50 223 2 ",
"   c #0C0C0C",
".  c gray5",
"X  c #0E0E0E",
"o  c #0F0F0E",
"O  c gray6",
"+  c #110C0F",
"@  c #100F10",
"#  c #0E1211",
"$  c #101010",
"%  c #111111",
"&  c #131211",
"*  c #101212",
"=  c gray7",
"-  c #131313",
";  c #151314",
":  c #101514",
">  c gray8",
",  c #151515",
"<  c #161614",
"1  c #151517",
"2  c #161616",
"3  c gray9",
"4  c #181818",
"5  c #191919",
"6  c gray10",
"7  c #1B1B1B",
"8  c #1A191D",
"9  c gray11",
"0  c #1D1D1D",
"q  c #1E1C1F",
"w  c #1E1E1E",
"e  c gray12",
"r  c #201D1C",
"t  c #22201F",
"y  c #22211F",
"u  c #27261F",
"i  c #152D25",
"p  c #1D3D35",
"a  c #202020",
"s  c gray13",
"d  c #232122",
"f  c #222222",
"g  c #232323",
"h  c gray14",
"j  c #252525",
"k  c #272727",
"l  c #242828",
"z  c #282828",
"x  c gray16",
"c  c #282A29",
"v  c gray17",
"b  c #2C2C2C",
"n  c #2C2C2D",
"m  c #2D2D2D",
"M  c gray18",
"N  c #2F2F2F",
"B  c #332E24",
"V  c #302F2A",
"C  c #24322F",
"Z  c #3C3923",
"A  c #33322D",
"S  c #3E3928",
"D  c #2E2E30",
"F  c #313131",
"G  c #323232",
"H  c gray20",
"J  c #343434",
"K  c #343435",
"L  c #353535",
"P  c #353635",
"I  c #353636",
"U  c gray21",
"Y  c #393839",
"T  c #393939",
"R  c #393A3A",
"E  c #3A3A3A",
"W  c gray23",
"Q  c #3C3D3D",
"!  c gray24",
"~  c #3E3E3E",
"^  c #05583F",
"/  c #2F423C",
"(  c #3D423F",
")  c #4A472F",
"_  c #5A5329",
"`  c #5C5629",
"'  c #5E542E",
"]  c #424237",
"[  c #524C3A",
"{  c #534E3D",
"}  c #575433",
"|  c #5A5433",
" . c #595539",
".. c #585639",
"X. c #59543A",
"o. c #5F573E",
"O. c #665F2D",
"+. c #7C7239",
"@. c #7C753A",
"#. c #1C5043",
"$. c #1E5F4F",
"%. c #3E4E48",
"&. c #235345",
"*. c #29574C",
"=. c #33574F",
"-. c #375B53",
";. c #375B54",
":. c #0A7758",
">. c #246655",
",. c #2C6151",
"<. c #1F7860",
"1. c #1B7C60",
"2. c #227561",
"3. c #2F7162",
"4. c #2E7563",
"5. c #267D65",
"6. c #297B63",
"7. c #3C796A",
"8. c #387F6D",
"9. c gray25",
"0. c #414040",
"q. c #444343",
"w. c #434344",
"e. c #444444",
"r. c gray27",
"t. c #464646",
"y. c gray28",
"u. c #494740",
"i. c #484747",
"p. c #4F4C42",
"a. c #484848",
"s. c #494949",
"d. c #4B4C4A",
"f. c #4D4C4D",
"g. c #4E4E4E",
"h. c #514F46",
"j. c #56564B",
"k. c #595448",
"l. c #445550",
"z. c #4C5552",
"x. c #515151",
"c. c #545254",
"v. c gray34",
"b. c #515855",
"n. c #5A5A5A",
"m. c #5B5B5B",
"M. c gray36",
"N. c #5A615E",
"B. c #466D61",
"V. c #466F67",
"C. c #467E6D",
"Z. c #5B706B",
"A. c #606060",
"S. c gray38",
"D. c #626264",
"F. c gray40",
"G. c DimGray",
"H. c #6C6C6C",
"J. c #6D6D6D",
"K. c gray43",
"L. c #717171",
"P. c #717173",
"I. c #727272",
"U. c #747474",
"Y. c gray46",
"T. c #767676",
"R. c #797979",
"E. c #7E7E7E",
"W. c #138B68",
"Q. c #2A856D",
"!. c #368473",
"~. c #0FA97F",
"^. c #438C77",
"/. c #4B8D7A",
"(. c #518E7B",
"). c #43907B",
"_. c #4D917D",
"`. c #3A9580",
"'. c #0DAB80",
"]. c #1DB88F",
"[. c #20A681",
"{. c #459F86",
"}. c #4D9B85",
"|. c #509684",
" X c #5D9F8C",
".X c #668B84",
"XX c #639084",
"oX c #629186",
"OX c #669A8D",
"+X c #59A691",
"@X c #51B197",
"#X c #63A593",
"$X c #6FA89D",
"%X c #71A599",
"&X c #7FB0A6",
"*X c #1EF3B8",
"=X c #2DEBB8",
"-X c #21F3BB",
";X c #20F7BD",
":X c #26F4BD",
">X c #54C8A7",
",X c #54DDB6",
"<X c #66CAAC",
"1X c #69CCAF",
"2X c #75CBB7",
"3X c #76C7B8",
"4X c #7DCABB",
"5X c #37F3C1",
"6X c #33F6C1",
"7X c #3BF0C1",
"8X c #56F3CA",
"9X c #65E7C8",
"0X c #67F2CE",
"qX c #828283",
"wX c gray52",
"eX c #888884",
"rX c gray55",
"tX c gray56",
"yX c gray57",
"uX c #929292",
"iX c #BCBCBB",
"pX c #86D5C2",
"aX c None",
/* pixels */
"aXaXaXaXaXaXaXaXaXaXaXaXaXaXaXaXaXaXaXaXaXaXaXaXaXaXaXaXaXaXaXaXaXaXaXaXaXaXaXaXaXaXaXaXaXaXaXaXaXaX",
"aXaXaXaXaXaXaXaXaXaXaXaXaXaXaXaXaXaXaXaXaXaXaXaXaXaXaXaXaXaXaXaXaXaXaXaXaXaXaXaXaXaXaXaXaXaXaXaXaXaX",
"aXaXaXaXaXaXaXaXaXaXaXaXaXaXaXaXaXaXaXaXaXaXaXaXaXaXaXaXaXaXaXaXaXaXaXaXaXaXaXaXaXaXaXaXaXaXaXaXaXaX",
"aXaXaXaXaXaXaXaXaXaXaXaXaXaXaXaXaXaXaXaXaXaXaXaXaXaXaXaXaXaXaXaXaXaXaXaXaXaXaXaXaXaXaXaXaXaXaXaXaXaX",
"aXaXaXaXaXaXaXaXaXaXaXaXaXaXaXaXaXaXaXaXaXaXaXaXaXaXaXaXaXaXaXaXaXaXaXaXaXaXaXaXaXaXaXaXaXaXaXaXaXaX",
"aXaXaXaXaXaXaXaXaXaXaXaXaXaXaXaXaXaXaXaXaXaXaXaXaXaXaXaXaXaXaXaXaXaXaXaXaXaXaXaXaXaXaXaXaXaXaXaXaXaX",
"aXaXaXaXaXaXaXaXaXaXaXaXaXaXaXaXaXaXaXaXaXaXaXaXaXaXaXaXaXaXaXaXaXaXaXaXaXaXaXaXaXaXaXaXaXaXaXaXaXaX",
"aXaXaXaXaXaXaXaXaXaXaXaXaXaXaXaXaXaXaXaXaXaXaXaXaXaXaXaXaXaXaXaXaXaXaXaXaXaXaXaXaXaXaXaXaXaXaXaXaXaX",
"aXaXaXaXaXaXaXaXaXaXaXaXaXaXaXaXaXaXaXaXaXaXaXaXaXaXaXaXaXaXaXaXaXaXaXaXaXaXaXaXaXaXaXaXaXaXaXaXaXaX",
"aXaXaXaXaX#X_.^.+XaXaXaXaXaXaXaXaXaXaXaXaXaXaXaXaXaXaXaXaXaXaXaXaXaXaXaXaXaXaXaXaXaXaXaXaXaXaXaXaXaX",
"aXaXaX=..X&XpX2X`.2.7.aXaXaXaXaXaXaXaXaXaXaXaXaXaXaXaXaXaXaXaXaXaXaXaXaXaXaXaXaXaXaXaXaXaXaXaXaXaXaX",
"aXaX-.aX0X5X*X;X7X9X6.%XaXaXaXaXaXaXaXaXaXaXaXaXaXaXaXaXaXaXaXaXaXaXaXaXaXaXaXaXaXaXaXaXaXaXaXaXaXaX",
"aXaX;.V.W.:.~.[.$.>.,.aXaXaXaXaXaXa s aXaXaXaXaXaXaXaXaXaXaXaXaXaXaXaXaXaXaXaXaXaXaXaXaXaXaXaXaXaXaX",
"aXaX/.|.@Xp C Z.l.%.# 0.( i.n.K.5 0 w ! m uXH aXaXaXaXaXaXaXaXaXaXaXaXaXaXaXaXaXaXaXaXaXaXaXaXaXaXaX",
"aXaXaX<X>X&.i B./ z.l b.c.N.D.y.< y & k aXaXaXaXaXaXaXaXaXaXaXaXaXaXaXaXaXaXaXaXaXaXaXaXaXaXaXaXaXaX",
"aXaX4.#.1.^ '.].<.3.8.1XaXaXaXu { | Z r aXaXaXaXaXaXaXaXaXaXaXaXaXaXaXaXaXaXaXaXaXaXaXaXaXaXaXaXaXaX",
"aXaX).aX,X=X-X:X6X8X!. XaX+ 8 [ @.+.O.S T aXaXaXaXaXaXaXaXaXaXaXaXaXaXaXaXaXaXaXaXaXaXaXaXaXaXaXaXaX",
"aXaX}.*.OX$X4X3X{.Q.5.aXaX: d ) ` ' _ B 9.aXaXaXaXaXaXaXaXaXaXaXaXaXaXaXaXaXaXaXaXaXaXaXaXaXaXaXaXaX",
"aXaXaXaXaXC.XXoX(.aXaXaXaX; q ] X.o. .h.A.aXaXaXaXaXaXaXaXaXaXaXaXaXaXaXaXaXaXaXaXaXaXaXaXaXaXaXaXaX",
"aXaXaXaXaXaXaXaXaXaXaXaXaX1 * t k.} ..u.G aXaXaXaXaXaXaXaXaXaXaXaXaXaXaXaXaXaXaXaXaXaXaXaXaXaXaXaXaX",
"aXaXaXaXaXaXaXaXaXaXaXaXaX5 w @ A j.p.V k aXaXaXaXaXaXaXaXaXaXaXaXaXaXaXaXaXaXaXaXaXaXaXaXaXaXaXaXaX",
"aXaXaXaXaXaXaXaXaXaXaXaXaXN qXP.$ o a K U aXaXaXaXaXaXaXaXaXaXaXaXaXaXaXaXaXaXaXaXaXaXaXaXaXaXaXaXaX",
"aXaXaXaXaXaXaXaXaXaXaXaX9 H yXiXd.c D Q = aXaXaXaXaXaXaXaXaXaXaXaXaXaXaXaXaXaXaXaXaXaXaXaXaXaXaXaXaX",
"aXaXaXaXaXaXaXaXaXaXaXj 9 a v.eXq.P I R s aXaXaXaXaXaXaXaXaXaXaXaXaXaXaXaXaXaXaXaXaXaXaXaXaXaXaXaXaX",
"aXaXaXaXaXaXaXaXaXaXaX0 a 9 f f.Y w.n b aXaXaXaXaXaXaXaXaXaXaXaXaXaXaXaXaXaXaXaXaXaXaXaXaXaXaXaXaXaX",
"aXaXaXaXaXaXaXaXaXaXr.v , , h F m F e 0 aXaXaXaXaXaXaXaXaXaXaXaXaXaXaXaXaXaXaXaXaXaXaXaXaXaXaXaXaXaX",
"aXaXaXaXaXaXaXaXaXG.rXwXN aXv L y.E f 0 aXaXaXaXaXaXaXaXaXaXaXaXaXaXaXaXaXaXaXaXaXaXaXaXaXaXaXaXaXaX",
"aXaXaXaXaXaXaXaXaXS.tXY.aXaXe.v.n.W a s aXaXaXaXaXaXaXaXaXaXaXaXaXaXaXaXaXaXaXaXaXaXaXaXaXaXaXaXaXaX",
"aXaXaXaXaXaXaXaX  e G 9.aXaXh N N J e ~ aXaXaXaXaXaXaXaXaXaXaXaXaXaXaXaXaXaXaXaXaXaXaXaXaXaXaXaXaXaX",
"aXaXaXaXaXaXaXaX6 9 f 6 aXaX9 U x z v % aXaXaXaXaXaXaXaXaXaXaXaXaXaXaXaXaXaXaXaXaXaXaXaXaXaXaXaXaXaX",
"aXaXaXaXaXaXaXaX> 9 6 aXaXaX> % % , w > 6 aXaXaXaXaXaXaXaXaXaXaXaXaXaXaXaXaXaXaXaXaXaXaXaXaXaXaXaXaX",
"aXaXaXaXaXaXaXaXaXaXaXaXaXaX% 4 6 6 3 2 9 aXaXaXaXaXaXaXaXaXaXaXaXaXaXaXaXaXaXaXaXaXaXaXaXaXaXaXaXaX",
"aXaXaXaXaXaXaXaXaXaXaXaXaXg 4 6 6 3 - 2 5 h aXaXaXaXaXaXaXaXaXaXaXaXaXaXaXaXaXaXaXaXaXaXaXaXaXaXaXaX",
"aXaXaXaXaXaXaXaXaXaXaXaXT.H.A.J.M 7 - 6 - x.U.aXaXaXaXaXaXaXaXaXaXaXaXaXaXaXaXaXaXaXaXaXaXaXaXaXaXaX",
"aXaXaXaXaXaXaXaXaXaXaXR.E.G.L.I.aXaXaXO $ y.I.aXaXaXaXaXaXaXaXaXaXaXaXaXaXaXaXaXaXaXaXaXaXaXaXaXaXaX",
"aXaXaXaXaXaXaXaXaXaXaXwXF.g.E aXaXaXaXaXM s.n.G.aXaXaXaXaXaXaXaXaXaXaXaXaXaXaXaXaXaXaXaXaXaXaXaXaXaX",
"aXaXaXaXaXaXaXaXaXaXM.F.g.U aXaXaXaXaXaXaX9.a.m.v.7 e w , aXaXaXaXaXaXaXaXaXaXaXaXaXaXaXaXaXaXaXaXaX",
"aXaXaXaXaXaXaXaXaX, t.x.9.aXaXaXaXaXaXaXaXaXL r.f 5 9 7 - aXaXaXaXaXaXaXaXaXaXaXaXaXaXaXaXaXaXaXaXaX",
"aXaXaXaXaXaXaXaX% > 2 4 w aXaXaXaXaXaXaXaXaXaXO 3 - 4 O aXaXaXaXaXaXaXaXaXaXaXaXaXaXaXaXaXaXaXaXaXaX",
"aXaXaXaXaXaXaXaXaX, 6 w 4 aXaXaXaXaXaXaXaXaXaXaX. % X aXaXaXaXaXaXaXaXaXaXaXaXaXaXaXaXaXaXaXaXaXaXaX",
"aXaXaXaXaXaXaXaXaXaX2 0 e 5 aXaXaXaXaXaXaXaXaXaXaXaXaXaXaXaXaXaXaXaXaXaXaXaXaXaXaXaXaXaXaXaXaXaXaXaX",
"aXaXaXaXaXaXaXaXaXaX% 3 3 $ aXaXaXaXaXaXaXaXaXaXaXaXaXaXaXaXaXaXaXaXaXaXaXaXaXaXaXaXaXaXaXaXaXaXaXaX",
"aXaXaXaXaXaXaXaXaXaXaXaXaXaXaXaXaXaXaXaXaXaXaXaXaXaXaXaXaXaXaXaXaXaXaXaXaXaXaXaXaXaXaXaXaXaXaXaXaXaX",
"aXaXaXaXaXaXaXaXaXaXaXaXaXaXaXaXaXaXaXaXaXaXaXaXaXaXaXaXaXaXaXaXaXaXaXaXaXaXaXaXaXaXaXaXaXaXaXaXaXaX",
"aXaXaXaXaXaXaXaXaXaXaXaXaXaXaXaXaXaXaXaXaXaXaXaXaXaXaXaXaXaXaXaXaXaXaXaXaXaXaXaXaXaXaXaXaXaXaXaXaXaX",
"aXaXaXaXaXaXaXaXaXaXaXaXaXaXaXaXaXaXaXaXaXaXaXaXaXaXaXaXaXaXaXaXaXaXaXaXaXaXaXaXaXaXaXaXaXaXaXaXaXaX",
"aXaXaXaXaXaXaXaXaXaXaXaXaXaXaXaXaXaXaXaXaXaXaXaXaXaXaXaXaXaXaXaXaXaXaXaXaXaXaXaXaXaXaXaXaXaXaXaXaXaX",
"aXaXaXaXaXaXaXaXaXaXaXaXaXaXaXaXaXaXaXaXaXaXaXaXaXaXaXaXaXaXaXaXaXaXaXaXaXaXaXaXaXaXaXaXaXaXaXaXaXaX",
"aXaXaXaXaXaXaXaXaXaXaXaXaXaXaXaXaXaXaXaXaXaXaXaXaXaXaXaXaXaXaXaXaXaXaXaXaXaXaXaXaXaXaXaXaXaXaXaXaXaX",
"aXaXaXaXaXaXaXaXaXaXaXaXaXaXaXaXaXaXaXaXaXaXaXaXaXaXaXaXaXaXaXaXaXaXaXaXaXaXaXaXaXaXaXaXaXaXaXaXaXaX"
};
