/* XPM */
static char *result[] = {
/* columns rows colors chars-per-pixel */
"50 50 139 2 ",
"   c #1E1E1E",
".  c #252826",
"X  c #27272B",
"o  c #262829",
"O  c #2A2B2D",
"+  c #2D2D30",
"@  c #2D3032",
"#  c #323335",
"$  c #35363A",
"%  c #36383B",
"&  c #3A3B3E",
"*  c #3E3D33",
"=  c #584515",
"-  c #644311",
";  c #74601D",
":  c #564426",
">  c #45443C",
",  c #554A38",
"<  c #6A562A",
"1  c #715922",
"2  c #625030",
"3  c #696138",
"4  c #78693A",
"5  c #3C3E42",
"6  c #3E4245",
"7  c #414244",
"8  c #4C4844",
"9  c #44454A",
"0  c #46494D",
"q  c #4A4A4E",
"w  c #504E44",
"e  c #535247",
"r  c #5E5749",
"t  c #56524D",
"y  c #464A50",
"u  c #4B4D53",
"i  c #4E5156",
"p  c #4F535C",
"a  c #515355",
"s  c #5B5956",
"d  c #51545B",
"f  c #54585D",
"g  c #625E42",
"h  c #625F5A",
"j  c #63614D",
"k  c #7F7D44",
"l  c #63625E",
"z  c #676455",
"x  c #776E57",
"c  c #726959",
"v  c #565961",
"b  c #5A5C63",
"n  c #5D6066",
"m  c #5E6369",
"M  c #576C73",
"N  c #636865",
"B  c #61656C",
"V  c #65696E",
"C  c #6A6C6C",
"Z  c #6F716C",
"A  c #73746D",
"S  c #7E7B64",
"D  c #636670",
"F  c #666A73",
"G  c #696D75",
"H  c #6D7179",
"J  c #73777F",
"K  c #8C611E",
"L  c #996B18",
"P  c #95711E",
"I  c #A16F13",
"U  c #B57F17",
"Y  c #896D29",
"T  c #836A2A",
"R  c #88792F",
"E  c #8A712B",
"W  c #977528",
"Q  c #927834",
"!  c #A07F35",
"~  c #817E40",
"^  c #8E7C45",
"/  c #817A57",
"(  c #817F7B",
")  c #79857A",
"_  c #9B8120",
"`  c #988F29",
"'  c #9F8734",
"]  c #AA8E24",
"[  c #AC892B",
"{  c #BA9E2C",
"}  c #BFAB20",
"|  c #CF9D1A",
" . c #E7AB18",
".. c #CBA52F",
"X. c #CEAA2B",
"o. c #C0B42A",
"O. c #D7B32D",
"+. c #DBB428",
"@. c #EFC11C",
"#. c #F6C017",
"$. c #FECA18",
"%. c #FCC916",
"&. c #FAD017",
"*. c #DDC225",
"=. c #EACA24",
"-. c #8F8241",
";. c #998240",
":. c #998B5B",
">. c #A08C4F",
",. c #A09044",
"<. c #AE974C",
"1. c #AC9A4B",
"2. c #8B8564",
"3. c #8D8979",
"4. c #727780",
"5. c #787C87",
"6. c #787D88",
"7. c #7D838B",
"8. c #649C9A",
"9. c #79A2A3",
"0. c #7AB3AF",
"q. c #80858F",
"w. c #818691",
"e. c #868B95",
"r. c #888D98",
"t. c #8E929D",
"y. c #A39F92",
"u. c #9196A0",
"i. c #979BA7",
"p. c #999EA9",
"a. c #9DA3AF",
"s. c #82BAB3",
"d. c #98B5B3",
"f. c #8CC2BC",
"g. c #99CFC8",
"h. c #8BE0D6",
"j. c #B2FDF0",
"k. c #C1F4ED",
"l. c None",
/* pixels */
"l.l.l.l.l.l.l.l.l.l.l.l.l.l.l.l.l.l.l.l.l.l.l.l.l.l.l.l.l.l.l.l.l.l.l.l.l.l.l.l.l.l.l.l.l.l.l.l.l.l.",
"l.l.l.l.l.l.l.l.l.l.l.l.l.l.l.l.l.l.l.l.l.l.l.l.l.l.l.l.l.l.l.l.l.l.l.l.l.l.l.l.l.l.l.l.l.l.l.l.l.l.",
"l.l.l.l.l.l.l.l.l.l.l.l.l.l.l.l.l.l.l.l.l.l.l.l.l.l.l.l.l.l.l.l.l.l.l.l.l.l.l.l.l.l.l.l.l.l.l.l.l.l.",
"l.l.l.l.l.l.l.l.l.l.l.l.l.l.l.l.l.l.l.l.l.l.l.l.l.l.l.l.l.l.l.l.l.l.l.l.l.l.l.l.l.l.l.l.l.l.l.l.l.l.",
"l.l.l.l.l.l.l.l.l.l.l.l.l.l.l.l.l.l.l.l.l.l.l.l.l.l.l.l.l.l.l.l.l.l.l.l.l.l.l.l.l.l.l.l.l.l.l.l.l.l.",
"l.l.l.l.l.l.l.l.l.l.l.l.l.l.l.l.l.l.l.l.l.l.l.l.l.l.l.l.l.l.l.l.l.l.l.l.l.l.l.l.l.l.l.l.l.l.l.l.l.l.",
"l.l.l.l.l.l.l.l.l.l.l.l.l.l.l.l.l.l.l.l.l.l.l.l.l.l.l.l.l.l.l.l.l.l.l.l.l.l.l.l.l.l.l.l.l.l.l.l.l.l.",
"l.l.l.l.l.l.l.l.l.l.l.l.l.l.l.l.l.l.l.l.l.l.l.l.l.l.l.l.l.l.l.l.l.l.l.l.l.l.l.l.l.l.l.l.l.l.l.l.l.l.",
"l.l.l.l.l.l.l.l.l.l.l.l.l.l.l.l.l.l.l.l.l.l.l.l.l.l.l.l.l.l.l.l.l.l.l.l.l.l.l.l.l.l.l.l.l.l.l.l.l.l.",
"l.l.l.l.l.l.l.l.l.l.l.l.l.l.l.l.l.l.l.l.l.l.l.l.l.l.l.l.l.l.l.l.l.l.l.l.l.l.l.l.l.l.l.l.l.l.l.l.l.l.",
"l.l.l.l.l.l.l.l.l.l.l.l.l.l.l.l.l.l.l.l.l.l.l.% b V G J V 5 l.l.l.l.l.l.l.l.l.l.l.l.l.l.l.l.l.l.l.l.",
"l.l.l.l.l.l.l.l.l.l.l.l.l.l.l.l.l.l.l.l.l.3 N F F F G F H q.t.F l.l.l.l.l.l.l.l.l.l.l.l.l.l.l.l.l.l.",
"l.l.l.l.l.l.l.l.l.l.l.l.l.l.l.l.l.l.l.l.l.= T Q ' >.2.C F F w.a.u.y l.l.l.l.l.l.l.l.l.l.l.l.l.l.l.l.",
"l.l.l.l.l.l.l.l.l.l.l.l.l.l.l.l.l.l.l.l.l.l.0 B b c 1 [ <.Z 7.a.a.i.5 l.l.l.l.l.l.l.l.l.l.l.l.l.l.l.",
"l.l.l.l.l.l.l.l.l.l.l.l.l.l.l.l.l.l.l.l.l.y b F G H V & < ..S e.p.e.w.l.l.l.l.l.l.l.l.l.l.l.l.l.l.l.",
"l.l.l.l.l.l.l.l.l.l.l.l.l.l.l.l.l.l.l.l.X y b G F F 5.G u : O.Z F 4.a.9 l.l.l.l.l.l.l.l.l.l.l.l.l.l.",
"l.l.l.l.l.l.l.l.l.l.l.l.l.l.l.l.l.l.l._ =.*.} ` k n G 6.u 9 P <.F H r.F l.l.l.l.l.l.l.l.l.l.l.l.l.l.",
"l.l.l.l.l.l.l.l.l.l.l.l.l.l.l.l.l.l.l.I  .#.$.%.&.R G G F 9 2 O.F G F V l.l.l.l.l.l.l.l.l.l.l.l.l.l.",
"l.l.l.l.l.l.l.l.l.l.l.l.l.l.l.l.l.l.l.- K L U | =.} M F 9.g.) ' m F G y l.l.l.l.l.l.l.l.l.l.l.l.l.l.",
"l.l.l.l.l.l.l.l.l.l.l.l.l.l.l.l.l.l.l.l.d f W < 7 z B F M h.j.k.d.m u l.l.l.l.l.l.l.l.l.l.l.l.l.l.l.",
"l.l.l.l.l.l.l.l.l.l.l.l.l.l.l.l.l.l.l.l.5 d E _ u v G F m 7 8.f.s.0.y l.l.l.l.l.l.l.l.l.l.l.l.l.l.l.",
"l.l.l.l.l.l.l.l.l.l.l.l.l.l.l.l.l.l.l.l.$ V r +.> u b G F 5 B F G H b l.l.l.l.l.l.l.l.l.l.l.l.l.l.l.",
"l.l.l.l.l.l.l.l.l.l.l.l.l.l.l.l.l.l.l.l.l.0 d Y ] 5 y a p 5 b G F G b l.l.l.l.l.l.l.l.l.l.l.l.l.l.l.",
"l.l.l.l.l.l.l.l.l.l.l.l.l.l.l.l.l.l.l.l.l.l.9 q W , y y F H b v G b l.l.l.l.l.l.l.l.l.l.l.l.l.l.l.l.",
"l.l.l.l.l.l.l.l.l.l.l.l.l.l.l.l.l.l.l.l.l.l.l.% * $ u u d D H m 5 l.l.l.l.l.l.l.l.l.l.l.l.l.l.l.l.l.",
"l.l.l.l.l.l.l.l.l.l.l.l.l.l.l.l.l.l.l.l.l.l.O q a 9 $ 5 u u b G d l.l.l.l.l.l.l.l.l.l.l.l.l.l.l.l.l.",
"l.l.l.l.l.l.l.l.l.l.l.l.l.l.l.l.l.l.l.l.X @ & a 5.w.u u   + 5 5 l.l.l.l.l.l.l.l.l.l.l.l.l.l.l.l.l.l.",
"l.l.l.l.l.l.l.l.l.l.l.l.l.l.l.l.l.l.# # y & u f F Z g ( l l.l.l.l.l.l.l.l.l.l.l.l.l.l.l.l.l.l.l.l.l.",
"l.l.l.l.l.l.l.l.l.l.l.l.l.l.l.l.l.+ b # u & B q C ,.> 9 s l.l.l.l.l.l.l.l.l.l.l.l.l.l.l.l.l.l.l.l.l.",
"l.l.l.l.l.l.l.l.l.l.l.l.l.l.l.l.l.q G b 9 s f B $ $ u 7 u F i # 7 @ l.l.l.l.l.l.l.l.l.l.l.l.l.l.l.l.",
"l.l.l.l.l.l.l.l.l.l.l.l.l.l.l.l.l.u d G q l u V 8 * & N A V G f 6 5 l.l.l.l.l.l.l.l.l.l.l.l.l.l.l.l.",
"l.l.l.l.l.l.l.l.l.l.l.l.l.l.l.l.l.$ 9 $ $ i f a 0 :.$ B / V 2.e + l.l.l.l.l.l.l.l.l.l.l.l.l.l.l.l.l.",
"l.l.l.l.l.l.l.l.l.l.l.l.l.l.l.l.l.7 u % u y 9 v d x s X $ 9 # l.l.l.l.l.l.l.l.l.l.l.l.l.l.l.l.l.l.l.",
"l.l.l.l.l.l.l.l.l.l.l.l.l.l.l.l.l.O O % p d p u h y.$ l.l.l.l.l.l.l.l.l.l.l.l.l.l.l.l.l.l.l.l.l.l.l.",
"l.l.l.l.l.l.l.l.l.l.l.l.l.l.l.O l.l.l.9 p p p v w 3.l.l.l.l.l.l.l.l.l.l.l.l.l.l.l.l.l.l.l.l.l.l.l.l.",
"l.l.l.l.l.l.l.l.l.l.l.l.l.l.O d u $ o p p p 5 5 5 & l.l.l.l.l.l.l.l.l.l.l.l.l.l.l.l.l.l.l.l.l.l.l.l.",
"l.l.l.l.l.l.l.l.l.l.l.l.l.l.u q G G 5 d p i % u d p 5 l.l.l.l.l.l.l.l.l.l.l.l.l.l.l.l.l.l.l.l.l.l.l.",
"l.l.l.l.l.l.l.l.l.l.l.l.l.l.4 X.h G 9 p p % l.0 p p p l.l.l.l.l.l.l.l.l.l.l.l.l.l.l.l.l.l.l.l.l.l.l.",
"l.l.l.l.l.l.l.l.l.l.l.l.l.l.l.; { ^ 0 d 9 l.l.l.i p u g l.l.l.l.l.l.l.l.l.l.l.l.l.l.l.l.l.l.l.l.l.l.",
"l.l.l.l.l.l.l.l.l.l.l.l.l.l.l.l.l.-.$ % l.l.l.l.% p 6 ' R l.l.l.l.l.l.l.l.l.l.l.l.l.l.l.l.l.l.l.l.l.",
"l.l.l.l.l.l.l.l.l.l.l.l.l.l.l.l.l.l.l.l.l.l.l.l.l.7 H z ] l.l.l.l.l.l.l.l.l.l.l.l.l.l.l.l.l.l.l.l.l.",
"l.l.l.l.l.l.l.l.l.l.l.l.l.l.l.l.l.l.l.l.l.l.l.l.l.$ F l X.l.l.l.l.l.l.l.l.l.l.l.l.l.l.l.l.l.l.l.l.l.",
"l.l.l.l.l.l.l.l.l.l.l.l.l.l.l.l.l.l.l.l.l.l.l.l.l.l.0 d t # l.l.l.l.l.l.l.l.l.l.l.l.l.l.l.l.l.l.l.l.",
"l.l.l.l.l.l.l.l.l.l.l.l.l.l.l.l.l.l.l.l.l.l.l.l.l.l.O 5 l.l.l.l.l.l.l.l.l.l.l.l.l.l.l.l.l.l.l.l.l.l.",
"l.l.l.l.l.l.l.l.l.l.l.l.l.l.l.l.l.l.l.l.l.l.l.l.l.l.l.l.l.l.l.l.l.l.l.l.l.l.l.l.l.l.l.l.l.l.l.l.l.l.",
"l.l.l.l.l.l.l.l.l.l.l.l.l.l.l.l.l.l.l.l.l.l.l.l.l.l.l.l.l.l.l.l.l.l.l.l.l.l.l.l.l.l.l.l.l.l.l.l.l.l.",
"l.l.l.l.l.l.l.l.l.l.l.l.l.l.l.l.l.l.l.l.l.l.l.l.l.l.l.l.l.l.l.l.l.l.l.l.l.l.l.l.l.l.l.l.l.l.l.l.l.l.",
"l.l.l.l.l.l.l.l.l.l.l.l.l.l.l.l.l.l.l.l.l.l.l.l.l.l.l.l.l.l.l.l.l.l.l.l.l.l.l.l.l.l.l.l.l.l.l.l.l.l.",
"l.l.l.l.l.l.l.l.l.l.l.l.l.l.l.l.l.l.l.l.l.l.l.l.l.l.l.l.l.l.l.l.l.l.l.l.l.l.l.l.l.l.l.l.l.l.l.l.l.l.",
"l.l.l.l.l.l.l.l.l.l.l.l.l.l.l.l.l.l.l.l.l.l.l.l.l.l.l.l.l.l.l.l.l.l.l.l.l.l.l.l.l.l.l.l.l.l.l.l.l.l."
};
