/* XPM */
static char *result[] = {
/* columns rows colors chars-per-pixel */
"50 50 145 2 ",
"   c #1D1D1D",
".  c #252727",
"X  c #252528",
"o  c #27282A",
"O  c #2A2B2D",
"+  c #2D2E31",
"@  c #2F3031",
"#  c #333335",
"$  c #3F3F33",
"%  c #36363A",
"&  c #36393C",
"*  c #3A3B3E",
"=  c #5B4A19",
"-  c #694817",
";  c #715E1C",
":  c #574528",
">  c #5D4C2C",
",  c #424338",
"<  c #48473F",
"1  c #574C3A",
"2  c #665527",
"3  c #68532A",
"4  c #745A24",
"5  c #796A29",
"6  c #6E653B",
"7  c #796A39",
"8  c #3C3E42",
"9  c #3E4044",
"0  c #414245",
"q  c #4F4B45",
"w  c #44464B",
"e  c #46494D",
"r  c #494A4D",
"t  c #545245",
"y  c #474950",
"u  c #4B4D53",
"i  c #4E4F58",
"p  c #4E5156",
"a  c #4F535B",
"s  c #525356",
"d  c #595551",
"f  c #575855",
"g  c #5A5956",
"h  c #51545B",
"j  c #55585C",
"k  c #59595F",
"l  c #615A48",
"z  c #635E43",
"x  c #685F52",
"c  c #625F58",
"v  c #61614D",
"b  c #64625D",
"n  c #646456",
"m  c #736D5C",
"M  c #787058",
"N  c #565960",
"B  c #595C63",
"V  c #5C6066",
"C  c #5F6369",
"Z  c #586E74",
"A  c #62656C",
"S  c #64696B",
"D  c #6D6F6D",
"F  c #646965",
"G  c #6F706D",
"H  c #7F7A63",
"J  c #75756B",
"K  c #646770",
"L  c #666B73",
"P  c #696D75",
"I  c #6C6F78",
"U  c #6A7076",
"Y  c #6D7179",
"T  c #72767E",
"R  c #8A601C",
"E  c #9A6B19",
"W  c #97721F",
"Q  c #A16F12",
"!  c #856C29",
"~  c #8A6D28",
"^  c #9B7F20",
"/  c #97772E",
"(  c #9B7828",
")  c #927833",
"_  c #8D7A42",
"`  c #847D59",
"'  c #7C887D",
"]  c #B58019",
"[  c #BDA91F",
"{  c #9A8926",
"}  c #9B8330",
"|  c #AA882A",
" . c #B09427",
".. c #B69A2C",
"X. c #A08137",
"o. c #BDB026",
"O. c #D09E1B",
"+. c #E6AA17",
"@. c #C9A527",
"#. c #CBA72C",
"$. c #D5AE22",
"%. c #D7B22D",
"&. c #E0B82E",
"*. c #EEC01A",
"=. c #FDC917",
"-. c #F8C218",
";. c #FAD118",
":. c #E0C427",
">. c #EBC924",
",. c #838044",
"<. c #908644",
"1. c #9A8142",
"2. c #9F9044",
"3. c #96895A",
"4. c #A08D4F",
"5. c #AD974D",
"6. c #AD9C49",
"7. c #8E8762",
"8. c #868266",
"9. c #8D8879",
"0. c #83807D",
"q. c #727781",
"w. c #787D87",
"e. c #7A7E89",
"r. c #7E848C",
"t. c #609998",
"y. c #729C9D",
"u. c #7CB6B1",
"i. c #80858E",
"p. c #808690",
"a. c #858A94",
"s. c #888D98",
"d. c #A49F92",
"f. c #9196A0",
"g. c #9398A1",
"h. c #999DA8",
"j. c #9DA3AF",
"k. c #93AFAD",
"l. c #84BBB4",
"z. c #8CC1BC",
"x. c #A0D4CD",
"c. c #8DE1D7",
"v. c #B1FCEF",
"b. c #C0F3EC",
"n. c None",
/* pixels */
"n.n.n.n.n.n.n.n.n.n.n.n.n.n.n.n.n.n.n.n.n.n.n.n.n.n.n.n.n.n.n.n.n.n.n.n.n.n.n.n.n.n.n.n.n.n.n.n.n.n.",
"n.n.n.n.n.n.n.n.n.n.n.n.n.n.n.n.n.n.n.n.n.n.n.n.n.n.n.n.n.n.n.n.n.n.n.n.n.n.n.n.n.n.n.n.n.n.n.n.n.n.",
"n.n.n.n.n.n.n.n.n.n.n.n.n.n.n.n.n.n.n.n.n.n.n.n.n.n.n.n.n.n.n.n.n.n.n.n.n.n.n.n.n.n.n.n.n.n.n.n.n.n.",
"n.n.n.n.n.n.n.n.n.n.n.n.n.n.n.n.n.n.n.n.n.n.n.n.n.n.n.n.n.n.n.n.n.n.n.n.n.n.n.n.n.n.n.n.n.n.n.n.n.n.",
"n.n.n.n.n.n.n.n.n.n.n.n.n.n.n.n.n.n.n.n.n.n.n.n.n.n.n.n.n.n.n.n.n.n.n.n.n.n.n.n.n.n.n.n.n.n.n.n.n.n.",
"n.n.n.n.n.n.n.n.n.n.n.n.n.n.n.n.n.n.n.n.n.n.n.n.n.n.n.n.n.n.n.n.n.n.n.n.n.n.n.n.n.n.n.n.n.n.n.n.n.n.",
"n.n.n.n.n.n.n.n.n.n.n.n.n.n.n.n.n.n.n.n.n.n.n.n.n.n.n.n.n.n.n.n.n.n.n.n.n.n.n.n.n.n.n.n.n.n.n.n.n.n.",
"n.n.n.n.n.n.n.n.n.n.n.n.n.n.n.n.n.n.n.n.n.n.n.n.n.n.n.n.n.n.n.n.n.n.n.n.n.n.n.n.n.n.n.n.n.n.n.n.n.n.",
"n.n.n.n.n.n.n.n.n.n.n.n.n.n.n.n.n.n.n.n.n.n.n.n.n.n.n.n.n.n.n.n.n.n.n.n.n.n.n.n.n.n.n.n.n.n.n.n.n.n.",
"n.n.n.n.n.n.n.n.n.n.n.n.n.n.n.n.n.n.n.n.n.n.n.n.n.n.n.n.n.n.n.n.n.n.n.n.n.n.n.n.n.n.n.n.n.n.n.n.n.n.",
"n.n.n.n.n.n.n.n.n.n.n.n.n.n.n.n.n.n.n.n.* I T I K k * n.n.n.n.n.n.n.n.n.n.n.n.n.n.n.n.n.n.n.n.n.n.n.",
"n.n.n.n.n.n.n.n.n.n.n.n.n.n.n.n.n.n.A f.p.I L K L L L F 6 n.n.n.n.n.n.n.n.n.n.n.n.n.n.n.n.n.n.n.n.n.",
"n.n.n.n.n.n.n.n.n.n.n.n.n.n.n.n.y g.j.i.L P G 7.4._ ) ! = n.n.n.n.n.n.n.n.n.n.n.n.n.n.n.n.n.n.n.n.n.",
"n.n.n.n.n.n.n.n.n.n.n.n.n.n.n.8 h.j.j.r.G 5.| 4 n A C r o n.n.n.n.n.n.n.n.n.n.n.n.n.n.n.n.n.n.n.n.n.",
"n.n.n.n.n.n.n.n.n.n.n.n.n.n.n.a.a.h.s.` @.3 8 A T L L B w n.n.n.n.n.n.n.n.n.n.n.n.n.n.n.n.n.n.n.n.n.",
"n.n.n.n.n.n.n.n.n.n.n.n.n.n.w j.q.P P &.: u L e.L L P B r . n.n.n.n.n.n.n.n.n.n.n.n.n.n.n.n.n.n.n.n.",
"n.n.n.n.n.n.n.n.n.n.n.n.n.n.K s.I L 6.( w p r.U V ,.{ [ :.>.{ n.n.n.n.n.n.n.n.n.n.n.n.n.n.n.n.n.n.n.",
"n.n.n.n.n.n.n.n.n.n.n.n.n.n.A L P L %.: w C P L ,.;.=.=.-.+.Q n.n.n.n.n.n.n.n.n.n.n.n.n.n.n.n.n.n.n.",
"n.n.n.n.n.n.n.n.n.n.n.n.n.n.u P L B X.' x.y.L C o.*.O.] E R - n.n.n.n.n.n.n.n.n.n.n.n.n.n.n.n.n.n.n.",
"n.n.n.n.n.n.n.n.n.n.n.n.n.n.X p S k.b.v.c.Z L A n 0 2 / N s n.n.n.n.n.n.n.n.n.n.n.n.n.n.n.n.n.n.n.n.",
"n.n.n.n.n.n.n.n.n.n.n.n.n.n.n.p u.l.z.t.8 A L L k u { ~ a 9 n.n.n.n.n.n.n.n.n.n.n.n.n.n.n.n.n.n.n.n.",
"n.n.n.n.n.n.n.n.n.n.n.n.n.n.n.k T L C A 9 L L B u < $.l C & n.n.n.n.n.n.n.n.n.n.n.n.n.n.n.n.n.n.n.n.",
"n.n.n.n.n.n.n.n.n.n.n.n.n.n.n.B L L P V 8 a p y *  .~ h e n.n.n.n.n.n.n.n.n.n.n.n.n.n.n.n.n.n.n.n.n.",
"n.n.n.n.n.n.n.n.n.n.n.n.n.n.n.n.B L B N Y A p r 1 ( e w n.n.n.n.n.n.n.n.n.n.n.n.n.n.n.n.n.n.n.n.n.n.",
"n.n.n.n.n.n.n.n.n.n.n.n.n.n.n.n.n.8 A I K a y y # * * n.n.n.n.n.n.n.n.n.n.n.n.n.n.n.n.n.n.n.n.n.n.n.",
"n.n.n.n.n.n.n.n.n.n.n.n.n.n.n.n.n.j P B i y 8 8 r s w @ n.n.n.n.n.n.n.n.n.n.n.n.n.n.n.n.n.n.n.n.n.n.",
"n.n.n.n.n.n.n.n.n.n.n.n.n.n.n.n.n.n.8 8 +   a i i.e.p 8 + O n.n.n.n.n.n.n.n.n.n.n.n.n.n.n.n.n.n.n.n.",
"n.n.n.n.n.n.n.n.n.n.n.n.n.n.n.n.n.n.n.n.n.s ` v J L j u 8 u # # n.n.n.n.n.n.n.n.n.n.n.n.n.n.n.n.n.n.",
"n.n.n.n.n.n.n.n.n.n.n.n.n.n.n.n.n.n.n.n.n.g w , 4.S u V * u % N O n.n.n.n.n.n.n.n.n.n.n.n.n.n.n.n.n.",
"n.n.n.n.n.n.n.n.n.n.n.n.n.n.n.n.# 9 % u S a w u # % A N f w B L e n.n.n.n.n.n.n.n.n.n.n.n.n.n.n.n.n.",
"n.n.n.n.n.n.n.n.n.n.n.n.n.n.n.n.% 0 j U A J C * , q S u b p Y p p n.n.n.n.n.n.n.n.n.n.n.n.n.n.n.n.n.",
"n.n.n.n.n.n.n.n.n.n.n.n.n.n.n.n.n.# t 8.S ` S # 3.q u s j # # w & n.n.n.n.n.n.n.n.n.n.n.n.n.n.n.n.n.",
"n.n.n.n.n.n.n.n.n.n.n.n.n.n.n.n.n.n.n.# e # X b M s B r y u * u 8 n.n.n.n.n.n.n.n.n.n.n.n.n.n.n.n.n.",
"n.n.n.n.n.n.n.n.n.n.n.n.n.n.n.n.n.n.n.n.n.n.n.# d.b u a a a % + O n.n.n.n.n.n.n.n.n.n.n.n.n.n.n.n.n.",
"n.n.n.n.n.n.n.n.n.n.n.n.n.n.n.n.n.n.n.n.n.n.n.n.9.q a j a a w n.n.n.O n.n.n.n.n.n.n.n.n.n.n.n.n.n.n.",
"n.n.n.n.n.n.n.n.n.n.n.n.n.n.n.n.n.n.n.n.n.n.n.n.8 8 8 8 a a a o # u h @ n.n.n.n.n.n.n.n.n.n.n.n.n.n.",
"n.n.n.n.n.n.n.n.n.n.n.n.n.n.n.n.n.n.n.n.n.n.n.8 a a i & a a h * P P u r n.n.n.n.n.n.n.n.n.n.n.n.n.n.",
"n.n.n.n.n.n.n.n.n.n.n.n.n.n.n.n.n.n.n.n.n.n.n.i a a y n.& a h w P c @.7 n.n.n.n.n.n.n.n.n.n.n.n.n.n.",
"n.n.n.n.n.n.n.n.n.n.n.n.n.n.n.n.n.n.n.n.n.n.z u a u n.n.n.0 a w _ ..; n.n.n.n.n.n.n.n.n.n.n.n.n.n.n.",
"n.n.n.n.n.n.n.n.n.n.n.n.n.n.n.n.n.n.n.n.n.5 } e a 8 n.n.n.n.& % <.n.n.n.n.n.n.n.n.n.n.n.n.n.n.n.n.n.",
"n.n.n.n.n.n.n.n.n.n.n.n.n.n.n.n.n.n.n.n.n. .m Y 8 n.n.n.n.n.n.n.n.n.n.n.n.n.n.n.n.n.n.n.n.n.n.n.n.n.",
"n.n.n.n.n.n.n.n.n.n.n.n.n.n.n.n.n.n.n.n.n.#.d L & n.n.n.n.n.n.n.n.n.n.n.n.n.n.n.n.n.n.n.n.n.n.n.n.n.",
"n.n.n.n.n.n.n.n.n.n.n.n.n.n.n.n.n.n.n.n.+ d B w n.n.n.n.n.n.n.n.n.n.n.n.n.n.n.n.n.n.n.n.n.n.n.n.n.n.",
"n.n.n.n.n.n.n.n.n.n.n.n.n.n.n.n.n.n.n.n.n.n.8 + n.n.n.n.n.n.n.n.n.n.n.n.n.n.n.n.n.n.n.n.n.n.n.n.n.n.",
"n.n.n.n.n.n.n.n.n.n.n.n.n.n.n.n.n.n.n.n.n.n.n.n.n.n.n.n.n.n.n.n.n.n.n.n.n.n.n.n.n.n.n.n.n.n.n.n.n.n.",
"n.n.n.n.n.n.n.n.n.n.n.n.n.n.n.n.n.n.n.n.n.n.n.n.n.n.n.n.n.n.n.n.n.n.n.n.n.n.n.n.n.n.n.n.n.n.n.n.n.n.",
"n.n.n.n.n.n.n.n.n.n.n.n.n.n.n.n.n.n.n.n.n.n.n.n.n.n.n.n.n.n.n.n.n.n.n.n.n.n.n.n.n.n.n.n.n.n.n.n.n.n.",
"n.n.n.n.n.n.n.n.n.n.n.n.n.n.n.n.n.n.n.n.n.n.n.n.n.n.n.n.n.n.n.n.n.n.n.n.n.n.n.n.n.n.n.n.n.n.n.n.n.n.",
"n.n.n.n.n.n.n.n.n.n.n.n.n.n.n.n.n.n.n.n.n.n.n.n.n.n.n.n.n.n.n.n.n.n.n.n.n.n.n.n.n.n.n.n.n.n.n.n.n.n.",
"n.n.n.n.n.n.n.n.n.n.n.n.n.n.n.n.n.n.n.n.n.n.n.n.n.n.n.n.n.n.n.n.n.n.n.n.n.n.n.n.n.n.n.n.n.n.n.n.n.n."
};
