/* XPM */
static char *result[] = {
/* columns rows colors chars-per-pixel */
"50 50 233 2 ",
"   c black",
".  c gray2",
"X  c #060606",
"o  c #070707",
"O  c gray3",
"+  c #090909",
"@  c gray4",
"#  c #0B0B0B",
"$  c #0F0D0A",
"%  c #0C0C0C",
"&  c gray5",
"*  c #0E0E0E",
"=  c #0F0F0E",
"-  c gray6",
";  c #10100F",
":  c #16150F",
">  c #0F0F10",
",  c #101010",
"<  c #111110",
"1  c #111111",
"2  c #121112",
"3  c gray7",
"4  c #131312",
"5  c #131313",
"6  c #151313",
"7  c #121411",
"8  c #131514",
"9  c #131515",
"0  c gray8",
"q  c #151414",
"w  c #151515",
"e  c #161516",
"r  c #161616",
"t  c #171716",
"y  c gray9",
"u  c #191515",
"i  c #171A17",
"p  c #181814",
"a  c #181816",
"s  c #161618",
"d  c #171718",
"f  c #19171B",
"g  c #181818",
"h  c #181819",
"j  c #191819",
"k  c #191919",
"l  c #1A1B18",
"z  c #1A1A19",
"x  c #1B1A19",
"c  c gray10",
"v  c #1B1B1B",
"b  c #1D1D19",
"n  c #1B1B1D",
"m  c gray11",
"M  c #1C1D1D",
"N  c #1D1D1D",
"B  c #1E1E1E",
"V  c gray12",
"C  c #1F211D",
"Z  c #1E211F",
"A  c #1F241F",
"S  c #21201D",
"D  c #1F1F20",
"F  c #1B2C28",
"G  c #11322B",
"H  c #1B322A",
"J  c #202020",
"K  c gray13",
"L  c #222222",
"P  c #232323",
"I  c #242323",
"U  c #262522",
"Y  c gray14",
"T  c #252625",
"R  c #272527",
"E  c #272727",
"W  c #292626",
"Q  c #272729",
"!  c #282828",
"~  c #2A2829",
"^  c #2A2A2A",
"/  c #2F2E2A",
"(  c #2C2B2C",
")  c #2E2C2E",
"_  c #322D29",
"`  c #302F30",
"'  c gray19",
"]  c #313131",
"[  c #323131",
"{  c #353535",
"}  c #363435",
"|  c gray21",
" . c #373737",
".. c #393535",
"X. c #393536",
"o. c #3C3D36",
"O. c #3F3D36",
"+. c #393939",
"@. c #3A3A3A",
"#. c #3B3B3A",
"$. c gray23",
"%. c #3E3D3A",
"&. c gray24",
"*. c #3E3E3E",
"=. c #3F3F3F",
"-. c #054E39",
";. c #27453D",
":. c #41413B",
">. c #175344",
",. c #364845",
"<. c #2B504A",
"1. c #3C514D",
"2. c #365C4F",
"3. c #265F52",
"4. c #2A5E50",
"5. c #385951",
"6. c #3D5852",
"7. c #306556",
"8. c #2D715D",
"9. c #32715E",
"0. c #327061",
"q. c #3C7768",
"w. c #337F6C",
"e. c gray25",
"r. c #404141",
"t. c #434343",
"y. c #444444",
"u. c #444544",
"i. c #444445",
"p. c #474745",
"a. c #464646",
"s. c gray28",
"d. c #474748",
"f. c #474649",
"g. c #474749",
"h. c #494949",
"j. c #4B4B4B",
"k. c #4C4B4C",
"l. c #4C4B4D",
"z. c #41524B",
"x. c #4C5554",
"c. c #4C5A55",
"v. c #525052",
"b. c #545252",
"n. c gray33",
"m. c #545654",
"M. c #575557",
"N. c #525C57",
"B. c gray35",
"V. c #5B5A59",
"C. c #5A5A5A",
"Z. c #5F5F5F",
"A. c #605B5E",
"S. c #64645D",
"D. c #615F62",
"F. c #4A6C64",
"G. c #577875",
"H. c #5D7C77",
"J. c #606060",
"K. c #626262",
"L. c #676767",
"P. c #6D6D6E",
"I. c gray43",
"U. c #6F6F6F",
"Y. c #6D7874",
"T. c #717171",
"R. c gray45",
"E. c #737473",
"W. c #747474",
"Q. c gray50",
"!. c #148564",
"~. c #1C8D6D",
"^. c #139775",
"/. c #24866B",
"(. c #2D876E",
"). c #3B836B",
"_. c #2E8570",
"`. c #3B8370",
"'. c #318C76",
"]. c #22977A",
"[. c #2B9D7C",
"{. c #4A8274",
"}. c #458976",
"|. c #438A78",
" X c #508F7F",
".X c #49947D",
"XX c #81807B",
"oX c #539481",
"OX c #5B9A87",
"+X c #569A88",
"@X c #5F998B",
"#X c #629889",
"$X c #45A18B",
"%X c #59A68F",
"&X c #4AA991",
"*X c #56B097",
"=X c #54BEA5",
"-X c #0DD19C",
";X c #11D09D",
":X c #15D1A0",
">X c #1DE1AC",
",X c #18E5AD",
"<X c #20EFB6",
"1X c #52C5A4",
"2X c #4ECCB0",
"3X c #70C5AD",
"4X c #79C7B4",
"5X c #7ADCBF",
"6X c #36F4C2",
"7X c #36F5C2",
"8X c #4EF1C8",
"9X c #59F3CB",
"0X c #5AF1CE",
"qX c #7BF8DD",
"wX c gray51",
"eX c #828584",
"rX c #848484",
"tX c gray53",
"yX c #888888",
"uX c gray55",
"iX c #8E8E8E",
"pX c #909090",
"aX c #9C9B97",
"sX c #9F9E9C",
"dX c #81B8AE",
"fX c #80B7B0",
"gX c #89BCB1",
"hX c #9EBCBB",
"jX c #A8A6A8",
"kX c #A2DED0",
"lX c #89E2D0",
"zX c #80EBD2",
"xX c None",
/* pixels */
"xXxXxXxXxXxXxXxXxXxXxXxXxXxXxXxXxXxXxXxXxXxXxXxXxXxXxXxXxXxXxXxXxXxXxXxXxXxXxXxXxXxXxXxXxXxXxXxXxXxX",
"xXxXxXxXxXxXxXxXxXxXxXxXxXxXxXxXxXxXxXxXxXxXxXxXxXxXxXxXxXxXxXxXxXxXxXxXxXxXxXxXxXxXxXxXxXxXxXxXxXxX",
"xXxXxXxXxXxXxXxXxXxXxXxXxXxXxXxXxXxXxXxXxXxXxXxXxXxXxXxXxXxXxXxXxXxXxXxXxXxXxXxXxXxXxXxXxXxXxXxXxXxX",
"xXxXxXxXxXxXxXxXxXxXxXxXxXxXxXxXxXxXxXxXxXxXxXxXxXxXxXxXxXxXxXxXxXxXxXxXxXxXxXxXxXxXxXxXxXxXxXxXxXxX",
"xXxXxXxXxXxXxXxXxXxXxXxXxXxXxXxXxXxXxXxXxXxXxXxXxXxXxXxXxXxXxXxXxXxXxXxXxXxXxXxXxXxXxXxXxXxXxXxXxXxX",
"xXxXxXxXxXxXxXxXxXxXxXxXxXxXxXxXxXxXxXxXxXxXxXxXxXxXxXxXxXxXxXxXxXxXxXxXxXxXxXxXxXxXxXxXxXxXxXxXxXxX",
"xXxXxXxXxXxXxXxXxXxXxXxXxXxXxXxXxXxXxXxXxXxXxXxXxXxXxXxXxXxXxXxXxXxXxXxXxXxXxXxXxXxXxXxXxXxXxXxXxXxX",
"xXxXxXxXxXxXxXxXxXxXxXxXxXxXxXxXxXxXxXxXxXxXxXxXxXxXxXxXxXxXxXxXxXxXxXxXxXxXxXxXxXxXxXxXxXxXxXxXxXxX",
"xXxXxXxXxXxXxXxXxXxXxXxXxXxXxXxXxXxXxXxXxXxXxXxXxXxXxXxXxXxXxXxXxXxXxXxXxXxXxXxXxXxXxXxXxXxXxXxXxXxX",
"xXxXxXxXxXxXxXxXxXxXxXxXxXxXxXxXxXxXxXxXxXxXxXxXxXxXxXxXxXxXxXxXxXxXxXxXxXxXxXxXxXxXxXxXxXxXxXxXxXxX",
"xXxXxXxXxXxXxXxXxXxXxXxXxXxXxXxXxXxXxXxXxXxXxXxXxXxXxXxXxXxXxXxXxXxXxXxXxXxXxXxXxXxXxXxXxXxXxXxXxXxX",
"xXxXxXxXxXxXxXxXxXxXxXxXxXxXxXxXxXxXxXxXxXxXxXxXxXxXxXxXxXxXxXxXxXxXxXxXxXxXxXxXxXxXxXxXxXxXxXxXxXxX",
"xXxXxXxXxXxXxXxXxXxXxXxXxXxXxXxXxXxXxXxXxXxXxXxXxXxXxXxXxXxXxXxXxXxXxXxXxXxXxXxXxXxXxXxXxXxXxXxXxXxX",
"xXxXxXxXxXxXxXxXxXxXxXxXxXxXxXxXxXxXxXxXxXxXxXxXxXxXxXxXxXxXxXxXxXxXxXxXxXxXxXxXxXxXxXxXxXxXxXxXxXxX",
"xXxXxXxXxXxXxXxXxXxXxXxXxXxXxXxXxXxXxXxXxXxXxXxXxXxXxXxXxXxXxXxXxXxXxXxXxXxXxXxXxXxXxXxXxXxXxXxXxXxX",
"xXxXxXxXxXxXxXxXxXxXxXxXxXxXxXxXxXxXxXxXxXxXxXxXxXxXxXxXxXxXxXxXxXxXxXxXxXxXxXxXxXxXxXxXxXxXxXxXxXxX",
"xXxXxXxXxXxXxXxXxXxXxXxXxXxXxXxXxXxXxXxXxXxXxXxXxXxXxXxXxXxXxXxXxXxXxXxXxXxXxXxXxXxXxXxXxXxXxXxXxXxX",
"xXxXxXxXxXxXxXxXxXxXxXxXxXxXxXxXxXxXxXxXxXxXxXxXxXxXxXxXxXxXxXxXxXxXxXxXxXxXxXxXxXxXxXxXxXxXxXxXxXxX",
"xXxXxXxXxX7.F.6.xXxXxXxXxXxXJ.K.j.xXxXxXxXxXxXxXxXxXxXxXxXxXxXxXxXxXxXxXxXxXxXxXxXxXxXxXxXxXxXxXxXxX",
"xXxX%X3XxX<.gXhXG.xXxXxXu #.eXrXQ.t xXxXxXxXxXxXxXxXxXxXxXxXxXxXxXxXxXxXxXxXxXxXxXxXxXxXxXxXxXxXxXxX",
"xX).@X3.5X*X~.9XfXoXxXxXA ..P.T.L.P * xXxXxXxXxXxXxXxXxXxXxXxXxXxXxXxXxXxXxXxXxXxXxXxXxXxXxXxXxXxXxX",
"xX4.kX/.1X.X-.,XqXOXxXxXZ ` A.Z.C.D > xXxXxXxXxXxXxXxXxXxXxXxXxXxXxXxXxXxXxXxXxXxXxXxXxXxXxXxXxXxXxX",
"xX{.zX!.>.F G -X6X4X+XxXW Z I J ] Y > xXxXxXxXxXxXxXxXxXxXxXxXxXxXxXxXxXxXxXxXxXxXxXxXxXxXxXxXxXxXxX",
"xXq.lX<X^.;.c.[.>X2X9.xXC $ 7 d 4 l a xXxXxXxXxXxXxXxXxXxXxXxXxXxXxXxXxXxXxXxXxXxXxXxXxXxXxXxXxXxXxX",
"xX#XdX7X;Xw.N.2.].=XY.XXO._ i q U :.o.S.xXxXxXxXxXxXxXxXxXxXxXxXxXxXxXxXxXxXxXxXxXxXxXxXxXxXxXxXxXxX",
"xXxX X0X:X0.x.z.8.H.jXaX: S [ ( %.p / sXxXxXxXxXxXxXxXxXxXxXxXxXxXxXxXxXxXxXxXxXxXxXxXxXxXxXxXxXxXxX",
"xXxX}.$X8X_.1.8 H ,.V.v.f ) M.l.b.x R D.xXxXxXxXxXxXxXxXxXxXxXxXxXxXxXxXxXxXxXxXxXxXxXxXxXxXxXxXxXxX",
"xXxXxX(.'.&X5.X.*.6 b = s ! p.p.p.z < xXxXxXxXxXxXxXxXxXxXxXxXxXxXxXxXxXxXxXxXxXxXxXxXxXxXxXxXxXxXxX",
"xXxXxXxX`.|.xXm.} 9 N ; t P a.s.i.r 1 xXxXxXxXxXxXxXxXxXxXxXxXxXxXxXxXxXxXxXxXxXxXxXxXxXxXxXxXxXxXxX",
"xXxXxXxXxXxXxXxX~ M n % r Q f.d.g.h k xXxXxXxXxXxXxXxXxXxXxXxXxXxXxXxXxXxXxXxXxXxXxXxXxXxXxXxXxXxXxX",
"xXxXxXxXxXxXxXxX$.k.^ xXy E s.s.s.g w xXxXxXxXxXxXxXxXxXxXxXxXxXxXxXxXxXxXxXxXxXxXxXxXxXxXxXxXxXxXxX",
"xXxXxXxXxXxXxXxXu.E.h.xXy V | { | 0 + xXxXxXxXxXxXxXxXxXxXxXxXxXxXxXxXxXxXxXxXxXxXxXxXxXxXxXxXxXxXxX",
"xXxXxXxXxXxXxXxXT r.L - r c &.=.+.0 @ xXxXxXxXxXxXxXxXxXxXxXxXxXxXxXxXxXxXxXxXxXxXxXxXxXxXxXxXxXxXxX",
"xXxXxXxXxXxXxXxXj e @ X r 0 k w k 5 @ xXxXxXxXxXxXxXxXxXxXxXxXxXxXxXxXxXxXxXxXxXxXxXxXxXxXxXxXxXxXxX",
"xXxXxXxXxXxXxXxXc 2 O O g 0 B N J 0 # xXxXxXxXxXxXxXxXxXxXxXxXxXxXxXxXxXxXxXxXxXxXxXxXxXxXxXxXxXxXxX",
"xXxXxXxXxXxXxXxX@ 0 & o 3 r 3 % r 0 * xXxXxXxXxXxXxXxXxXxXxXxXxXxXxXxXxXxXxXxXxXxXxXxXxXxXxXxXxXxXxX",
"xXxXxXxXxXxXxXxXxXxXB % B V v o V V m # xXxXxXxXxXxXxXxXxXxXxXxXxXxXxXxXxXxXxXxXxXxXxXxXxXxXxXxXxXxX",
"xXxXxXxXxXxXxXxXxXxXxX& V V y . N V m @ xXxXxXxXxXxXxXxXxXxXxXxXxXxXxXxXxXxXxXxXxXxXxXxXxXxXxXxXxXxX",
"xXxXxXxXxXxXxXxXxXxXxX% N V 1   v V c O xXxXxXxXxXxXxXxXxXxXxXxXxXxXxXxXxXxXxXxXxXxXxXxXxXxXxXxXxXxX",
"xXxXxXxXxXxXxXxXxXxXxX@ v B *   k V g O xXxXxXxXxXxXxXxXxXxXxXxXxXxXxXxXxXxXxXxXxXxXxXxXxXxXxXxXxXxX",
"xXxXxXxXxXxXxXxXxXxXxXo r y & xX5 c 0 xXxXxXxXxXxXxXxXxXxXxXxXxXxXxXxXxXxXxXxXxXxXxXxXxXxXxXxXxXxXxX",
"xXxXxXxXxXxXxXxXxXxXxXj.C.t.m xXK e.a.! xXxXxXxXxXxXxXxXxXxXxXxXxXxXxXxXxXxXxXxXxXxXxXxXxXxXxXxXxXxX",
"xXxXxXxXxXxXxXxXxXxXxXW.uXI.m xX@.iXtXt.xXxXxXxXxXxXxXxXxXxXxXxXxXxXxXxXxXxXxXxXxXxXxXxXxXxXxXxXxXxX",
"xXxXxXxXxXxXxXxXxXxXxXU.pXZ.w xXJ tXyXt.xXxXxXxXxXxXxXxXxXxXxXxXxXxXxXxXxXxXxXxXxXxXxXxXxXxXxXxXxXxX",
"xXxXxXxXxXxXxXxXxXxXxXC.iXy.X xX* T.wX@.xXxXxXxXxXxXxXxXxXxXxXxXxXxXxXxXxXxXxXxXxXxXxXxXxXxXxXxXxXxX",
"xXxXxXxXxXxXxXxXxXxXxXB.R.$.xXxX- n.U. .xXxXxXxXxXxXxXxXxXxXxXxXxXxXxXxXxXxXxXxXxXxXxXxXxXxXxXxXxXxX",
"xXxXxXxXxXxXxXxXxXxX- ' @.V xXxX1 ! | g O xXxXxXxXxXxXxXxXxXxXxXxXxXxXxXxXxXxXxXxXxXxXxXxXxXxXxXxXxX",
"xXxXxXxXxXxXxXxXxXxX3 0 y 3 xXxXo w r 3 @ xXxXxXxXxXxXxXxXxXxXxXxXxXxXxXxXxXxXxXxXxXxXxXxXxXxXxXxXxX",
"xXxXxXxXxXxXxXxXxXxX+ 5 y , xXxXo 0 r - o xXxXxXxXxXxXxXxXxXxXxXxXxXxXxXxXxXxXxXxXxXxXxXxXxXxXxXxXxX",
"xXxXxXxXxXxXxXxXxXxXxX. O o xXxXxXo + xXxXxXxXxXxXxXxXxXxXxXxXxXxXxXxXxXxXxXxXxXxXxXxXxXxXxXxXxXxXxX"
};
