/* XPM */
static char *_9e97139a79645bb8ed694224627225cw6ZZpOn2wpipqzXg[] = {
/* columns rows colors chars-per-pixel */
"50 50 174 2 ",
"   c #413549",
".  c #44394D",
"X  c #483B4F",
"o  c #443E52",
"O  c #4A3F53",
"+  c #3E5167",
"@  c #3F576E",
"#  c #3D5A70",
"$  c #444256",
"%  c #4B4256",
"&  c #454559",
"*  c #4B4659",
"=  c #464A5E",
"-  c #4D4A5D",
";  c #504659",
":  c #524B5E",
">  c #444B60",
",  c #4C4E62",
"<  c #524E61",
"1  c #4C5165",
"2  c #4C556A",
"3  c #4B596E",
"4  c #545264",
"5  c #595365",
"6  c #53566A",
"7  c #595669",
"8  c #545A6D",
"9  c #5B5B6C",
"0  c #435D74",
"q  c #4C5C72",
"w  c #535E72",
"e  c #5C5F70",
"r  c #615F71",
"t  c #426279",
"y  c #4A667C",
"u  c #4D6A7F",
"i  c #566276",
"p  c #5B6274",
"a  c #51667C",
"s  c #5B6579",
"d  c #546B7D",
"f  c #5C6A7D",
"g  c #636374",
"h  c #656778",
"j  c #646B7C",
"k  c #6A6B7D",
"l  c #4C6A81",
"z  c #536E82",
"x  c #5A6D81",
"c  c #557184",
"v  c #5A7386",
"b  c #557389",
"n  c #5C7589",
"m  c #5D7A8E",
"M  c #567790",
"N  c #5D7B93",
"B  c #616D83",
"V  c #647183",
"C  c #6A7485",
"Z  c #6C7987",
"A  c #61778B",
"S  c #6C768A",
"D  c #637A8E",
"F  c #6C7B8B",
"G  c #717586",
"H  c #747B8C",
"J  c #797F8E",
"K  c #627E92",
"L  c #6C7E91",
"P  c #737F91",
"I  c #697BA1",
"U  c #6F828F",
"Y  c #7B818F",
"T  c #638197",
"R  c #6D8294",
"E  c #65849A",
"W  c #6A869B",
"Q  c #6A8A9F",
"!  c #748393",
"~  c #7B8493",
"^  c #738A97",
"/  c #7F8995",
"(  c #708598",
")  c #7C8698",
"_  c #758B9B",
"`  c #7D8B9B",
"'  c #76909F",
"]  c #7A919E",
"[  c #6885A4",
"{  c #6C8CA3",
"}  c #6B8EA8",
"|  c #728DA2",
" . c #7B8FA2",
".. c #6F90A4",
"X. c #6C90A9",
"o. c #7191A5",
"O. c #7C94A4",
"+. c #7395AD",
"@. c #7A95AA",
"#. c #7B99AD",
"$. c #7597B1",
"%. c #7699B2",
"&. c #7A9BB4",
"*. c #7E9FB8",
"=. c #7FA1B7",
"-. c #7FA1B9",
";. c #818B97",
":. c #828C9C",
">. c #85919D",
",. c #808FA2",
"<. c #8493A3",
"1. c #8994A4",
"2. c #8A99A6",
"3. c #8297AA",
"4. c #8996A9",
"5. c #849BAC",
"6. c #8B9CAD",
"7. c #909DAA",
"8. c #839CB4",
"9. c #8D9EB1",
"0. c #879DB8",
"q. c #8AA1AE",
"w. c #93A2AD",
"e. c #84A1B5",
"r. c #8CA3B3",
"t. c #84A4BB",
"y. c #89A6BB",
"u. c #8CAABD",
"i. c #94A4B4",
"p. c #94AAB7",
"a. c #9AABB5",
"s. c #96A6B9",
"d. c #98A5B8",
"f. c #95ABBB",
"g. c #9CAEBC",
"h. c #9DB1BD",
"j. c #A0B1BC",
"k. c #86A8C0",
"l. c #8DADC2",
"z. c #92ADC3",
"x. c #99AFC0",
"c. c #8FB0C5",
"v. c #93B2C6",
"b. c #9AB4C5",
"n. c #9AB8C7",
"m. c #95B4C9",
"M. c #9AB6CA",
"N. c #9DBBCD",
"B. c #9EBCCE",
"V. c #9FBDD0",
"C. c #A2B6C4",
"Z. c #A4B9C6",
"A. c #A1BDCD",
"S. c #A1BCCE",
"D. c #A0BDCE",
"F. c #A9BFCC",
"G. c #A2BFD1",
"H. c #A2BFD2",
"J. c #A9C0CF",
"K. c #A4C0D1",
"L. c #A4C1D2",
"P. c #A6C3D4",
"I. c #A6C2D6",
"U. c #A6C4D6",
"Y. c #A7C5D7",
"T. c #AAC5D5",
"R. c #A9C5D6",
"E. c #ABC7D9",
"W. c #ADC8DB",
"Q. c #AEC9DA",
"!. c #B1CCDC",
"~. c #B6D0DD",
"^. c #B8D1DE",
"/. c #B6D3E0",
/* pixels */
"& # } &.N.H.H.H.H.H.n.c B.W.W.K.n.H.H.K.W.:.S R v v v c z m E { { E T D D 6 F l.v.N.N.K.v.H.N.N.n.V ",
"& t X.t.H.H.H.H.H.H.f.z H.W.W.H.H.B.B.T.W.4.    % 9 p p j 8 = & $ & * - * . ! z.m.N.N.K.Q #.n.V.m.f ",
"$ t +.l.B.H.H.H.H.K.i.a K.W.E.H.N.n.B.E.W.i.% :.g.j.a.a.i.w.! F F F F Z , . :.N.M.N.I.y.Q Q ..v.b.p ",
"$ t &.v.N.H.H.H.H.H.6.q H.W.K.A.n.H.H.E.W.d.<.B.M.B.B.H.A.u.&.+.+.&.&.&.E = 2.N.N.N.A.o.o.o.o.Q #.8 ",
"o t &.M.B.V.H.H.H.K.:.3 m.W.A.B.B.H.H.W.W.i.A.H.N.N.B.H.H.T.t.&.*.*.&.&.&.q 1.M.M.N.e.o.o.o.o.Q _ 6 ",
"o u l.N.H.H.K.H.H.I.h 8 y.I.B.B.B.H.I.N.T.i.B.m.U.E.U.U.U.U.U.l.&.$.%.+.&.d ~ m.m.k.o.o.o.o.o.o._ , ",
"$ b m.B.N.K.H.H.H.T.< 6 @.H.B.B.B.A.E.%.t.6.l.I.E.U.U.U.U.U.U.K.N.t.l.t.&.v k M.v.#.o.+.{ o.{ o.^ < ",
"= K M.H.H.H.H.H.H.T.  2 W N.B.M.B.K.M.$.$.<.@.U.E.U.U.U.E.H.H.N.B.B.N.N.m.z 9 0.y.*.+.o.o.o.o.o.^ * ",
"f _ n.H.H.H.H.H.H.T.  , K V.M.n.A.y.+.o.o.4 B V.T.U.E.T.K.N.N.N.M.N.N.N.8.d < b.N.&.{ Q { { E W D   ",
"C _ A.H.H.H.H.B.A.!.. . i ! J H H p - - -   o u.U.U.U.!.t.l.l.k.t.-.-.+.c , . F K d c c d a d d -   ",
"C ] h.Z.q.O.r.K.H.W.f v z z a w , o     X     p m.K.N.y.} { { Q W D f 6 .     % 1 a z c d v d -     ",
"* - : 4 : 4 f :.C.g._ m.T.K.y.| @.!   X         4 p p p 8 4 8 p 9 p V F ! ! ! k     & 1 6 4 : .     ",
"    O k ! 4.:.G h g 4.H.T.W.W.T.M.O.  O ~ p.b.p.6.j         V b.M.H.U.E.I.K.H.A.n./   / b.T.!.E.6.O ",
"6.K.K.H.K.K.H.H.H.f.<.B.A.T.W.T.W.9.  7.H.U.U.T.U.I.b.<     A M.W.W.W.W.W.I.H.H.H.A.; n.H.E.M.W.m.7 ",
":.H.B.H.H.H.K.K.H.r.<.A.A.H.I.W.W.f.7 n.N.H.T.E.U.U.E.H.7   n e.W.W.W.W.W.I.H.H.H.A.g H.H.K.M.!.&.< ",
"j A.H.H.H.H.t.l.B.p.P B.H.N.N.T.W.b.H A.N.V.U.U.E.E.U.W.i.o n #.W.W.!.W.E.H.H.H.H.H.G H.A.B.A.E.&., ",
"g H.B.B.B.t.&.*.v.n.S K.H.N.A.H.K.z.>.F.m.B.U.U.U.U.T.E.F., v *.W.!.W.W.I.H.N.B.H.T.` H.H.A.B.K.N., ",
"k A.N.t.%.} { *.*.n.L -.E.H.A.B.H.z.;.F.M.V.U.E.U.E.T.T.Z.8 z y.W.W.W.E.n.B.B.A.I.W.<.H.K.H.N.H.B.< ",
"9 ^ z 0 0 @ + y o.e.( v.W.W.T.H.H.4./ Z.M.A.U.U.U.E.E.W.f.s y I M.W.W.K.B.A.H.H.E.W.5.E.T.B.B.B.B.7 ",
"O %   X % * * - e e 7 ~ s.i.b.b.f.j ;.Z.M.K.I.U.E.U.!./.f.p K N.W.W.W.A.B.A.H.N.W.W.4.W.E.A.B.N.H.g ",
"  2 y W { } { { { { | Q | W D S 9   J h.N.I.T.U.U.T.N.m.p.p K U.W.W.I.A.V.M.B.N.I.W.<.W.E.E.H.H.H.g ",
"& m y.N.N.v.l.l.l.l.t.$.l.T.T.I.M.s G g.M.K.T.U.E.V.M.l.r.6 T E.W.T.H.B.N.B.B.U.W.W.` W.W.W.T.K.B.e ",
"2 { M.N.N.N.N.N.N.N.N.M.W.E.T.T.U.y.j a.m.W.U.U.I.N.N.v.6., m E.E.A.B.H.V.H.H.W.T.E.G E.W.T.E.H.B.e ",
"q o.t.v.V.I.I.V.V.V.V.E.U.E.T.U.E.M._ O.%.M.E.E.K.N.N.v.6.* K K.I.N.B.B.B.H.U.H.T.W.C T.W.W.W.T.B.g ",
"q %.&.&.&.%.v.H.U.T.U.U.U.U.U.U.E.V.@.O.&.*.V.I.K.H.N.l.5.& n l.H.H.B.B.B.H.I.$.%.T.e K.I.I.W.W.N.9 ",
"3 $.&.&.&.*.&.t.K.T.U.U.U.U.U.U.E.U.@.O.%.&.k.H.H.N.v.l.` $ n *.K.K.N.B.H.m.t.+.+.8.4 #.b E k.v.| - ",
", { &.&.*.&.&.&.t.E.T.I.K.I.I.U.T.E. .O.+.&.%.N.B.M.m.k.! . 8 S 1.:.:.<.<.! ! ! S - . i x c u z n * ",
". w _ O.@.@.W E +.y.n.N.N.M.M.N.H.T.S _ &.&.&.*.E.N.N.k.~ j 6.i.f.b.A.H.K.K.K.K.K.N.x.p.4.O.) ` ~ r ",
"o G <.f.g.:.j F ` i.g.h.F.I.V.N.N.n.* ( *.*.$.t.H.N.M.l.k R E.K.H.H.H.H.K.H.H.H.H.H.H.H.H.H.K.H.K./ ",
"C K.T.W.W.N.p     4 g Y / 7.a.i.:.5   _ -.&.&.t.M.N.N.y.9 ! A.H.V.H.N.z.N.H.K.K.K.H.H.H.H.H.H.H.y.4 ",
"` H.H.K.E.t.s . - - - 4 9 e p e 7     _ &.&.&.*.N.N.M.e.4 q.K.B.m.t.&.&.&.*.m.V.H.H.B.H.H.H.H.K.O.% ",
"3.H.B.A.H.V.p s v.B.H.E.E.T.K.B.H.n.i.F &.&.&.&.m.m.l.K 9 A.M.l.-.&.%.&.%.&.&.&.y.l.v.N.N.M.H.H.h.X ",
"5.I.H.B.A.H.j f +.8.W.W.W.W.U.B.H.H.H.D T &.&.*.t.t.T a 9 f.y.&.#.{ b l y t l l b M N N { @.5.5.<.. ",
"6.W.H.B.N.B.! n { W.W.W.W.T.H.A.H.H.U.H 2 a N m b b v $ < h j V j , $ o o , s s B F R R ( R ! ! C   ",
"5.W.W.I.B.N.` z y.M.W.W.T.N.B.H.H.I.W.~ . 4 C _ 3.5.6.9.9.9.6.4.` H k 5   f z.W.W.W.W.W.I.H.H.H.A.: ",
"<.z.H.W.K.B.! b K.H.W.T.A.A.B.A.B.E.W.<.2.J.M.y.z.I.T.E.U.U.U.U.E.W.!.a.< n o.T.W.T.E.E.H.H.H.H.K.h ",
",.E.W.W.E.H.! n T.W.T.H.B.B.B.H.I.E.W.1.7.a.N.z.z.M.E.U.U.E.H.V.B.M.l.q.p z y.W.W.W.I.N.H.H.A.I.W.H ",
"` z.y.K.W.M.V n N.I.A.A.H.B.H.I.N.H.W.g 9 <.#.&.t.k.m.N.T.V.N.N.N.l.y.:.$ N K.W.W.T.A.B.A.H.H.W.W.H ",
"8 x c b K m 6 a #.K.K.A.N.B.M.z.+.+.y.<   ! @.&.&.&.&.&.m.B.N.l.m.e. .% o n K.E.H.A.B.B.H.H.T.T.H.k ",
"F / <.! j 4 - 8 p g 9 9 9 9 < < e p *     - x A D R Q | _ O._ R V 1 .   o n e.H.H.A.A.B.N.N.%.&.M.< ",
"S y.K.K.A.r._ _ 5.p.: * 7 h ! O.O.#.4.4 . . < 2.b.M.A.K.E.W.!.!.!.!.T.g.` , , e / ~ ` 2.4.2.~ 9 %   ",
"U t.z.N.H.I.T.W.!.T.h ' u.m.T.E.K.H.H.A.G   ;.H.H.H.H.K.T.E.W.W.M.E.K.%.+.j % g.^.!.!.!.!.~.!.Z.k   ",
"^ #.&.l.M.H.H.K.A.N.J _ W.W.W.W.E.H.H.m.p.o b.A.H.H.H.N.H.B.A.I.H.T.M.$.+.p ! T.V.M.N.N.B.A.K.W.T.G ",
"_ #.&.*.c.N.K.H.H.H.<.m E.E.W.W.W.H.K.m.n.h v.H.H.H.H.B.B.B.B.N.H.H.T.I.=.p ! V.y.v.v.m.m.v.v.m.B.C.",
"d | &.&.t.v.H.H.H.H.7.v N.W.W.W.W.K.H.H.n.F v.I.E.I.H.B.B.B.B.n.H.H.H.H.M.j P V.l.v.N.N.v.v.v.m.v.z.",
"> y %.%.&.t.H.H.H.H.i.n v.I.W.W.E.H.H.H.V.F m.W.W.W.E.I.N.H.B.B.n.H.B.H.A.~ H V.v.m.N.N.N.m.v.m.M.r.",
"o # o.&.&.&.l.I.H.K.g.v u.W.W.W.I.H.B.H.U.F n.W.W.W.W.W.W.T.K.B.H.B.B.B.N./ F N.v.m.N.N.N.N.N.m.N.3.",
". 0 Q &.&.&.t.I.H.H.n.v y.W.W.W.B.B.n.H.W.H u.W.W.I.W.W.W.W.W.T.H.B.B.B.B.~ F v.v.N.N.B.N.B.V.N.V._ ",
". 0 M [ &.&.v.I.K.H.m.c u.W.W.E.N.B.H.K.W.P e.W.W.W.W.W.W.W.W.!.W.I.B.B.K./ H y.v.N.N.B.N.N.N.N.H.! ",
"o # N &.%.-.I.H.H.H.n.z m.W.W.T.B.B.B.K.W.) 5.W.H.v.u.v.K.I.T.!.!.W.I.m.k.C F y.v.N.N.B.K.N.N.N.H.S "
};
