/* XPM */
static char *bc747f64d9374864ebbfd13d44c9227bOxPvZ1R1RvtCr56t[] = {
/* columns rows colors chars-per-pixel */
"50 50 232 2 ",
"   c None",
".  c #321223",
"X  c #3A1425",
"o  c #3C1A27",
"O  c #3F1733",
"+  c #663C1D",
"@  c #451B2B",
"#  c #4D1E2C",
"$  c #4A1923",
"%  c #551C2B",
"&  c #481F33",
"*  c #5A1E35",
"=  c #551D31",
"-  c #611E37",
";  c #422424",
":  c #47212C",
">  c #4D2A28",
",  c #55222D",
"<  c #5A242C",
"1  c #542B2D",
"2  c #5D2A2E",
"3  c #522A24",
"4  c #53332D",
"5  c #5B342B",
"6  c #5C3628",
"7  c #482637",
"8  c #562233",
"9  c #5A2432",
"0  c #5C2A35",
"q  c #55223A",
"w  c #5B253A",
"e  c #592939",
"r  c #5F3435",
"t  c #662E2A",
"y  c #66292B",
"u  c #6C3125",
"i  c #64332B",
"p  c #6D342B",
"a  c #6B3A2B",
"s  c #653924",
"d  c #743C2B",
"f  c #7B3D2B",
"g  c #783928",
"h  c #662C32",
"j  c #6A2E33",
"k  c #63293C",
"l  c #6B2B3A",
"z  c #642638",
"x  c #712C3B",
"c  c #643233",
"v  c #6B3235",
"b  c #6B3B33",
"n  c #6B343B",
"m  c #653839",
"M  c #723633",
"N  c #733C32",
"B  c #72333D",
"V  c #733B3A",
"C  c #7B3A39",
"Z  c #5D4039",
"A  c #764429",
"S  c #6A4133",
"D  c #6E433B",
"F  c #654539",
"G  c #734335",
"H  c #7B4533",
"J  c #74413B",
"K  c #78483E",
"L  c #664428",
"P  c #6B2A41",
"I  c #702E43",
"U  c #663442",
"Y  c #6C3747",
"T  c #753243",
"R  c #7B3944",
"E  c #763A45",
"W  c #6D4341",
"Q  c #784543",
"!  c #803B1D",
"~  c #863B29",
"^  c #893E3D",
"/  c #81442A",
"(  c #854B2E",
")  c #8E4727",
"_  c #964A28",
"`  c #93522E",
"'  c #9B5529",
"]  c #985627",
"[  c #84433C",
"{  c #85493C",
"}  c #8B4C3C",
"|  c #894735",
" . c #9B453B",
".. c #954B3A",
"X. c #994935",
"o. c #8B5235",
"O. c #84523C",
"+. c #875037",
"@. c #9C5333",
"#. c #93523E",
"$. c #975838",
"%. c #A34C3B",
"&. c #A5533C",
"*. c #A95838",
"=. c #B25D38",
"-. c #9F612F",
";. c #9B6032",
":. c #9F7330",
">. c #85653E",
",. c #A6672D",
"<. c #BE7B2B",
"1. c #B47B2F",
"2. c #A96534",
"3. c #AC6C3A",
"4. c #A66738",
"5. c #B3693A",
"6. c #BB7B34",
"7. c #BB753A",
"8. c #B0662B",
"9. c #C36B3A",
"0. c #C57B35",
"q. c #C47C38",
"w. c #853D44",
"e. c #803750",
"r. c #894444",
"t. c #9D4B44",
"y. c #9A4C4C",
"u. c #944746",
"i. c #875647",
"p. c #9A5D42",
"a. c #975B47",
"s. c #974555",
"d. c #A14E4D",
"f. c #AB5C44",
"g. c #A5544C",
"h. c #A65846",
"j. c #B25B44",
"k. c #B75F4F",
"l. c #B75958",
"z. c #A25154",
"x. c #9D6242",
"c. c #9C6449",
"v. c #A66649",
"b. c #B26443",
"n. c #B86849",
"m. c #BC7444",
"M. c #BB724C",
"N. c #BD7B4D",
"B. c #B47549",
"V. c #A36A54",
"C. c #B56657",
"Z. c #AB7758",
"A. c #B77956",
"S. c #B67A59",
"D. c #AE7748",
"F. c #AB5C60",
"G. c #B26664",
"H. c #C05E5C",
"J. c #C56947",
"K. c #D46F4F",
"L. c #CC7D4A",
"P. c #C67946",
"I. c #D27848",
"U. c #C86458",
"Y. c #D26C58",
"T. c #C97658",
"R. c #DB775A",
"E. c #D57966",
"W. c #D17E70",
"Q. c #C36E65",
"!. c #E17E65",
"~. c #BD8232",
"^. c #D0912F",
"/. c #C98C33",
"(. c #C88937",
"). c #C89434",
"_. c #DD9C3A",
"`. c #DA9638",
"'. c #CB8E36",
"]. c #E89D36",
"[. c #D7A537",
"{. c #EAA939",
"}. c #F4AF32",
"|. c #EAB63C",
" X c #F6B63A",
".X c #FCCB3E",
"XX c #EDC43E",
"oX c #BDAD7F",
"OX c #C48444",
"+X c #C88C45",
"@X c #C78745",
"#X c #D3854A",
"$X c #D48A4A",
"%X c #DA8E4D",
"&X c #D88744",
"*X c #CF9342",
"=X c #DC924C",
"-X c #D79747",
";X c #CA8853",
":X c #D38E51",
">X c #CB9352",
",X c #C89E52",
"<X c #D49457",
"1X c #E5994D",
"2X c #E39D5B",
"3X c #D6A352",
"4X c #D7B04F",
"5X c #E7A545",
"6X c #F2B646",
"7X c #E6B658",
"8X c #E4A755",
"9X c #CD8160",
"0X c #D99867",
"qX c #DC816B",
"wX c #D4AC6E",
"eX c #E7B268",
"rX c #F6C95A",
"tX c #F7D754",
"yX c #E6C646",
"uX c #ECC365",
"iX c #F5C765",
"pX c #FBD368",
"aX c #F1D372",
"sX c #FBE070",
"dX c #A48F83",
"fX c #D7B689",
"gX c #E9CB8B",
"hX c #F8E786",
"jX c #FBEC90",
"kX c #DDD3AC",
"lX c #F2E5A7",
"zX c #FCF8B9",
/* pixels */
"                                                                                                    ",
"                                                                                                    ",
"                                                                                                    ",
"                                                                                                    ",
"                                                                                                    ",
"                                                                                                    ",
"                                                                                                    ",
"                                                                                                    ",
"                                                                                                    ",
"                                                                                                    ",
"                                                            > b 4.6.'.6.                            ",
"                                                          2 i 6 s :.XX.X_.Z.                        ",
"                              m D G x.$.        U U E } ^ ^ h.f.{ L A yX).4XoX                      ",
"                        V.V.i.p.c.v.@X5X@X{ B y y n [ } f.j. .b.P.v.s A 4X).hXdX                    ",
"                    V.S.p.+.S o.o.$.B.@X5X5X4.Q V y { p.n.M.n.X.b.L.m.+ >.hXzXkX                    ",
"                    S.Z.v.K J H +.o.$.B.;XrX>XD.a.h. .v.M.M.P.J.X.=X1Xq.+ wXtXpX                    ",
"                  S.A.a.1 7 7 7 7 r x.b.N.>X,X(.m.n.M.*.P.$X=X=X5.%X1X1X2.-.{.-X7.                  ",
"                Z.A.v.4 7 h Y Y T 0 0 v.n.P.wXrXuXN.#XL.P.=X=X%Xm.<X;XwXeX6X`.6.0.                  ",
"                S.x.G 7 w x U U R B n c ` ' N.lXzXfX$X$X:X<X5.gXlXjXsX(.{._.<.<.2.                  ",
"              i.i.H H H H H H i N N v n / ` 2.wXhXuX7XiXtX1.' uXpXrXrX,./.[.|.6X                    ",
"              J D G O.O.O.O.G 6 ( ( ( ( ( / A 5.*X3X.X.XtX/.) 3X'.+X3X-X X}.<.7X                    ",
"              D H a a i 5 3 3 > > 3 6 s d A d ` 0.~.`.^././.) OX,.m.OXaX(.`.|.7X                    ",
"                i.S H H d H p d N p u p d g f / ' ^.{.}.{.].] ,.,.' _ -X' 5.pX7X                    ",
"                i.S b i c J A H H G d d / / d ` 7.`.`.0.8._ ~ ! >X0.OX0.) 3.pXiX                    ",
"                i.F 5 > # V N p u p p t d d a / 4.;.7.u ( | g ` +X2.3.) ~ 3.iX8X                    ",
"                i.F 4 ; # 1 #.d d f p , @ # f / *.(.-X*.m.5.g 4.$X_ ) _ ~ 2.5X=X                    ",
"                Q F 4 ; , b i.f d g t 2 8 $ d f $.-X=Xj.&.b.g | m.5.$X=.~ *.q.7.                    ",
"                W Z 4 ; i.N # : : : < p 9 $ t f ..0XeXb...=.| g b.2X%X9.X.@.5.P.                    ",
"                W F 4 5 v.v 8 # 8 # , i < % y g ..0X0Xf...j.} | @.L.*.9.*.@.&XI.                    ",
"                m D 4 b p.V k 8 e 8 8 t < % < d } ;X#X&...h.#.C &.J.X.j.=.X.I.I.                    ",
"                m D 4 4 a.N 8 8 e 8 2 p # % % p { M.A.h.t.t.t.M 9XT.%. .j...J.I.                    ",
"                  Q 1 o Q [ M j h t p < @ = < j [ v.#.g.t.u.g.[ u.n.n.j.h.%.%.T.                    ",
"                  J 2 o o v r.C M v # X 8 * 9 v ^ C.n.y.y.r.d.w.r.g.t.%.K.K.J.g.                    ",
"                  C c ; o . X @ @ . X q - * 8 j w.C.n.y.w.w.z.Q.E.T.R.R.Y.U. .v                     ",
"                  E h # , o . . . X & q - w 8 j R C.k.y.G.W.qX!.R.g.U.k.d.                          ",
"                  c h j j h 9 < , 9 9 = * w 8 l R C.l.Q.E.E.Y.U.U.u.w.                              ",
"                  I B R R B n n m j l z z k z l T F.G.l.l.U.H.z.                                    ",
"                  & o X       R E T B l l l z w l s.w.l.l.s.                                        ",
"                                      T I I k k l s.s.s.                                            ",
"                                            q w P e.k                                               ",
"                                              7 O                                                   ",
"                                                                                                    ",
"                                                                                                    ",
"                                                                                                    ",
"                                                                                                    ",
"                                                                                                    ",
"                                                                                                    ",
"                                                                                                    ",
"                                                                                                    ",
"                                                                                                    "
};
