/* XPM */
static char *a4b001b8d40a48ab936d944bd7ee11ffiKET8T0AOjlihshf[] = {
/* columns rows colors chars-per-pixel */
"50 50 171 2 ",
"   c None",
".  c #010404",
"X  c #060909",
"o  c #0A0C0D",
"O  c #0F1709",
"+  c #131D09",
"@  c #0C1315",
"#  c #0F161A",
"$  c #101316",
"%  c #11161A",
"&  c #131A1D",
"*  c #122006",
"=  c #16220B",
"-  c #1A2613",
";  c #1E2A12",
":  c #1F2B1F",
">  c #172214",
",  c #202D15",
"<  c #382D18",
"1  c #213116",
"2  c #253519",
"3  c #26391C",
"4  c #2A3C1D",
"5  c #29371C",
"6  c #35371C",
"7  c #151C22",
"8  c #191E23",
"9  c #191F2A",
"0  c #1A2026",
"q  c #17212A",
"w  c #1C242B",
"e  c #1D282E",
"r  c #1E2733",
"t  c #1E2936",
"y  c #1F2B38",
"u  c #242F27",
"i  c #21272E",
"p  c #222A2D",
"a  c #2F3023",
"s  c #273429",
"d  c #202732",
"f  c #232B35",
"g  c #292F34",
"h  c #242D3B",
"j  c #282F38",
"k  c #2A3035",
"l  c #26303C",
"z  c #2B333C",
"x  c #2C3833",
"c  c #522D1D",
"v  c #452A22",
"b  c #2C431F",
"n  c #31411E",
"m  c #33491F",
"M  c #2D4420",
"N  c #334620",
"B  c #324921",
"V  c #3B4E24",
"C  c #365226",
"Z  c #395426",
"A  c #3C5A2A",
"S  c #445537",
"D  c #45652E",
"F  c #48662C",
"G  c #4A6B2E",
"H  c #50712F",
"J  c #476730",
"K  c #486731",
"L  c #4B6B31",
"P  c #507231",
"I  c #5A7D34",
"U  c #56723F",
"Y  c #262F40",
"T  c #263342",
"R  c #293443",
"E  c #2E3A45",
"W  c #293749",
"Q  c #2C3A4B",
"!  c #333C45",
"~  c #333E4B",
"^  c #2E3D51",
"/  c #36414C",
"(  c #39454C",
")  c #3D4D47",
"_  c #344154",
"`  c #394553",
"'  c #3F4A55",
"]  c #35455C",
"[  c #3A465A",
"{  c #37485F",
"}  c #3D4A5C",
"|  c #374961",
" . c #394B63",
".. c #3B516D",
"X. c #3E5370",
"o. c #424C55",
"O. c #424E5B",
"+. c #45505F",
"@. c #4B535E",
"#. c #415152",
"$. c #657E50",
"%. c #627054",
"&. c #424D63",
"*. c #435264",
"=. c #4D5662",
"-. c #45546A",
";. c #49566E",
":. c #4A586F",
">. c #505963",
",. c #455772",
"<. c #4A5770",
"1. c #415977",
"2. c #4B5A73",
"3. c #4D5D79",
"4. c #425A79",
"5. c #515D74",
"6. c #525F7B",
"7. c #57616E",
"8. c #4F607B",
"9. c #546075",
"0. c #5C6672",
"q. c #5F6A77",
"w. c #53627A",
"e. c #6E7D60",
"r. c #606A76",
"t. c #606B78",
"y. c #66727F",
"u. c #69737F",
"i. c #61823D",
"p. c #6A8456",
"a. c #759059",
"s. c #748366",
"d. c #7C9663",
"f. c #81936F",
"g. c #829C64",
"h. c #889776",
"j. c #8B9B79",
"k. c #97AC7C",
"l. c #546582",
"z. c #576987",
"x. c #596983",
"c. c #5A6C8B",
"v. c #677587",
"b. c #697382",
"n. c #6F7A87",
"m. c #63728A",
"M. c #6A7789",
"N. c #6A798A",
"B. c #737D8B",
"V. c #717B86",
"C. c #667791",
"Z. c #6E7E9A",
"A. c #727F98",
"S. c #6E829F",
"D. c #75849D",
"F. c #7B899F",
"G. c #7A8492",
"H. c #6C81A0",
"J. c #7C8BA2",
"K. c #748AAE",
"L. c #7B8CAC",
"P. c #99A887",
"I. c #ACBD96",
"U. c #8E9AAE",
"Y. c #8795AA",
"T. c #939EB1",
"R. c #9DAABD",
"E. c #BCC4AC",
"W. c #C2CDB1",
"Q. c #ABB6C7",
"!. c #AAB7C9",
/* pixels */
"                                                                                                    ",
"                                                                                                    ",
"                                                                                                    ",
"                                                                                                    ",
"                                      @ % 8 e u 2 N N                                               ",
"                            ~ O.9.9.' $ o & 4 G G I I I i.f.%.                                      ",
"                        z p _ ` ,.,.-.0 @ > n G G I I I g.I.W.a.Z                                   ",
"                      0 # d ` [ 2.x.J.U. .#.4 D P I I I I I i.I k.j.                                ",
"                  g 7 p p E [ } 3.Y.x.F.<.O.V B P I I I I I I I d.W.h.                              ",
"                  8   7 & } } &.3.m.Q.U.C.:.5 V P I I I I I P G J p.E.s.                            ",
"                7 % 7 $ h &.&.-.8.8.x.m.A.2.) 4 F I I I I L J J J J p.E.S                           ",
"                0   0   _ &.&.;.l.l.R.J.T.<.} n B I I I L J J J J J J f.j.                          ",
"                8   8   &.-.-.<.l.l.Y.C.R.D.w.a < H I P J J J J J J J K P.S                         ",
"              & % 7 % h ;.;.;.2.z.z.C.R.Z.z.-.o.6 m I J J J J J J J J J U e.                        ",
"              8     8 E <.<.<.3.c.c.Z.D.!.c.;.*.v < F J J J J J J J J J J $.                        ",
"              7 @     &.2.2.2.w.c.R.J.T.B.*.W l ' c 4 D J J J J J J J J J J 4                       ",
"                7 8 w 6.6.6.6.l.x.5.u.V.w.B. . .;.s ; N D J J J J J J J J J 4                       ",
"                    E w.w.5.` _ f  .G._ ! h Q  .] } ; - Z D J J J J J J J J 4                       ",
"                    &.[ ~ i T W Q  .d & E f 7 ^  ._ ( ; , Z D J J J J J J J 3                       ",
"                    8 d h d R R  .^ e E ~ 2.d W _  . .x ; 1 C A D J J D D A -                       ",
"                    7 h R R R R ] W f f O.O.E Q Q  . . .u ; ; B C Z Z C M M                         ",
"                      h R R R h l W 0 g / 9.7 R ] X.] W } u = = 1 b b M M 4                         ",
"                      w l d w q r W d 0 ! ~ ` _ 1.4.W w d } } - = + ; 3 M 2                         ",
"                        q q q q w R R f r f ~ | ..W | y r h _ x.O.: * + = O                         ",
"                        # & &       d R R f w *.Q w r | h r l { <.S.x.( s O.(                       ",
"                                      7 d h f 0 h ^ q h W T |  . .[ 8.H.K.K.L.b.                    ",
"                                          # X $ 8 W W q h  . . . . .] ~ -.w.w.x.`                   ",
"                                          % o @ w h R T {  . . . . .] E ;.&.&.:.E                   ",
"                                          f i w 7 q R d ]  . . . . . . . .h e d                     ",
"                                      8 f f f ~ % @ d ~ t.b.b.b.b.b.}  .} R q z                     ",
"                                  & & l f f z z # @ q +./ w w w w k b. .] ~ 7 h                     ",
"                                  7 7 f f f E q # @ % d =.0 0 0 0 & 7.R r } d                       ",
"                                % 0 7 ! 0.r.q.w % @ 7 7 z @ % % % % ! 7 % ` ~                       ",
"                              l ( M.v.B.0.>.B.k @ @ & o.8 & 9 9 9 9 9 9 % 7 f w k                   ",
"                            q f l 0 7 o.u.B.n.8 @ @ % =.f W h d d h W Y f r 0 8                     ",
"                              7 7.v.N.q.@.@.y.p @ @ @ 0 7 7 q i i e f 7                             ",
"                                w 7 7 0 f z ` 7 @ @ @ 7 0 d e                                       ",
"                                & 7 7 7 f z ` e @ @ @ # q j E                                       ",
"                                # 7 7 7 e j ` l @ @ @ @ & 8 q &                                     ",
"                              @ & 7 7 & 7 0 d p & @ @ q w w e f z e                                 ",
"                              0 8 & % e f f f j ~ / & q w w w w d ! f                               ",
"                            & i 7 % 7 0 f f f f h ! ` 7 w w w w w l E                               ",
"                        Q W 7 w w & % & 8 0 8 w f z / h 7 7 7 7 7 w d &                             ",
"                      & ] r @ 7 0 7 8 o o o o @ 0 w l w X X X X X o o .                             ",
"                        .   . . . . . . . . . . . . . .                                             ",
"                                                                                                    ",
"                                                                                                    ",
"                                                                                                    ",
"                                                                                                    ",
"                                                                                                    "
};
