/* XPM */
static char *aa93b9b603b74723f55decdc46069bd2xDpYsp68zKmNndr6[] = {
/* columns rows colors chars-per-pixel */
"50 50 201 2 ",
"   c None",
".  c #2B1F26",
"X  c #32232B",
"o  c #3C2E35",
"O  c #3F3038",
"+  c #3E3137",
"@  c #2F232B",
"#  c #5B2B1A",
"$  c #5B2813",
"%  c #6D2A0E",
"&  c #742A0E",
"*  c #622B15",
"=  c #6C2A14",
"-  c #652917",
";  c #732B11",
":  c #7A2D12",
">  c #732F1E",
",  c #7E3114",
"<  c #552F25",
"1  c #5B3326",
"2  c #43353A",
"3  c #45373C",
"4  c #5A3633",
"5  c #5B3A33",
"6  c #5A3E3B",
"7  c #553A3A",
"8  c #733C29",
"9  c #5D403E",
"0  c #53413B",
"q  c #744333",
"w  c #75483B",
"e  c #7D432D",
"r  c #4A3C41",
"t  c #5B3F43",
"y  c #4F4149",
"u  c #5E4442",
"i  c #55444B",
"p  c #5E4649",
"a  c #5A4842",
"s  c #5A5053",
"d  c #604748",
"f  c #634B4D",
"g  c #604545",
"h  c #6C524C",
"j  c #785948",
"k  c #624D54",
"l  c #645156",
"z  c #685155",
"x  c #655159",
"c  c #69565F",
"v  c #69585D",
"b  c #72514C",
"n  c #6D5B63",
"m  c #715D66",
"M  c #745E69",
"N  c #76616A",
"B  c #79656D",
"V  c #77656B",
"C  c #7D6972",
"Z  c #7E6770",
"A  c #833214",
"S  c #8A3516",
"D  c #8C3A1A",
"F  c #8B3519",
"G  c #933C1B",
"H  c #993E1D",
"J  c #92371B",
"K  c #9C3D21",
"L  c #973C20",
"P  c #99441E",
"I  c #9C4423",
"U  c #9D4A25",
"Y  c #944925",
"T  c #864E39",
"R  c #9A593E",
"E  c #96492D",
"W  c #A34323",
"Q  c #A44B24",
"!  c #A94E2B",
"~  c #AB5229",
"^  c #A95428",
"/  c #B25B2D",
"(  c #B85A2F",
")  c #B45D33",
"_  c #B65B33",
"`  c #A45931",
"'  c #B5612F",
"]  c #B76233",
"[  c #BC6434",
"{  c #BC6539",
"}  c #B96B39",
"|  c #BE7339",
" . c #AE6B3E",
".. c #C26536",
"X. c #C46A37",
"o. c #C36B3A",
"O. c #C6683B",
"+. c #C3743C",
"@. c #C67A3D",
"#. c #C9753E",
"$. c #845A4D",
"%. c #905F40",
"&. c #845B53",
"*. c #8C6C59",
"=. c #947554",
"-. c #9C6840",
";. c #A26B48",
":. c #A6714A",
">. c #BA7846",
",. c #A8765A",
"<. c #A06752",
"1. c #826B75",
"2. c #856E78",
"3. c #85727A",
"4. c #89797D",
"5. c #947770",
"6. c #BA7561",
"7. c #CC7640",
"8. c #C77C40",
"9. c #CC7C42",
"0. c #C8784B",
"q. c #D17E45",
"w. c #C87A54",
"e. c #BC8D5B",
"r. c #AE8054",
"t. c #9B827B",
"y. c #B58B62",
"u. c #CE8144",
"i. c #CF814A",
"p. c #D18446",
"a. c #D38946",
"s. c #D28549",
"d. c #D48B4A",
"f. c #D98D4B",
"g. c #D6914D",
"h. c #DA934D",
"j. c #D79A4F",
"k. c #C78D58",
"l. c #C9955A",
"z. c #D69450",
"x. c #DB9552",
"c. c #DC9A53",
"v. c #D99D59",
"b. c #E19E58",
"n. c #DDA157",
"m. c #E2A35A",
"M. c #C68664",
"N. c #CEA064",
"B. c #8C7A82",
"V. c #8D7782",
"C. c #927F86",
"Z. c #95848A",
"A. c #98878E",
"S. c #9D8B92",
"D. c #9F9495",
"F. c #A58A86",
"G. c #A18F96",
"H. c #A6969C",
"J. c #A5989B",
"K. c #AA9A9E",
"L. c #A8979E",
"P. c #AAA09F",
"I. c #AD9DA1",
"U. c #ACA1A4",
"Y. c #B2A4A6",
"T. c #B2A5A9",
"R. c #B6AAAB",
"E. c #B9ADAD",
"W. c #B4A9A7",
"Q. c #BBAEB4",
"!. c #BDB2B4",
"~. c #BFBAB9",
"^. c #D39683",
"/. c #C1B5B6",
"(. c #C4BBBC",
"). c #C8BDBF",
"_. c #C7BEC0",
"`. c #C9BEC0",
"'. c #C6C3C3",
"]. c #CCC4C4",
"[. c #CEC9CA",
"{. c #CDC4C8",
"}. c #D4CDCC",
"|. c #D0C7C8",
" X c #D6CFD0",
".X c #D7D1D1",
"XX c #DBD5D5",
"oX c #DCD8D7",
"OX c #DED9D9",
"+X c #DFD7D9",
"@X c #D6D0CF",
"#X c #E2DDDD",
"$X c #E5DEDF",
"%X c #E2DCDC",
"&X c #E5E0DF",
"*X c #E5DEE0",
"=X c #E6E1E0",
"-X c #E6E1E1",
";X c #E9E4E3",
":X c #ECE9E8",
">X c #F0EFED",
/* pixels */
"                                                                                                    ",
"                                                                                                    ",
"                          {.XXoX'.                      }.}.@X{.!.R.R.                              ",
"                        '.=X$X}.E.D.  (./..XOXXX-X-X$X$X-X-X-X-X$X/.W.R.                            ",
"                        !.!.E.P.D.J.!.oX_..X.XXXoX#X*X$X$X&X&X%X].E.Y.W.                            ",
"                  oXOX}.|.{.(.(.|.}.[.{.!.(.Y.I.J.K.Y.E././.!.E.R.R.!.(.|.|.|.).                    ",
"                [.#X$X+XXXXXoXXXXXOX%X#X#X#X(..XXX}.{._.(.(.'.|.|.XXXXXXXXXXoX%X'.                  ",
"                }.oX%X-X#X%X%XOXoXoX-XOXoXOXoXXXoXoXXXXXXXXXXXXX%XoXoXoXXXoX%X$X%X~.                ",
"                }.XXXX#X:X_.Y.!.|.oX%X$X;X;X;X;X#X%X%X%X%X%X%X#X&X&X-X=X#X-X=XoXoX[.                ",
"                [.XXXX%X].B c l l B 4.N B C 3.B.Z.A.S.S.G.G.G.G.S.A.Z.C.H.%X#XXXXX}.                ",
"                {.XXXX#X!.n 9 # $ $ # < 4 6 u d f k z z z z z k f f x m 1.Q.#XXXXX.X                ",
"                |.XXXX%XY.c * J U I G S S A , : & ; ; % & % ; ; : : - k 1.U.%XXXXXXX                ",
"                XXXXXX#XH.c - ] p.s./ Q ) ) ] ) Q ) ) ) ) H { ] ) ~ : d Z A.].~.XXXX                ",
"                #XOXoX=XC.n = p.h.h./ ^ +.9.h.7.Q +.d.f.a.P x.h.} / , p B B.'.~.XXoX[.              ",
"                $X}._._.3.v : d.h.h./ | c.d.x.9.Q g.h.h.c.P x.h.@.{ A d V C [.(.XXOX{.              ",
"              }.%XXXOX;XC f , f.h.f.) 8.h.a.h.u.Q f.d.m.m.P x.h.9.o.S p N 3.#XXXXX%X[.              ",
"              XXoXXXXX%XB p D f.h.a.' @.h.a.h.p.Q a.c.n.m.Q x.h.p.{ S u N 2.#X=X#XXX                ",
"              XXXXXXXX XV t P a.h.p.] +.x.c.m.a.Q s.m.n.m.^ x.d.d.{ D u N 1.%X#XXXXX}.              ",
"              .XoXXXXX].N 7 Y :.:.>.[ @.h.c.m.z.` k.z.n.m.^ x.c.f.) D 9 m 1.$XoXoXXXXX              ",
"              }.oXXXoX(.M 7 k v n p Y 7.x.c.N.b 2 2 *.v.n./ x.c.h.) D 9 m 1.+XoXXXXXXX              ",
"              [.XXXXoX/.M 7 e %.j -.] 8.c.v.h 2 2 3 X =.c.' x.c.x.o.D 6 m 1. XoXXXXXXX].            ",
"              {.oXXXoX!.m 4 Q h.v.c.| +.v.,.y + 2 r X 3 l.] x.c.c.o.D 6 m 1.].OXoXXXXX].            ",
"              '.XXXXoX!.n 4 U x.c.c.8.+.v.h i + 2 r X r =.[ c.c.c.+.S 6 m 1.(.%XoXXXXX].            ",
"              '.XXXXoX!.n 4 U x.j.c.u.+.e.+ i + o y . 3 a } c.c.x.+.S 9 m 1./.%XoXXXoX{.            ",
"                .XXX%X!.n 4 U c.x.h.u.@.y.+ i o 3 n @ 3 2  .c.c.h.7.A 9 m 1.Q.#XXXXXoX              ",
"                .X%X#XY.m 4 I x.c.g.a.+.y.r i 3 o s 2 2 0 >.c.j.g.i.A 9 m 1.R.-X$X$XXX              ",
"              '.oXoX$XT.m 5 P x.z.d.a.@.z.k.e.e.R ;.r.e.l.| b.h.g.u., u m 1.S.!.XX-X#X              ",
"              '.XXXX#X!.M 5 G x.g.f.u.7.x.d.h.g.[ p.g.g.f.+.b.g.x.9.: g m 1.I.-XOXoXOXXX            ",
"              ].XXXX$X!.M 5 D f.d.d.a.8.a.d.d.g.o.p.f.d.f.@.c.a.d.9.: g m 1.I.&XoXXXXXOX            ",
"              {.XXXX#X!.M 6 S a.a.d.p.8.d.a.d.d.#.p.d.f.d.@.c.d.g.9.; p m 1.I.-XoXXXoX-X            ",
"              {.XXXX#X(.B 9 A 9.p.d.d.8.d.d.a.a.7.p.d.g.d.8.x.a.d.7.& p N 1.L.-XoXXX#X$X            ",
"              ].XXXX#X].B p ; +.a.d.d.+.a.a.p.p.9.p.d.d.d.u.d.s.d.#.= d N 1.L.-XoXXXXXOXXX          ",
"              '.XXXX%XXXC k = [ d.d.s.[ a.s.p.p.9.s.s.u.d.9.p.a.d.+.= f N 1.H.-XoXXXXXoX            ",
"              '.oXXXOX'.1.l q M.d.a.s./ p.u.u.p.7.p.p.p.s.u.s.s.d.{ * k N 1.H.-XXXXXXXoX            ",
"                .X.XOXXX4.3.*.<.;.:.>./ p.p.p.p.7.p.p.p.s.u.p.s.a./ * k B 1.L.-XoXXXXXXX            ",
"              {.XXXX%X-XH.Z.v k v n 6 Y p.u.p.p.+.p.u.p.p.u.p.p.a.Q * k C V.U.;X-X%XoXXX            ",
"              {.XXXXOX-XS.m < > T T  .^ 9.9.p.p.X.9.9.9.p.9.p.p.q.I # l C 2.T.&XoXXXXXoX            ",
"              '.OXoXoX#XI.M 4 A [ O.#.~ 9.9.9.q./ q.9.9.9.o.7.9.o.H # k C 1.T.%XoXXXXXoX            ",
"              _.OXXXXX-XR.B 9 & _ X.X.Q q.9.9.q.~ 9.7.9.9./ ..o.X.G # l 1.1.R.%XXXXXXXoX{.          ",
"                OXXXoX-X!.1.f % Q X.X.W 7.7.9.9.Q 7.7.7.7.~ X...o.D 1 x 1.1.!.%XXXXXXXoX{.          ",
"                oXXXXX$X).1.x * H ( ..W o.X.#.o.W 9.7.7.o.Q 0.w.w.S 4 x 1.1._.OXoXXXXXoX}.          ",
"                oXoXXX$XXX1.n 1 J W W W ~ ( [ ..H p.......P 0.M.^.R u c 1.1.XXOXXXXXXXOX}.          ",
"                }.OXOX$X*XB.M 5 A L K K I K W W F _ ! ! ~ S 6.E ,.8 u m L.I.}.oXXXXXXXOX}.          ",
"                ].$X-X-X=X!.C 4.F.5.*.$.b w q q 8 q q q $.&.t.F.t.5.Z.(.}.}.(.'.XXXXXX#XXX          ",
"                  .XOXoX;X:X X%X#X%X$X%X%XXXXX}.|.]._.XX{.(.[.!.Q.Q.I.R.R.!.}.!.$X#X$X;X>X          ",
"                                                $X$X-X#X-X%X$X$X#X*XH.L.Y.W.Y.Y._._.(.U.            ",
"                                                                                                    ",
"                                                                                                    ",
"                                                                                                    ",
"                                                                                                    "
};
